<svg width="20" height="19" viewBox="0 0 20 19" fill="none" xmlns="http://www.w3.org/2000/svg">
<path d="M10 19L8.55 17.7C6.86667 16.1833 5.475 14.875 4.375 13.775C3.275 12.675 2.4 11.6873 1.75 10.812C1.1 9.93733 0.646 9.13333 0.388 8.39999C0.13 7.66666 0.000666667 6.91666 0 6.14999C0 4.58333 0.525 3.27499 1.575 2.22499C2.625 1.17499 3.93333 0.649994 5.5 0.649994C6.36667 0.649994 7.19167 0.833327 7.975 1.19999C8.75833 1.56666 9.43333 2.08333 10 2.74999C10.5667 2.08333 11.2417 1.56666 12.025 1.19999C12.8083 0.833327 13.6333 0.649994 14.5 0.649994C16.0667 0.649994 17.375 1.17499 18.425 2.22499C19.475 3.27499 20 4.58333 20 6.14999C20 6.91666 19.8707 7.66666 19.612 8.39999C19.3533 9.13333 18.8993 9.93733 18.25 10.812C17.6 11.6873 16.725 12.675 15.625 13.775C14.525 14.875 13.1333 16.1833 11.45 17.7L10 19Z" fill="white"/>
</svg>
