<?xml version="1.0" encoding="UTF-8"?>
<svg id="Layer_1" data-name="Layer 1" xmlns="http://www.w3.org/2000/svg" version="1.1" viewBox="0 0 1000 1000">
  <defs>
    <style>
      .cls-1 {
        fill: #e30a12;
      }

      .cls-1, .cls-2, .cls-3 {
        stroke-width: 0px;
      }

      .cls-2 {
        fill: #211c19;
      }

      .cls-3 {
        fill: #ad0c11;
      }
    </style>
  </defs>
  <rect class="cls-2" width="1000" height="1000" rx="110.8" ry="110.8"/>
  <g>
    <path class="cls-3" d="M715.1,173.4v232.2l-47.4,130.1-102.9,282.3c-21.3-.2-42.9-.4-64.7-.4s-44,.1-65.6.4l-102.2-281.9-47.3-130.5v-232.2h47.4l168.1,480.3,167.2-480.1h0c0-.1,47.4-.1,47.4-.1Z"/>
    <path class="cls-1" d="M332.3,173.4v646.8c-48.9,1.5-96.1,3.7-141.2,6.5V173.4h141.2Z"/>
    <path class="cls-1" d="M808.9,173.4v653.3c-45.1-2.8-92.3-4.9-141.2-6.5V173.4h141.2Z"/>
  </g>
</svg>