<?xml version="1.0" encoding="UTF-8"?>
<svg id="Layer_1" data-name="Layer 1" xmlns="http://www.w3.org/2000/svg" version="1.1" viewBox="0 0 678.3 450.6">
  <defs>
    <style>
      .cls-1 {
        fill: #ffc19d;
      }

      .cls-1, .cls-2, .cls-3, .cls-4, .cls-5, .cls-6, .cls-7, .cls-8, .cls-9, .cls-10, .cls-11, .cls-12 {
        stroke-width: 0px;
      }

      .cls-2 {
        fill: #c17560;
      }

      .cls-3 {
        fill: #375a64;
      }

      .cls-4 {
        fill: #e1e1e1;
      }

      .cls-5 {
        fill: #1a2e35;
      }

      .cls-6 {
        fill: #000;
      }

      .cls-7 {
        fill: #ececec;
      }

      .cls-8 {
        fill: #ff9c6a;
      }

      .cls-13 {
        opacity: .3;
      }

      .cls-14 {
        opacity: .6;
      }

      .cls-9 {
        fill: #7c4236;
      }

      .cls-10 {
        fill: #ff735d;
      }

      .cls-11 {
        fill: #fafafa;
      }

      .cls-12 {
        fill: #fff;
      }
    </style>
  </defs>
  <g>
    <path class="cls-4" d="M659.8,289.4s0,0,0-.2c0-.2,0-.4,0-.7,0-.6,0-1.5,0-2.5,0-2.2,0-5.4,0-9.4l.2.2c-11.1,0-28.8,0-48.6,0,.1-.1-.3.2.2-.2h0v.4s0,.4,0,.4v.8c0,.5,0,1.1,0,1.6,0,1.1,0,2.2,0,3.2,0,2.1,0,4.3,0,6.3l-.2-.2c13.9,0,26,0,34.7.1,4.3,0,7.8,0,10.2,0,1.2,0,2.1,0,2.8,0,.3,0,.5,0,.7,0,.2,0,.3,0,.3,0,0,0,0,0-.2,0-.2,0-.4,0-.7,0-.6,0-1.6,0-2.7,0-2.4,0-5.9,0-10.2,0-8.7,0-20.9,0-34.8.1h-.2s0-.2,0-.2c0-2.1,0-4.2,0-6.3,0-1.1,0-2.2,0-3.2,0-.5,0-1.1,0-1.6v-.8s0-.4,0-.4v-.2h0v-.2h0c.5-.5.1-.2.3-.3,19.9,0,37.5,0,48.6,0h.2s0,.2,0,.2c0,4.1,0,7.3,0,9.5,0,1.1,0,1.9,0,2.5,0,.3,0,.5,0,.6,0,.1,0,.2,0,.2Z"/>
    <path class="cls-4" d="M666.4,276.5s0,0,0-.2c0-.2,0-.4,0-.7,0-.6,0-1.5,0-2.6,0-2.3,0-5.4,0-9.4l.2.2c-7.6,0-17.9,0-29.2,0-.2.2.3-.3.2-.2h0v.4s0,.4,0,.4v.8c0,.6,0,1.1,0,1.7,0,1.1,0,2.2,0,3.3,0,2.2,0,4.2,0,6.2l-.2-.2c8.4,0,15.7,0,20.9.1,2.6,0,4.6,0,6.1,0,.7,0,1.2,0,1.6,0,.4,0,.6,0,.6,0,0,0-.2,0-.5,0-.4,0-.9,0-1.6,0-1.5,0-3.5,0-6,0-5.2,0-12.6,0-21.1.1h-.2s0-.2,0-.2c0-2,0-4.1,0-6.2,0-1.1,0-2.2,0-3.3,0-.6,0-1.1,0-1.7v-.8s0-.4,0-.4v-.2h0v-.2h0c0,0,.5-.5.2-.3,11.4,0,21.7,0,29.2,0h.2s0,.2,0,.2c0,4,0,7.2,0,9.5,0,1.1,0,1.9,0,2.5,0,.6,0,.9,0,.9Z"/>
  </g>
  <g>
    <path class="cls-4" d="M659.8,289.4s0,0,0-.2c0-.2,0-.4,0-.7,0-.6,0-1.5,0-2.5,0-2.2,0-5.4,0-9.4l.2.2c-11.1,0-28.8,0-48.6,0,.1-.1-.3.2.2-.2h0v.4s0,.4,0,.4v.8c0,.5,0,1.1,0,1.6,0,1.1,0,2.2,0,3.2,0,2.1,0,4.3,0,6.3l-.2-.2c13.9,0,26,0,34.7.1,4.3,0,7.8,0,10.2,0,1.2,0,2.1,0,2.8,0,.3,0,.5,0,.7,0,.2,0,.3,0,.3,0,0,0,0,0-.2,0-.2,0-.4,0-.7,0-.6,0-1.6,0-2.7,0-2.4,0-5.9,0-10.2,0-8.7,0-20.9,0-34.8.1h-.2s0-.2,0-.2c0-2.1,0-4.2,0-6.3,0-1.1,0-2.2,0-3.2,0-.5,0-1.1,0-1.6v-.8s0-.4,0-.4v-.2h0v-.2h0c.5-.5.1-.2.3-.3,19.9,0,37.5,0,48.6,0h.2s0,.2,0,.2c0,4.1,0,7.3,0,9.5,0,1.1,0,1.9,0,2.5,0,.3,0,.5,0,.6,0,.1,0,.2,0,.2Z"/>
    <path class="cls-4" d="M666.4,276.5s0,0,0-.2c0-.2,0-.4,0-.7,0-.6,0-1.5,0-2.6,0-2.3,0-5.4,0-9.4l.2.2c-7.6,0-17.9,0-29.2,0-.2.2.3-.3.2-.2h0v.4s0,.4,0,.4v.8c0,.6,0,1.1,0,1.7,0,1.1,0,2.2,0,3.3,0,2.2,0,4.2,0,6.2l-.2-.2c8.4,0,15.7,0,20.9.1,2.6,0,4.6,0,6.1,0,.7,0,1.2,0,1.6,0,.4,0,.6,0,.6,0,0,0-.2,0-.5,0-.4,0-.9,0-1.6,0-1.5,0-3.5,0-6,0-5.2,0-12.6,0-21.1.1h-.2s0-.2,0-.2c0-2,0-4.1,0-6.2,0-1.1,0-2.2,0-3.3,0-.6,0-1.1,0-1.7v-.8s0-.4,0-.4v-.2h0v-.2h0c0,0,.5-.5.2-.3,11.4,0,21.7,0,29.2,0h.2s0,.2,0,.2c0,4,0,7.2,0,9.5,0,1.1,0,1.9,0,2.5,0,.6,0,.9,0,.9Z"/>
  </g>
  <g>
    <rect class="cls-7" x="54.9" y="66.6" width="48.7" height="12.9"/>
    <path class="cls-4" d="M83,93s0,0,0-.2c0-.2,0-.4,0-.7,0-.6,0-1.5,0-2.5,0-2.2,0-5.4,0-9.4l.2.2c-11.1,0-28.8,0-48.6,0,.1-.1-.2.2.2-.2h0v.8s0,.8,0,.8c0,.5,0,1.1,0,1.6,0,1.1,0,2.2,0,3.2,0,2.1,0,4.3,0,6.3l-.2-.2c13.9,0,26,0,34.7.1,4.3,0,7.8,0,10.2,0,1.2,0,2.1,0,2.8,0,.3,0,.5,0,.7,0,.2,0,.3,0,.3,0,0,0,0,0-.2,0-.2,0-.4,0-.7,0-.6,0-1.6,0-2.7,0-2.4,0-5.9,0-10.2,0-8.7,0-20.9,0-34.8.1h-.2s0-.2,0-.2c0-2.1,0-4.2,0-6.3,0-1.1,0-2.2,0-3.2,0-.5,0-1.1,0-1.6v-.8s0-.4,0-.4v-.2h0v-.2h0c.5-.5.1-.2.3-.3,19.9,0,37.5,0,48.6,0h.2s0,.2,0,.2c0,4.1,0,7.3,0,9.5,0,1.1,0,1.9,0,2.5,0,.3,0,.5,0,.6,0,.1,0,.2,0,.2Z"/>
  </g>
  <g>
    <rect class="cls-7" x="410.4" y="311.3" width="48.7" height="12.9"/>
    <path class="cls-4" d="M438.5,337.7s0,0,0-.2c0-.2,0-.4,0-.7,0-.6,0-1.5,0-2.5,0-2.2,0-5.4,0-9.4l.2.2c-11.1,0-28.8,0-48.6,0,.1-.1-.2.2.2-.2h0v.8s0,.8,0,.8c0,.5,0,1.1,0,1.6,0,1.1,0,2.2,0,3.2,0,2.1,0,4.3,0,6.3l-.2-.2c13.9,0,26,0,34.7.1,4.3,0,7.8,0,10.2,0,1.2,0,2.1,0,2.8,0,.3,0,.5,0,.7,0,.2,0,.3,0,.3,0,0,0,0,0-.2,0-.2,0-.4,0-.7,0-.6,0-1.6,0-2.7,0-2.4,0-5.9,0-10.2,0-8.7,0-20.9,0-34.8.1h-.2s0-.2,0-.2c0-2.1,0-4.2,0-6.3,0-1.1,0-2.2,0-3.2,0-.5,0-1.1,0-1.6v-.8s0-.4,0-.4v-.2h0v-.2h0c.5-.5.1-.2.3-.3,19.9,0,37.5,0,48.6,0h.2s0,.2,0,.2c0,4.1,0,7.3,0,9.5,0,1.1,0,1.9,0,2.5,0,.3,0,.5,0,.6,0,.1,0,.2,0,.2Z"/>
  </g>
  <rect class="cls-7" x="405.7" y="86.8" width="48.7" height="12.9"/>
  <rect class="cls-7" x="628.8" y="150.7" width="48.7" height="12.9"/>
  <g>
    <path class="cls-4" d="M193.5,28s0,0,0-.2c0-.2,0-.4,0-.7,0-.6,0-1.5,0-2.5,0-2.2,0-5.4,0-9.4l.2.2c-11.1,0-28.8,0-48.6,0,.1-.1-.3.2.2-.2h0v.4s0,.4,0,.4v.8c0,.5,0,1.1,0,1.6,0,1.1,0,2.2,0,3.2,0,2.1,0,4.3,0,6.3l-.2-.2c13.9,0,26,0,34.7.1,4.3,0,7.8,0,10.2,0,1.2,0,2.1,0,2.8,0,.3,0,.5,0,.7,0,.2,0,.3,0,.3,0,0,0,0,0-.2,0-.2,0-.4,0-.7,0-.6,0-1.6,0-2.7,0-2.4,0-5.9,0-10.2,0-8.7,0-20.9,0-34.8.1h-.2s0-.2,0-.2c0-2.1,0-4.2,0-6.3,0-1.1,0-2.2,0-3.2,0-.5,0-1.1,0-1.6v-.8s0-.4,0-.4v-.2h0v-.2h0c.5-.5.1-.2.3-.3,19.9,0,37.5,0,48.6,0h.2s0,.2,0,.2c0,4.1,0,7.3,0,9.5,0,1.1,0,1.9,0,2.5,0,.3,0,.5,0,.6,0,.1,0,.2,0,.2Z"/>
    <path class="cls-4" d="M200.1,15.1s0,0,0-.2c0-.2,0-.4,0-.7,0-.6,0-1.5,0-2.6,0-2.3,0-5.4,0-9.4l.2.2c-7.6,0-17.9,0-29.2,0-.2.2.3-.3.2-.2h0v.4s0,.4,0,.4v.8c0,.6,0,1.1,0,1.7,0,1.1,0,2.2,0,3.3,0,2.2,0,4.2,0,6.2l-.2-.2c8.4,0,15.7,0,20.9.1,2.6,0,4.6,0,6.1,0,.7,0,1.2,0,1.6,0,.4,0,.6,0,.6,0,0,0-.2,0-.5,0-.4,0-.9,0-1.6,0-1.5,0-3.5,0-6,0-5.2,0-12.6,0-21.1.1h-.2s0-.2,0-.2c0-2,0-4.1,0-6.2,0-1.1,0-2.2,0-3.3,0-.6,0-1.1,0-1.7v-.8s0-.4,0-.4v-.2h0v-.2h0c0,0,.5-.5.2-.3,11.4,0,21.7,0,29.2,0h.2s0,.2,0,.2c0,4,0,7.2,0,9.5,0,1.1,0,1.9,0,2.5,0,.6,0,.9,0,.9Z"/>
  </g>
  <g>
    <path class="cls-4" d="M590.2,34.7s0,0,0-.2c0-.2,0-.4,0-.7,0-.6,0-1.5,0-2.5,0-2.2,0-5.4,0-9.4l.2.2c-11.1,0-28.8,0-48.6,0,.1-.1-.3.2.2-.2h0v.4s0,.4,0,.4v.8c0,.5,0,1.1,0,1.6,0,1.1,0,2.2,0,3.2,0,2.1,0,4.3,0,6.3l-.2-.2c13.9,0,26,0,34.7.1,4.3,0,7.8,0,10.2,0,1.2,0,2.1,0,2.8,0,.3,0,.5,0,.7,0,.2,0,.3,0,.3,0,0,0,0,0-.2,0-.2,0-.4,0-.7,0-.6,0-1.6,0-2.7,0-2.4,0-5.9,0-10.2,0-8.7,0-20.9,0-34.8.1h-.2s0-.2,0-.2c0-2.1,0-4.2,0-6.3,0-1.1,0-2.2,0-3.2,0-.5,0-1.1,0-1.6v-.8s0-.4,0-.4v-.2h0v-.2h0c.5-.5.1-.2.3-.3,19.9,0,37.5,0,48.6,0h.2s0,.2,0,.2c0,4.1,0,7.3,0,9.5,0,1.1,0,1.9,0,2.5,0,.3,0,.5,0,.6,0,.1,0,.2,0,.2Z"/>
    <path class="cls-4" d="M596.8,21.8s0,0,0-.2c0-.2,0-.4,0-.7,0-.6,0-1.5,0-2.6,0-2.3,0-5.4,0-9.4l.2.2c-7.6,0-17.9,0-29.2,0-.2.2.3-.3.2-.2h0v.4s0,.4,0,.4v.8c0,.6,0,1.1,0,1.7,0,1.1,0,2.2,0,3.3,0,2.2,0,4.2,0,6.2l-.2-.2c8.4,0,15.7,0,20.9.1,2.6,0,4.6,0,6.1,0,.7,0,1.2,0,1.6,0,.4,0,.6,0,.6,0,0,0-.2,0-.5,0-.4,0-.9,0-1.6,0-1.5,0-3.5,0-6,0-5.2,0-12.6,0-21.1.1h-.2s0-.2,0-.2c0-2,0-4.1,0-6.2,0-1.1,0-2.2,0-3.3,0-.6,0-1.1,0-1.7v-.8s0-.4,0-.4v-.2h0v-.2h0c0,0,.5-.5.2-.3,11.4,0,21.7,0,29.2,0h.2s0,.2,0,.2c0,4,0,7.2,0,9.5,0,1.1,0,1.9,0,2.5,0,.6,0,.9,0,.9Z"/>
  </g>
  <g>
    <path class="cls-4" d="M299.9,102.3s0,0,0-.2c0-.2,0-.4,0-.7,0-.6,0-1.5,0-2.5,0-2.2,0-5.4,0-9.4l.2.2c-11.1,0-28.8,0-48.6,0,.1-.1-.3.2.2-.2h0v.4s0,.4,0,.4v.8c0,.5,0,1.1,0,1.6,0,1.1,0,2.2,0,3.2,0,2.1,0,4.3,0,6.3l-.2-.2c13.9,0,26,0,34.7.1,4.3,0,7.8,0,10.2,0,1.2,0,2.1,0,2.8,0,.3,0,.5,0,.7,0,.2,0,.3,0,.3,0,0,0,0,0-.2,0-.2,0-.4,0-.7,0-.6,0-1.6,0-2.7,0-2.4,0-5.9,0-10.2,0-8.7,0-20.9,0-34.8.1h-.2s0-.2,0-.2c0-2.1,0-4.2,0-6.3,0-1.1,0-2.2,0-3.2,0-.5,0-1.1,0-1.6v-.8s0-.4,0-.4v-.2h0v-.2h0c.5-.5.1-.2.3-.3,19.9,0,37.5,0,48.6,0h.2s0,.2,0,.2c0,4.1,0,7.3,0,9.5,0,1.1,0,1.9,0,2.5,0,.3,0,.5,0,.6,0,.1,0,.2,0,.2Z"/>
    <path class="cls-4" d="M306.5,89.4s0,0,0-.2c0-.2,0-.4,0-.7,0-.6,0-1.5,0-2.6,0-2.3,0-5.4,0-9.4l.2.2c-7.6,0-17.9,0-29.2,0-.2.2.3-.3.2-.2h0v.4s0,.4,0,.4v.8c0,.6,0,1.1,0,1.7,0,1.1,0,2.2,0,3.3,0,2.2,0,4.2,0,6.2l-.2-.2c8.4,0,15.7,0,20.9.1,2.6,0,4.6,0,6.1,0,.7,0,1.2,0,1.6,0,.4,0,.6,0,.6,0,0,0-.2,0-.5,0-.4,0-.9,0-1.6,0-1.5,0-3.5,0-6,0-5.2,0-12.6,0-21.1.1h-.2s0-.2,0-.2c0-2,0-4.1,0-6.2,0-1.1,0-2.2,0-3.3,0-.6,0-1.1,0-1.7v-.8s0-.4,0-.4v-.2h0v-.2h0c0,0,.5-.5.2-.3,11.4,0,21.7,0,29.2,0h.2s0,.2,0,.2c0,4,0,7.2,0,9.5,0,1.1,0,1.9,0,2.5,0,.6,0,.9,0,.9Z"/>
  </g>
  <g>
    <path class="cls-4" d="M49.8,262.3s0,0,0-.2c0-.2,0-.4,0-.7,0-.6,0-1.5,0-2.5,0-2.2,0-5.4,0-9.4l.2.2c-11.1,0-28.8,0-48.6,0,.1-.1-.3.2.2-.2h0v.4s0,.4,0,.4v.8c0,.5,0,1.1,0,1.6,0,1.1,0,2.2,0,3.2,0,2.1,0,4.3,0,6.3l-.2-.2c13.9,0,26,0,34.7.1,4.3,0,7.8,0,10.2,0,1.2,0,2.1,0,2.8,0,.3,0,.5,0,.7,0,.2,0,.3,0,.3,0,0,0,0,0-.2,0-.2,0-.4,0-.7,0-.6,0-1.6,0-2.7,0-2.4,0-5.9,0-10.2,0-8.7,0-20.9,0-34.8.1h-.2s0-.2,0-.2c0-2.1,0-4.2,0-6.3,0-1.1,0-2.2,0-3.2,0-.5,0-1.1,0-1.6v-.8s0-.4,0-.4v-.2h0v-.2h0c.5-.5.1-.2.3-.3,19.9,0,37.5,0,48.6,0h.2s0,.2,0,.2c0,4.1,0,7.3,0,9.5,0,1.1,0,1.9,0,2.5,0,.3,0,.5,0,.6,0,.1,0,.2,0,.2Z"/>
    <path class="cls-4" d="M56.4,249.4s0,0,0-.2c0-.2,0-.4,0-.7,0-.6,0-1.5,0-2.6,0-2.3,0-5.4,0-9.4l.2.2c-7.6,0-17.9,0-29.2,0-.2.2.3-.3.2-.2h0v.4s0,.4,0,.4v.8c0,.6,0,1.1,0,1.7,0,1.1,0,2.2,0,3.3,0,2.2,0,4.2,0,6.2l-.2-.2c8.4,0,15.7,0,20.9.1,2.6,0,4.6,0,6.1,0,.7,0,1.2,0,1.6,0,.4,0,.6,0,.6,0,0,0-.2,0-.5,0-.4,0-.9,0-1.6,0-1.5,0-3.5,0-6,0-5.2,0-12.6,0-21.1.1h-.2s0-.2,0-.2c0-2,0-4.1,0-6.2,0-1.1,0-2.2,0-3.3,0-.6,0-1.1,0-1.7v-.8s0-.4,0-.4v-.2h0v-.2h0c0,0,.5-.5.2-.3,11.4,0,21.7,0,29.2,0h.2s0,.2,0,.2c0,4,0,7.2,0,9.5,0,1.1,0,1.9,0,2.5,0,.6,0,.9,0,.9Z"/>
  </g>
  <g>
    <g>
      <path class="cls-4" d="M216.6,326.3c-4-2.5-8.5-4-13.1-4.5-2.1-.2-4.5-.2-6.2,1.1-.4.3-.7.7-.6,1.1,0,.3.3.6.6.8,5.3,4.1,13.4,4.6,19.4,1.5"/>
      <path class="cls-4" d="M216.2,325.9c-3-2.3-6-4.7-8.5-7.5-2.5-2.8-4.6-6.1-5.3-9.8-.2-1.1-.3-2.4.4-3.3,6.8,5.3,12.1,12.1,13.4,20.6"/>
      <path class="cls-4" d="M216.5,326.3c-.5-3.7-.7-7.5.2-11.1.8-3.6,2.8-7.1,5.9-9.2,1.2,2.7.7,5.9-.2,8.7-1.3,4.4-3.3,8.6-5.9,12.4"/>
      <path class="cls-4" d="M223.1,338.1c-4,.5-7.5,2.6-10.5,5.3-3,2.7-5.1,6.4-6,10.3,3.9-.2,7.3-3,9.7-6.1,2.4-3.1,4.1-6.5,6.8-9.5"/>
      <path class="cls-4" d="M224.6,340c-3.2-8-2.1-17.6,3-24.6,2.3,8.2,1.5,17.4-3,24.6"/>
      <path class="cls-4" d="M233.3,350.5c-3.7-.2-7.4.6-10.5,2.5-3.2,1.8-5.8,4.6-7.4,7.9-.2.4-.4,1-.1,1.4.3.3.8.4,1.2.4,3.5-.2,6.7-2.4,9.3-4.8,2.6-2.4,4.8-5.2,7.7-7.3"/>
      <path class="cls-4" d="M233,349.9c-1.9-6-2-12.6-.3-18.7.7-2.4,1.8-4.9,4-6.1.2,0,.4-.2.6-.1.2,0,.3.3.4.4.8,1.7,1,3.5.9,5.4,0,1.8-.5,3.6-.8,5.4-.7,3.3-1.1,6.9-2.9,9.7-.4.7-.8,1.4-1.2,2.1-.3.7-.3,1-.7,1.6"/>
      <path class="cls-4" d="M256.2,353.3c-1.7-6.5.1-14.4,4.2-19.8.3-.4.7-.8,1.2-.8.8,0,1,1.1.9,1.8-.3,6.7-2.5,13.3-6.3,18.7"/>
      <path class="cls-4" d="M258.3,354.8c7.9,2.1,17,0,23.6-4.8-3.9-2-8.5-2.5-12.8-1.6-4.3,1-8.2,2.9-10.8,6.4"/>
      <path class="cls-4" d="M260.1,350.4c4.4-7.2,13-12,21.5-12.4-1,3.5-3.8,6.1-7,7.8-3.2,1.6-6.8,2.3-10.3,3-1.4.3-3.2.6-4.1,1.6"/>
      <path class="cls-4" d="M256.7,329.3c1.2-4.1,2.4-8.3,2.7-12.6.3-4.3-.3-8.8-2.5-12.4-4.2,8-4.6,17.4-.4,25.4"/>
      <path class="cls-4" d="M270.6,322.3c4.9-8.8,14.8-15.9,24.8-16.9-3.9,9.6-14.4,17.1-24.8,16.9"/>
      <path class="cls-4" d="M267.6,324c7.2,1.1,13.4,5.7,20.2,8.5,1.4.6,3,1.1,4.6.9,1.6-.2,3.1-1.2,3.4-2.8.3-1.3-.3-2.6-1.2-3.5-.9-.9-2.1-1.5-3.3-2-7.4-3.1-15.3-3.1-23-1.3"/>
      <path class="cls-4" d="M263.4,329.1c1.6.5,2.2,1.3,3.5,2.4,4.4,3.8,9.7,6.5,15.3,7.9.6.1,1.4.2,1.6-.3.3-.5,0-1-.4-1.4-2.4-2.9-5.7-5-9.2-6.3-3.5-1.3-6.6-2.9-10.8-2.6"/>
      <path class="cls-4" d="M258.7,298.4c5.9,5.5,14.2,8.3,22.2,7.6.4,0,.8,0,1-.4.6-.6-.1-1.5-.8-2.1-6.5-5.1-14.4-7.2-22.4-5.1"/>
      <path class="cls-4" d="M264.3,296.3c7.8-5.8,18.5-7.6,27.7-4.6-3.5,3.4-8.3,5.3-13.2,5.8-4.9.5-9.7,0-14.5-1.2"/>
      <path class="cls-4" d="M262,282.3c-.6-6.5-.2-11.7-.7-18.2,0-.5-.1-1.2-.6-1.3-.7-.3-1.2.6-1.5,1.3-1.9,6-.9,13,2.8,18.1"/>
      <path class="cls-4" d="M261.6,283c4.4-2.7,7.7-6.3,10.8-10.5,2.1-2.9,3.9-6.4,3.4-10-3,0-5.8,1.6-7.8,3.9-1.9,2.3-3.1,5.1-4,8-.9,2.9-1.5,5.8-2.5,8.6"/>
      <path class="cls-4" d="M272.2,280c9.7-3.6,18.7-8.9,26.6-15.7-3.2-1.3-6.8-.5-10,.8-7.2,2.9-13.2,7.9-16.7,14.8"/>
      <path class="cls-4" d="M264.6,286.5c4.9.5,9.9.9,14.7,0,4.8-.8,9.3-2.7,13.8-4.6.4-.2.8-.3.9-.7.2-.4,0-.9-.3-1.2-.3-.3-.8-.4-1.2-.6-4.9-1.4-10.1-.7-14.9.9-4.8,1.6-8.7,3.5-13.1,6.1"/>
      <path class="cls-4" d="M236.6,298.6c-3.3-6.8-3.1-14.6-.2-21.6,2,3.1,2.3,7,1.9,10.7-.4,3.7-1.5,7.5-1.6,11.2"/>
      <path class="cls-4" d="M223.2,291.9c-8.3-.2-16.7,3.4-22.4,9.5,4.2.7,8.5-.4,12.2-2.3,3.8-1.9,7.2-4.4,10.5-7"/>
      <path class="cls-4" d="M214.2,288.9c-4.1-.3-8-.8-11.9.4-3.9,1.2-7.5,3.9-9.1,7.7,3.8.4,7.7-.5,11.2-2.1,3.5-1.6,6.7-3.8,9.8-6"/>
      <path class="cls-4" d="M227.5,289c-3.7-2.4-7.4-4.9-11.7-5.9-4.3-1-9.2-.3-12.2,3,3.5,2,7.7,2.3,11.7,2.3,4,0,8.9,0,12.7,1.3"/>
      <path class="cls-4" d="M227.5,289.2c-6.3-6.2-8.7-17.3-6.1-25.7,4.9,7.5,7.1,16.8,6.1,25.7"/>
      <path class="cls-4" d="M244.8,271.7c1.2-2.8,2-5.6,3.1-8.4,1.1-2.8,2.4-5.6,4.4-7.8,2-2.2,4.8-3.9,7.8-4-1.9,8.5-7.5,16.1-15.1,20.3"/>
      <path class="cls-4" d="M241.7,275.4c-2-2.7-4.2-6.4-6.9-8.4-2.7-2-6.1-3.2-9.4-2.5,3.3,5.9,9.5,10.1,16.3,10.8"/>
      <path class="cls-4" d="M242.3,272c-1.3-3.3-2.6-6.6-3.1-10-.5-3.5-.2-7.2,1.6-10.2,3.4,6.5,4.6,13.5,1.7,20.3"/>
      <path class="cls-4" d="M244.8,251.7c2-6.5,7.9-11.2,14.3-13.4.8-.3,1.7-.5,2.5-.4.8.1,1.7.7,1.8,1.5.2,1.1-.7,2.1-1.5,2.8-5,4.3-10.8,7.5-17.1,9.4"/>
      <path class="cls-4" d="M244.9,246.4c.2-4.2.5-8.4,1.9-12.3,1.4-3.9,4-7.7,7.8-9.4.6,4.2-1.2,8.4-3.4,12-2.2,3.6-4.9,7-6.3,11.1"/>
      <path class="cls-4" d="M244.8,249.3c-1.6-4.7-1.8-10.7-4.6-14.8-2-2.9-5.1-4.8-6.8-7.9-1.1,2.8-.8,6.1.4,8.9,1.2,2.8,3.1,5.2,5.2,7.5,2.1,2.2,3.9,3.9,5.8,6.3"/>
      <path class="cls-4" d="M244.8,388c-.1,0-.2-31.4-.2-70.2,0-38.8,0-70.2.2-70.2s.2,31.4.2,70.2c0,38.7,0,70.2-.2,70.2Z"/>
      <path class="cls-4" d="M272.3,293.9s-.4.2-1.2.4c-.8.3-1.9.7-3.3,1.1-2.7.9-6.5,2.3-10.6,4-4,1.7-7.9,3.1-10,5-1.1.9-1.7,1.9-2,2.7-.3.7-.4,1.2-.4,1.2,0,0,0-.1,0-.3,0-.2,0-.5.2-.9.3-.8.9-1.8,2-2.8,1.1-1,2.6-1.9,4.4-2.7,1.7-.8,3.7-1.7,5.7-2.5,4.1-1.7,7.9-3,10.7-3.8,1.4-.4,2.5-.8,3.3-1,.8-.2,1.2-.3,1.2-.3Z"/>
      <path class="cls-4" d="M281.3,271.8s-.1.1-.3.4c-.3.3-.6.6-1,.9-.9.9-2.2,2-3.8,3.4-3.2,2.9-7.7,6.8-12.5,11.2-4.9,4.4-9.1,8.5-12,11.6-1.5,1.6-2.6,2.9-3.4,3.8-.4.4-.7.8-.9,1-.2.2-.3.4-.3.3,0,0,0-.1.3-.4.2-.3.5-.6.8-1.1.7-.9,1.9-2.3,3.3-3.9,2.9-3.2,7.1-7.4,12-11.8,4.9-4.3,9.4-8.2,12.6-11.1,1.6-1.4,2.9-2.5,3.9-3.3.4-.4.8-.6,1.1-.9.2-.2.4-.3.4-.3Z"/>
      <path class="cls-4" d="M258.4,292.1c-.1,0,.9-2.4,1.9-5.4,1-3,1.5-5.5,1.6-5.5.1,0-.2,2.6-1.2,5.6-.5,1.5-1.1,2.8-1.5,3.8-.4.9-.8,1.5-.8,1.5Z"/>
      <path class="cls-4" d="M244.9,311.1s-.3-.3-.8-.9c-.5-.7-1.2-1.5-1.9-2.5-1.6-2.1-3.9-5-6.4-8.2-2.5-3.2-4.8-6-6.5-8.1-.8-1-1.4-1.8-2-2.4-.5-.6-.7-.9-.7-.9,0,0,.3.3.8.8.5.5,1.2,1.3,2.1,2.3,1.7,2,4.1,4.8,6.6,8,2.5,3.2,4.7,6.1,6.3,8.2.8,1.1,1.4,1.9,1.8,2.6.4.6.6,1,.6,1Z"/>
      <path class="cls-4" d="M238.9,303.4c0,0-1.7-1.8-2.5-4.7-.6-2-.6-3.9-.6-4.8h.2c0,.4-.2.6-.2.6,0,0,0-.2,0-.6h.2c0,.9.2,2.7.8,4.6.8,2.8,2.2,4.8,2.1,4.9Z"/>
      <path class="cls-4" d="M231.1,293.6c0,0-.6-.6-1.8-1-1.2-.5-2.9-.6-4.9-.4-1.9.1-3.7.5-4.9.8-1.2.3-2,.5-2,.5,0,0,.7-.4,1.9-.8,1.2-.4,3-.8,5-.9,2-.2,3.8,0,5,.5,1.2.5,1.7,1.3,1.6,1.3Z"/>
      <path class="cls-4" d="M229.2,291.2c0,0-1-.4-2.7-1-1.7-.6-4-1.2-6.7-1.4-2.7-.2-5.1,0-6.9.3-1.7.3-2.8.6-2.8.6,0,0,.2-.1.7-.3.5-.2,1.2-.4,2-.6,1.7-.4,4.2-.7,7-.5,2.7.2,5.1.9,6.8,1.5.8.3,1.5.6,1.9.9.4.2.7.4.7.4Z"/>
      <path class="cls-4" d="M244.8,281.2c-.1,0-1-3-2-6.8-1-3.8-1.6-6.9-1.5-6.9s1,3,2,6.8c1,3.8,1.6,6.9,1.5,6.9Z"/>
      <path class="cls-4" d="M244.9,281.2c-.1,0-.7-2-2.2-4.1-1.4-2.1-3.3-3.2-3.2-3.3,0,0,.5.1,1.2.6.7.5,1.6,1.3,2.3,2.4,1.5,2.2,1.9,4.3,1.8,4.4Z"/>
      <path class="cls-4" d="M244.8,371.2s-.1-.8-.5-2.1c-.3-1.3-1-3.2-2.1-5.4-2.2-4.4-6.1-10.1-11.1-15.7-2.5-2.8-4.9-5.5-6.9-8.1-2.1-2.6-3.7-5-5-7.2-1.2-2.2-2-4-2.5-5.3-.2-.7-.4-1.2-.5-1.5,0-.4-.1-.5-.1-.5,0,0,.3.7.8,2,.5,1.3,1.4,3.1,2.6,5.2,1.3,2.1,3,4.5,5,7.1,2.1,2.5,4.5,5.2,7,8.1,5,5.6,9,11.3,11.1,15.9,1.1,2.3,1.7,4.2,2,5.5.1.7.2,1.2.3,1.6,0,.4,0,.6,0,.6Z"/>
      <path class="cls-4" d="M269.7,343.2s-.5.3-1.3.7c-.8.5-2,1.2-3.4,2.2-1.4,1-2.9,2.4-4.4,4-1.6,1.6-3.2,3.5-4.8,5.6-3.3,4.1-6.3,7.7-8.2,10.6-.9,1.4-1.6,2.6-2,3.5-.4.8-.7,1.3-.7,1.3,0,0,0-.1.1-.4,0-.2.2-.6.4-1,.4-.9,1-2.1,1.9-3.6,1.8-3,4.8-6.6,8.1-10.7,1.6-2,3.3-4,4.8-5.6,1.6-1.6,3.1-3,4.5-4,1.4-1,2.6-1.7,3.5-2.1.4-.2.8-.3,1-.4.2,0,.4-.1.4-.1Z"/>
      <path class="cls-4" d="M270.1,352.3c0,0-1,.2-2.7.4-1.7.2-4,.5-6.5,1.3-2.5.8-4.5,2-5.8,3.1-1.3,1-2,1.9-2,1.8,0,0,.1-.3.4-.6.3-.4.8-.9,1.4-1.5,1.3-1.1,3.4-2.4,5.9-3.2,2.5-.8,4.9-1,6.6-1.2,1.7-.1,2.8-.1,2.8,0Z"/>
      <path class="cls-4" d="M253.8,357.9c-.1,0,1.1-2,2.1-4.5.9-2.6,1.1-4.8,1.3-4.8,0,0,0,.6,0,1.5-.1.9-.3,2.2-.8,3.5-.5,1.3-1.1,2.4-1.6,3.2-.5.8-.8,1.2-.9,1.2Z"/>
      <path class="cls-4" d="M277.7,318.8s-.1,0-.4.2c-.3.2-.8.3-1.3.6-.6.2-1.3.6-2,1-.8.4-1.7.8-2.6,1.4-.5.3-1,.6-1.5.9-.5.3-1,.7-1.6,1-1.1.7-2.2,1.5-3.4,2.3-2.3,1.8-4.7,3.8-7.1,6.2-2.3,2.4-4.3,4.9-6,7.3-.8,1.2-1.6,2.3-2.2,3.5-.3.6-.7,1.1-.9,1.6-.3.5-.5,1-.8,1.5-.5,1-.9,1.9-1.3,2.7-.4.8-.7,1.5-.9,2.1-.2.5-.4,1-.5,1.3-.1.3-.2.5-.2.4,0,0,0-.2.1-.5.1-.4.3-.8.5-1.3.2-.6.5-1.3.8-2.1.4-.8.7-1.7,1.2-2.7.2-.5.5-1,.8-1.6.3-.5.6-1.1.9-1.6.6-1.1,1.4-2.3,2.2-3.5,1.7-2.4,3.7-4.9,6-7.4,2.4-2.4,4.8-4.5,7.2-6.3,1.2-.8,2.3-1.7,3.4-2.3.6-.3,1.1-.7,1.6-1,.5-.3,1-.6,1.5-.8,1-.6,1.9-.9,2.7-1.3.8-.4,1.5-.7,2.1-.9.5-.2,1-.4,1.3-.5.3-.1.5-.2.5-.1Z"/>
      <path class="cls-4" d="M258.1,332s.2-.8,1.1-1.6c.9-.8,2.5-1.6,4.3-1.7,1.9,0,3.5.5,4.6.9,1.1.4,1.8.8,1.7.8,0,0-.7-.2-1.8-.5-1.1-.3-2.7-.8-4.5-.7-1.8,0-3.3.7-4.2,1.5-.9.7-1.2,1.4-1.3,1.4Z"/>
      <path class="cls-4" d="M255.1,335c-.1,0,1-1.7,1.2-4,.3-2.3-.4-4.2-.3-4.2,0,0,.3.4.5,1.2.2.8.4,1.9.2,3.1-.1,1.2-.5,2.3-.9,2.9-.4.7-.7,1.1-.8,1Z"/>
    </g>
    <path class="cls-4" d="M223.1,375.7c.7,12,4.3,24.2,9.9,36.6h24.2c5.3-12.2,8.7-24.4,9.3-36.6h-43.3Z"/>
    <path class="cls-11" d="M262.6,395.2c0,.1-8,.2-17.8.2s-17.8-.1-17.8-.2,8-.2,17.8-.2,17.8.1,17.8.2Z"/>
    <path class="cls-11" d="M262,399.5c0,.1-7.5.2-16.7.2s-16.7-.1-16.7-.2,7.5-.2,16.7-.2,16.7.1,16.7.2Z"/>
    <path class="cls-11" d="M233.4,383.6c.1,0,.2,2.5.2,5.6s-.1,5.6-.2,5.6-.2-2.5-.2-5.6.1-5.6.2-5.6Z"/>
    <path class="cls-11" d="M246.4,383.6c.1,0,.2,2.6.2,5.8s-.1,5.8-.2,5.8-.2-2.6-.2-5.8.1-5.8.2-5.8Z"/>
    <path class="cls-11" d="M258.5,383.5c.1,0,.2,2.6.2,5.9s-.1,5.9-.2,5.9-.2-2.6-.2-5.9.1-5.9.2-5.9Z"/>
    <path class="cls-11" d="M265.7,383.6c0,.1-9.3.2-20.9.2s-20.9-.1-20.9-.2,9.3-.2,20.9-.2,20.9.1,20.9.2Z"/>
  </g>
  <path class="cls-5" d="M668.8,412c0,.1-147.6.3-329.5.3s-329.6-.1-329.6-.3,147.5-.3,329.6-.3,329.5.1,329.5.3Z"/>
  <g>
    <path class="cls-3" d="M658.1,251.6c-8.4,4.3-14.8,11.8-19.4,20-4.6,8.2-7.6,17.2-10.5,26.2l-2.6,46.2c9.7-16.6,17.5-36,19.7-55.1-2.2-.2-4.3-.4-6.5-.6,4.3-.7,8-3.8,10.3-7.5,2.3-3.7,3.5-8,4.7-12.3-2.6.4-5.3.8-7.9,1.2,6.2-4.1,10.7-10.7,12.2-18Z"/>
    <g class="cls-13">
      <path class="cls-6" d="M658.1,251.6c-8.4,4.3-14.8,11.8-19.4,20-4.6,8.2-7.6,17.2-10.5,26.2l-2.6,46.2c9.7-16.6,17.5-36,19.7-55.1-2.2-.2-4.3-.4-6.5-.6,4.3-.7,8-3.8,10.3-7.5,2.3-3.7,3.5-8,4.7-12.3-2.6.4-5.3.8-7.9,1.2,6.2-4.1,10.7-10.7,12.2-18Z"/>
    </g>
    <path class="cls-3" d="M624.1,354.8s-21.1-25.3-20.9-49.4h8.5s-9.3-6.1-8.5-9.5c.7-3.4,1-16.3,1-16.3l7.8,2s-5.9-2.9-6.6-7.6,1.7-26.1,1.7-26.1c0,0,9.5,10,12.4,20.2,2.9,10.2,10.6,22.2,8.4,53.4s-3.8,33.3-3.8,33.3Z"/>
    <path class="cls-3" d="M634.8,357.2s22.9-15.2,28-34.7l-6.9-1.9s8.8-2.9,8.9-5.8c.2-2.9,2.8-13.3,2.8-13.3h-6.7c0-.1,5.3-1.2,6.9-4.8,1.6-3.6,4.3-21.4,4.3-21.4,0,0-9.8,6-14.4,13.6-4.6,7.6-13.4,15.5-18.4,41.1-5,25.6-4.6,27.2-4.6,27.2Z"/>
    <path class="cls-5" d="M612.9,269.9s0,0,0,.3c0,.2.1.5.2.8.2.7.4,1.7.7,3,.6,2.6,1.4,6.4,2.3,11.1.9,4.7,1.9,10.3,2.9,16.5,1,6.2,1.9,13.1,2.8,20.4.8,7.2,1.5,14.2,2,20.5.5,6.3.8,12,1,16.7.2,4.8.3,8.6.3,11.3,0,1.3,0,2.3,0,3.1,0,.3,0,.6,0,.8,0,.2,0,.3,0,.3,0,0,0,0,0-.3,0-.2,0-.5,0-.8,0-.7,0-1.8-.1-3.1,0-2.7-.2-6.5-.5-11.3-.2-4.8-.6-10.4-1.1-16.7-.5-6.3-1.2-13.2-2-20.4-.8-7.2-1.8-14.1-2.7-20.3-1-6.2-1.9-11.8-2.7-16.5-.8-4.7-1.6-8.5-2.1-11.1-.2-1.3-.4-2.3-.6-3,0-.3-.1-.6-.1-.8,0-.2,0-.3,0-.3Z"/>
    <path class="cls-3" d="M621.2,370.3s-19.3-21.9-25.3-35.2l4.5-1.9c-3.3.5-6.7-.9-9.2-3-2.5-2.1-4.4-5-6.3-7.7l6-1c-5.4-1.5-10.2-5.2-13-10.1,7,1.2,13.4,5,18.7,9.9,4.3,3.9,7.9,8.5,11.3,13.1,1.7,2.3,3.2,4.7,4.4,7.2,3.2,6.7,9,20.8,9,28.8Z"/>
    <path class="cls-5" d="M663.1,288.1s0,0,0,.2c0,.2-.2.4-.3.6-.3.6-.7,1.4-1.2,2.4-1,2.1-2.5,5.2-4.3,9-3.5,7.6-8.2,18.2-12.8,30.2-4.6,11.9-8.3,23-10.8,31-1.2,4-2.2,7.3-2.9,9.5-.3,1.1-.6,2-.8,2.6,0,.3-.2.5-.2.7,0,.2,0,.2,0,.2,0,0,0,0,0-.2,0-.2,0-.4.2-.7.2-.6.4-1.5.7-2.6.6-2.3,1.5-5.5,2.7-9.6,2.4-8,6-19.1,10.7-31,4.6-12,9.4-22.6,13-30.1,1.8-3.8,3.3-6.8,4.4-8.9.5-1,.9-1.8,1.3-2.4.1-.2.2-.5.3-.6,0-.1.1-.2.1-.2Z"/>
    <path class="cls-5" d="M622.8,379.7s-.1-.6-.3-1.6c-.2-1-.4-2.5-.8-4.3-.7-3.6-2-8.5-3.9-13.7-2-5.2-4.3-9.7-6.1-12.9-.9-1.6-1.7-2.8-2.2-3.7-.5-.9-.8-1.4-.8-1.4,0,0,.4.4,1,1.3.6.8,1.4,2.1,2.4,3.6,1.9,3.1,4.3,7.6,6.3,12.9,2,5.3,3.2,10.2,3.8,13.8.3,1.8.5,3.3.6,4.3.1,1,.1,1.6.1,1.6Z"/>
    <rect class="cls-10" x="606" y="374.5" width="42.3" height="8.6"/>
    <polygon class="cls-10" points="610.1 383.1 614.6 412.2 640.2 412.2 644.5 383.1 610.1 383.1"/>
    <path class="cls-5" d="M645.7,383.1c0,.1-8,.3-17.9.3s-17.9-.1-17.9-.3,8-.3,17.9-.3,17.9.1,17.9.3Z"/>
  </g>
  <g>
    <g>
      <path class="cls-5" d="M53.4,386.3s-3.8-26-3.5-41.1c.3-15.1,0-32.1,0-32.1h1.7s-1.2,30,.1,48.1c1.3,18.1,4.7,25.1,4.7,25.1h-3"/>
      <path class="cls-3" d="M64.6,283.9c-.3-.9-.8-1.8-1.6-2.3-1.1-.7-2.6-.4-3.8,0-5.3,1.9-9.9,11.7-12,16.8l7,23.5c12.6-11.7,14.8-27,10.4-38Z"/>
      <path class="cls-5" d="M62.6,282.6s0,.1-.1.3c0,.2-.2.5-.3.9-.3.7-.7,1.8-1.2,3.2-1,2.7-2.3,6.4-3.5,10.6-1.2,4.2-2,8.1-2.5,10.9-.2,1.4-.4,2.6-.6,3.3,0,.4-.1.7-.1.9,0,.2,0,.3,0,.3s0-.1,0-.3c0-.2,0-.5,0-.9,0-.8.2-1.9.5-3.4.4-2.8,1.2-6.7,2.4-10.9,1.2-4.2,2.5-8,3.6-10.6.5-1.3,1-2.4,1.3-3.1.2-.3.3-.6.4-.8,0-.2.1-.3.2-.3Z"/>
      <path class="cls-3" d="M51.1,327.6c-6.5-3.6-10.4-10.4-10.8-17.9-.3-5.2,1.4-10.3,3.2-15.2.2-.4.3-.9.7-1.1.5-.3,1.2,0,1.8.3,4.8,2.7,7.6,7.9,9.2,13.1,1,3.5,1.5,7.2,1.1,10.8-.5,3.6-2.5,7.5-5.2,10"/>
      <path class="cls-5" d="M51.1,327.6s0-.1,0-.3c0-.2,0-.5,0-.9,0-.8,0-1.9,0-3.3-.1-2.8-.5-6.7-1.2-10.9-.7-4.2-1.6-8-2.3-10.7-.3-1.3-.6-2.4-.8-3.2,0-.4-.1-.6-.2-.9,0-.2,0-.3,0-.3,0,0,0,0,.1.3,0,.2.2.5.3.9.2.8.5,1.8.9,3.2.7,2.7,1.6,6.5,2.3,10.7.7,4.2,1.1,8.1,1.1,10.9,0,1.4,0,2.5,0,3.3,0,.4,0,.7,0,.9,0,.2,0,.3,0,.3Z"/>
      <g class="cls-13">
        <path class="cls-6" d="M51.1,327.6c-6.5-3.6-10.4-10.4-10.8-17.9-.3-5.2,1.4-10.3,3.2-15.2.2-.4.3-.9.7-1.1.5-.3,1.2,0,1.8.3,4.8,2.7,7.6,7.9,9.2,13.1,1,3.5,1.5,7.2,1.1,10.8-.5,3.6-2.5,7.5-5.2,10"/>
      </g>
      <path class="cls-3" d="M58.5,367.3c6.4,1.4,11.7,6,18,8.2,4.1,1.5,8.8,2,12,4.9-.8-2-2.7-3.3-4.5-4.4-5.1-3.2-10.6-5.8-16.3-7.8-2.9-1-6.1-1.9-9.1-1"/>
      <path class="cls-3" d="M49.2,373.1c-8.1-.1-16.6-7-24.6-7.4,8.4-2.7,20.4-.5,24.6,7.4"/>
      <path class="cls-3" d="M52.3,353.7c4.1-1.5,8.6-1.5,12.9-.9,4.3.7,8.5,2,12.6,3.4-.4-2.8-2.7-4.9-4.8-6.8-1.6-1.4-3.2-2.8-5.1-3.9s-3.9-1.8-6.1-1.7c-2.6.1-5,1.4-6.7,3.4-1.7,1.9-2.6,3.9-2.9,6.4"/>
      <path class="cls-3" d="M35.8,344.8c-5.1-4.3-12.8-3.9-19.4-3.8,10.3,4.9,21.3,11.6,30.1,18.8.3-4.7-4.3-9.6-10.7-15Z"/>
      <g class="cls-13">
        <path class="cls-6" d="M35.8,344.8c-5.1-4.3-12.8-3.9-19.4-3.8,10.3,4.9,21.3,11.6,30.1,18.8.3-4.7-4.3-9.6-10.7-15Z"/>
      </g>
      <path class="cls-3" d="M54.6,338.8c2.6-1.7,5.1-3.3,7.8-4.5,2.7-1.2,5.2-3.1,7.7-4.5,3.3-1.8,6.2-4.3,9.3-6.6,3.1-2.2,6.4-4.3,10.2-4.9-3.1-.6-6.3-.3-9.3.5-3,.8-5.9,2.1-8.7,3.4-4,1.8-8,3.6-11.2,6.5-3.2,2.9-6.2,5.8-5.8,10.1"/>
      <path class="cls-5" d="M76.3,373.1s0,0-.3-.1c-.2,0-.4-.2-.7-.4-.6-.3-1.5-.8-2.6-1.4-.5-.3-1.1-.6-1.8-.9-.6-.3-1.3-.6-2.1-1-1.5-.6-3.2-1.3-5-1.7-1.8-.4-3.6-.5-5.2-.1-.8.2-1.5.4-2.2.7-.7.3-1.3.6-1.8.9-1,.7-1.8,1.3-2.2,1.8-.5.5-.7.8-.7.8,0,0,0,0,.1-.2.1-.2.3-.4.5-.6.4-.5,1.2-1.2,2.2-1.9.5-.3,1.1-.7,1.8-1,.7-.3,1.4-.5,2.2-.7,1.6-.4,3.5-.3,5.3.1,1.8.4,3.5,1.1,5,1.8.7.3,1.4.7,2.1,1,.7.3,1.3.6,1.8.9,1.1.6,1.9,1.1,2.5,1.4.3.2.5.3.7.4.2,0,.2.2.2.2Z"/>
      <path class="cls-5" d="M43.1,369.1s.2,0,.5.1c.3.1.8.3,1.3.6,1.1.5,2.5,1.4,3.9,2.7,1.3,1.3,2.3,2.7,2.9,3.7.3.5.5,1,.6,1.3.1.3.2.5.2.5,0,0-.3-.7-1-1.7-.6-1-1.6-2.4-2.9-3.6-1.3-1.3-2.7-2.2-3.7-2.8-1-.6-1.7-.9-1.7-.9Z"/>
      <path class="cls-5" d="M25.3,344.4s.1,0,.3.1c.2,0,.6.2,1,.3.4.2.9.3,1.5.6.6.2,1.2.5,2,.9,2.9,1.3,6.8,3.5,10.5,6.7,1.8,1.6,3.5,3.2,4.9,4.8,1.4,1.6,2.6,3.1,3.5,4.4.9,1.3,1.6,2.4,2.1,3.1.2.4.4.6.6.9.1.2.2.3.2.3,0,0,0,0-.2-.3-.1-.2-.3-.5-.6-.8-.5-.7-1.2-1.8-2.2-3.1-.9-1.3-2.1-2.8-3.5-4.3-1.4-1.6-3.1-3.2-4.9-4.8-3.7-3.1-7.5-5.4-10.4-6.7-.7-.3-1.4-.7-1.9-.9-.6-.2-1.1-.4-1.5-.6-.4-.2-.7-.3-.9-.4-.2,0-.3-.1-.3-.2Z"/>
      <path class="cls-5" d="M64.4,349.2s-.2,0-.6,0c-.2,0-.5,0-.7-.1-.3,0-.6,0-1,0-1.5-.1-3.6,0-5.5,1.1-1,.5-1.8,1.2-2.5,1.9-.7.7-1.2,1.4-1.6,2-.8,1.2-1.1,2.1-1.1,2.1,0,0,0-.2.2-.6.1-.4.4-1,.8-1.6.4-.6.9-1.4,1.6-2.1.7-.7,1.5-1.4,2.6-1.9,2-1.1,4.2-1.2,5.7-1,.4,0,.7,0,1,.1.3,0,.5.1.7.2.4.1.6.2.6.2Z"/>
      <path class="cls-5" d="M72.5,324.1s-.1,0-.3.2c-.2.1-.5.3-.9.5-.8.4-1.9,1-3.3,1.8-1.4.8-3,1.8-4.7,3-1.7,1.2-3.5,2.6-5.2,4.4-.8.9-1.6,1.8-2.1,2.8-.5,1-1,2-1.5,2.9-.9,1.9-1.7,3.6-2.2,5.1-.5,1.5-.9,2.7-1.1,3.6-.2.9-.3,1.3-.3,1.3,0,0,0-.1,0-.4,0-.2,0-.6.2-1,.2-.9.5-2.1,1-3.6.5-1.5,1.3-3.3,2.2-5.1.5-.9,1-1.9,1.5-2.9.6-1,1.3-2,2.2-2.8,1.7-1.7,3.6-3.2,5.3-4.4,1.7-1.2,3.3-2.2,4.7-3,1.4-.8,2.5-1.4,3.3-1.8.4-.2.7-.3.9-.4.2,0,.3-.1.3-.1Z"/>
      <path class="cls-5" d="M49.9,348.5s0-.2-.2-.7c0-.5-.2-1.1-.4-1.9-.3-1.6-.8-3.7-1.5-6.1-.7-2.3-1.6-4.3-2.3-5.8-.3-.7-.6-1.3-.8-1.7-.2-.4-.3-.6-.3-.6,0,0,.1.2.4.6.2.4.5,1,.9,1.7.7,1.4,1.6,3.5,2.4,5.8.8,2.3,1.2,4.5,1.5,6.1.1.8.2,1.4.3,1.9,0,.4,0,.7,0,.7Z"/>
      <path class="cls-3" d="M49.3,330.1c-.2-3-1.2-6-2.6-8.7-3.9-7.4-11.3-12.9-19.5-14.5,6,9,12,17.9,18,26.9l2.3,4.8c1.6-2.6,1.9-5.4,1.7-8.4Z"/>
    </g>
    <g>
      <rect class="cls-10" x="33.3" y="383.1" width="41.9" height="7.4"/>
      <polygon class="cls-10" points="36.4 389.1 40 412.1 67.8 412.1 72.1 389.1 36.4 389.1"/>
      <path class="cls-5" d="M75.2,390.5c0,0-9.5.1-21.1.1s-21.1,0-21.1-.1,9.5-.1,21.1-.1,21.1,0,21.1.1Z"/>
    </g>
  </g>
  <g>
    <g>
      <path class="cls-1" d="M583.6,219.5s-7.1-.2-11.1,3.9l5.7,10.3,10.9-2.2,1-3.5,1.8-6.6-8.3-2Z"/>
      <path class="cls-3" d="M511.6,210.5s3.5,2.2,4.3,4.6c.9,2.4,20.7,16.5,20.7,16.5l2.7-.7,31.9-9.8,8,14.4-39.5,14.8c-1.2.2-29.2-8.9-29.2-8.9l1.1-30.9Z"/>
    </g>
    <g>
      <path class="cls-10" d="M587.4,243.6l-24.3-7.7-10,31.3-33.7-10.7,10-31.3-80.3-25.6,7.4-23.2,100.5-72.2,36.2,11.5-93.8,68.9,40,12.8,8.9-27.9,32.6,10.4-8.9,27.9,24.3,7.7-9,28.1Z"/>
      <g class="cls-13">
        <path class="cls-6" d="M587.4,243.6l-24.3-7.7-10,31.3-33.7-10.7,10-31.3-80.3-25.6,7.4-23.2,100.5-72.2,36.2,11.5-93.8,68.9,40,12.8,8.9-27.9,32.6,10.4-8.9,27.9,24.3,7.7-9,28.1Z"/>
      </g>
      <path class="cls-10" d="M578.2,240.8l-24.3-7.7-10,31.3-33.7-10.7,10-31.3-80.3-25.6,7.4-23.2,100.5-72.2,36.2,11.5-93.8,68.9,40,12.8,8.9-27.9,32.6,10.4-8.9,27.9,24.3,7.7-9,28.1Z"/>
    </g>
    <g class="cls-13">
      <path class="cls-6" d="M515.1,220.7l-.3-9.8.8-4.8s9.3.3,11.2-3.1c2-3.4,3.6-8.6,3.6-8.6l-11.5-2.7-8.4,13.2-2.5,6.5,4,8.4,3.1,1Z"/>
    </g>
    <g>
      <g>
        <path class="cls-5" d="M499.8,179.2c.2-3.9.4-7.8,1.3-11.6.9-3.8,2.4-7.5,5-10.4.4-.4,3.4-3.3,3.9-3,.4.2-1.9,3-1.8,3.4.6,4-.3,8.1-2.1,11.7s-3.8,6.7-6.3,9.9"/>
        <path class="cls-1" d="M512.4,207.2c1-2.6,1.8-4.6,1.8-4.6,0,0,9.1,2.5,13.1-6,1.9-4.1,5.1-12.9,7.9-20.8,3-8.6-1-18-9.3-21.8l-.8-.4c-9.1-3.5-17.2,2.4-20.4,11.6l-12.2,31.9,3.3,9.7c2.7,7.8,13.6,8,16.6.3h0Z"/>
        <path class="cls-8" d="M514.3,202.6s-5.5-2.1-9.7-8.3c0,0,0,7.4,8.8,10.5l.9-2.2Z"/>
        <path class="cls-5" d="M527,181.9c-.3.7-1,1-1.7.7-.7-.3-1-1-.8-1.7.3-.7,1-1,1.7-.7.7.3,1,1,.8,1.7Z"/>
        <path class="cls-5" d="M531.9,178.5c-.2,0-.8-1-2.2-1.6-1.3-.6-2.6-.4-2.6-.6,0-.1.2-.3.8-.4.5-.1,1.4,0,2.2.3.8.4,1.4,1,1.6,1.5.3.5.3.8.2.9Z"/>
        <path class="cls-5" d="M515.9,177.4c-.3.7-1,1-1.7.7-.7-.3-1-1-.8-1.7.3-.7,1-1,1.7-.7.7.3,1,1,.8,1.7Z"/>
        <path class="cls-5" d="M519.4,173.5c-.2,0-.8-1-2.2-1.6-1.3-.6-2.6-.4-2.6-.6,0-.1.2-.3.8-.4.5-.1,1.4-.1,2.2.3.8.4,1.4,1,1.6,1.5.3.5.3.8.2.9Z"/>
        <path class="cls-5" d="M519,185.4c0,0,.9.1,2.3.6.4.1.7.2.9,0,.2-.2.2-.6.2-1.1,0-1,0-2,.2-3,.2-4.3.6-7.7.8-7.7.2,0,.1,3.5-.1,7.7,0,1-.1,2-.2,3,0,.4,0,1-.4,1.4-.2.2-.5.3-.8.2-.2,0-.4-.1-.6-.2-1.4-.5-2.2-.9-2.2-1Z"/>
        <path class="cls-5" d="M521.3,169c-.3.2-1.4-.7-2.9-1.5-1.5-.8-2.9-1.1-2.9-1.6,0-.2.4-.4,1.1-.4.7,0,1.6.2,2.5.6.9.5,1.6,1.1,2,1.7.4.6.5,1,.3,1.1Z"/>
        <path class="cls-5" d="M533.5,173.7c-.4.2-1.1-.5-2.2-1-1.1-.5-2.1-.7-2.2-1.1,0-.2.3-.4.8-.5.5-.1,1.3,0,2,.3.7.4,1.3.9,1.5,1.4.2.5.2.8,0,.9Z"/>
        <path class="cls-1" d="M502.6,171.8c-.1-.1-5.1-4.4-7.5,1.6-2.4,5.9,4,7.1,4.1,7,0-.2,3.4-8.5,3.4-8.5Z"/>
        <path class="cls-8" d="M498.3,177.4s-.1,0-.3,0c-.2,0-.5,0-.8-.3-.5-.5-.7-1.7-.2-2.8.2-.5.5-1,.9-1.4.4-.4.8-.5,1.1-.5.3,0,.5.3.5.5,0,.2,0,.3,0,.3,0,0,.2,0,.2-.3,0-.1,0-.3,0-.5,0-.2-.3-.3-.5-.4-.5-.2-1.1,0-1.5.5-.4.4-.8.9-1,1.5-.5,1.2-.3,2.6.5,3.2.4.3.8.3,1,.2.2,0,.3-.2.3-.2Z"/>
        <path class="cls-5" d="M535.4,164.3c1.2-.1-.5-4.4-2.4-6.4-2.9-3.1-8-6.2-11.7-6.6-4.4-.5-8.5.2-11.9,3-3.4,2.8-5.9,6.7-7.4,10.9-.5,1.3-.9,2.6-.6,4,.3,1.6,1.6,3.1.8,4.9-.3.7-.4,1.4-.1,2.1.6,1.6,2.4,1,3.4.2,2.2-1.8,3.5-4.5,4.7-7.2.8-1.9,1.7-3.8,1.9-5.8.1-1.1,0-2.2.2-3.3.2-1.1.7-2.2,1.6-2.8.2,0,.4-.2.7-.3,2.3-.8,4.8-.3,6.6,1.3,2.9,2.5,7.9,6.6,9.8,6,2.8-.8,3.7-1.6,3.7-1.6l.7,1.7Z"/>
      </g>
      <path class="cls-5" d="M519.1,190.1c0,.1-.3.2-.9.1-.5,0-1.3-.4-1.9-.9-.6-.6-1-1.3-1.1-1.8-.1-.5,0-.9,0-.9.2,0,.6,1.1,1.6,2.1,1,1,2.2,1.2,2.2,1.5Z"/>
    </g>
    <path class="cls-8" d="M521.9,138.7c.1,0-1.5,2.9-3.7,6.2-2.2,3.4-4,6-4.1,5.9-.1,0,1.5-2.9,3.7-6.2,2.2-3.4,4-6,4.1-5.9Z"/>
    <g>
      <path class="cls-5" d="M496,323.1l18.6,17.7s-9,60.3-7.4,60.4c1.6.1,22.2,1.6,22.2,1.6,0,0,13.4-69.8,12.4-73.9s-33.5-36.3-33.5-36.3l-.4-5.5-9.2-1.2-2.7,37.3Z"/>
      <path class="cls-5" d="M461,298.9c1.8,4.1,4.8,8.9,5.4,12.9l11.3,41.2-40.4,49,18,15.1s48.6-52.5,50.3-58.9c1.4-5.2-4.1-57-4.1-57l1.8-14.8-42-10h0c-3.4,7.1-3.6,15.3-.4,22.4Z"/>
      <g>
        <path class="cls-5" d="M464.8,403.4l-13,15s10,17.7,7.9,20.7l-28.4-23,19.4-24.2,14.2,11.5Z"/>
        <path class="cls-4" d="M444.1,410c-.7-.3-1.6,0-1.9.7-.3.7,0,1.6.6,1.9.7.3,1.8,0,2-.8.3-.7-.1-1.8-.9-1.9"/>
        <path class="cls-3" d="M431.3,416.1l2-2.4,26.5,23s.8,1.6-.1,2.4l-28.4-23Z"/>
        <path class="cls-12" d="M452.4,418.7c-.1.1-.9-.4-1.9-.4-1.1-.1-1.9.2-2,0-.1-.1.8-.8,2.1-.7,1.3.1,2,1,1.8,1.1Z"/>
        <path class="cls-12" d="M454.3,422.4c0,.2-.9,0-1.9.2-1,.2-1.6.8-1.8.7-.1,0,.4-1,1.7-1.3,1.2-.3,2.1.3,2,.5Z"/>
        <path class="cls-12" d="M453,427.5c-.2,0,.2-1,1.3-1.5,1-.5,1.9-.3,1.9-.1,0,.2-.8.3-1.6.7-.8.4-1.4,1-1.5.9Z"/>
        <path class="cls-12" d="M455,414.9c-.2,0-.6-.6-1.5-1.2-.8-.6-1.7-.8-1.6-1,0-.2,1-.2,2,.5,1,.7,1.2,1.7,1.1,1.7Z"/>
      </g>
      <g>
        <path class="cls-5" d="M528.5,390.5l-.2,20.2s19.4,7.1,19.7,10.9l-37.2.8-.8-31.6,18.6-.3Z"/>
        <path class="cls-4" d="M516.7,409.3c-.7.2-1.2,1.1-1,1.9.2.8,1,1.3,1.7,1.1.7-.2,1.3-1.2,1.1-2-.3-.7-1.3-1.3-1.9-.9"/>
        <path class="cls-3" d="M510.8,422.4v-3.2s35.7.5,35.7.5c0,0,1.7.7,1.5,2l-37.2.8Z"/>
        <path class="cls-12" d="M528.9,410.6c0,.2-.9.3-1.8.9-.9.6-1.3,1.5-1.5,1.4-.2,0,0-1.2,1.2-1.9,1.1-.8,2.2-.6,2.1-.4Z"/>
        <path class="cls-12" d="M532.8,412.2c0,.2-.7.5-1.3,1.4-.6.8-.8,1.7-.9,1.7-.2,0-.3-1.1.4-2.1.8-1,1.8-1.1,1.8-.9Z"/>
        <path class="cls-12" d="M535.1,417.1c-.2,0-.4-.9,0-2,.4-1.1,1.3-1.5,1.4-1.3.1.2-.4.7-.8,1.6-.4.9-.4,1.7-.6,1.7Z"/>
        <path class="cls-12" d="M528.4,405.9c0,.2-.9,0-1.9,0-1,0-1.8.5-1.9.3-.1-.1.7-.9,1.9-1,1.2-.1,2.1.5,2,.6Z"/>
      </g>
      <path class="cls-3" d="M501.9,297.8s0,.2.1.5c0,.4.1.9.2,1.5.2,1.3.4,3.3.6,5.7.5,4.8,1,11.5,1.5,18.9.5,7.3.9,14,1.2,18.9.1,2.4.2,4.3.3,5.7,0,.6,0,1.1,0,1.6,0,.4,0,.5,0,.5,0,0,0-.2,0-.5,0-.4,0-.9-.2-1.6-.1-1.4-.3-3.4-.5-5.7-.4-4.8-.8-11.5-1.3-18.9-.5-7.3-1-14-1.3-18.9-.2-2.4-.3-4.3-.4-5.7,0-.6,0-1.1,0-1.6,0-.4,0-.5,0-.5Z"/>
    </g>
    <g>
      <g>
        <path class="cls-1" d="M600.2,219.1c.8,1.5-2.3,2.9-2.3,2.9.7.6,0,3.1-1.3,3.3.5.4.9.4,1.1,1.1.2.6.2,1.4-.2,1.9-.4.6-1.1.9-1.8.6.7.8.7,2,.2,2.9-.3.5-.9.9-1.5,1.1-.3,0-.6.1-.9,0-.1,0-.2,0-.3,0,0,0,0,0-.1-.1-.2-.2-.3-.4-.5-.6,0,0-.1-.1-.2-.2-.3-.3-.7-.5-1.1-.7-.2,0-.4-.1-.6-.2-.1,0-.2-.2-.3-.3-.6-.6-1.5-.8-2.3-1-.9-.3-1.8-.6-2.4-1.3-.6-.7-.7-1.9,0-2.5-.6,0-1-.7-1-1.3,0-.6.5-1.1,1-1.4.5-.3,1.1-.3,1.7-.3-.7-.2-1-1-.8-1.7.2-.7.9-1.1,1.5-1.3.7-.2,1.4,0,2.1,0,.7.1,3.5.7,4.2.8l.7-1.9v-.2c1.4-.2,1.7-.3,2.9-.3.8,0,1.7,0,2,.6Z"/>
        <path class="cls-1" d="M593.4,235.3c-.2.6-.5,1.1-1,1.3-.6.3-1.9,0-2.5-.3,0,0,.5-1.9.5-1.9v-.5c0-.4-.8-.6-1.2-.9-.6-.5-.7-1.5-.2-2.1.5-.6,1.4-.8,2.1-.6.8.2,1.4.8,1.8,1.5.6,1,.8,2.4.4,3.5Z"/>
        <path class="cls-8" d="M596.1,228.8c0-.1-2.2-.9-5.1-1.7-2.8-.8-5.2-1.3-5.2-1.2,0,.1,2.2.9,5.1,1.7,2.8.8,5.2,1.3,5.2,1.2Z"/>
        <path class="cls-8" d="M596.8,225.2c0-.1-1.9-1-4.6-1.7-2.6-.6-4.8-.8-4.8-.7,0,.2,2.1.5,4.7,1.2,2.6.6,4.6,1.3,4.7,1.1Z"/>
      </g>
      <path class="cls-8" d="M597.5,221.6c0-.1-1.6-.8-3.8-1.2-2.2-.4-3.9-.7-4-.5,0,.2,1.7.6,3.8,1.1,2.2.4,3.9.8,3.9.7Z"/>
      <path class="cls-8" d="M593.5,234.1c0,0,.3-.3.2-.9,0-.6-.5-1.4-1.2-1.9-.7-.6-1.4-.9-2-1.1-.6-.2-1,.2-.9.3,0,0,.3-.1.8,0,.4.2,1.1.6,1.7,1.1.6.5,1,1.1,1.1,1.6.1.5,0,.8.2.8Z"/>
    </g>
    <path class="cls-5" d="M510.2,251.9s0-.5,0-1.5c0-1,.2-2.4.4-4,.3-3.4.7-8.1.9-13.3.2-5.2.2-10,.2-13.4,0-1.6,0-3,0-4.1,0-1,0-1.5,0-1.5,0,0,0,.5.2,1.5,0,1,.2,2.3.2,4.1.1,3.4.2,8.2,0,13.4-.2,5.2-.6,10-1,13.4-.2,1.7-.4,3.1-.5,4-.2.9-.3,1.5-.3,1.5Z"/>
    <g>
      <path class="cls-3" d="M494.7,190.9c-.9.5-17.9,8.8-21.5,12.9-3.6,4.1-9.1,30.1-9.1,30.1l-4.1,23.1-3.2,34.3,53.2.6c2.1-4.7.7-9.6-1.8-14.5l4.1-54.2-.7-12.7-16.9-19.6Z"/>
      <g>
        <path class="cls-3" d="M471.9,218.5s-8.9-3.8-9.8-9.5c-.9-5.7.2-7.2,1.7-9.6,1.5-2.4,28.7-31.3,28.7-31.3l13.3,10.9-19.2,22.6s2.8.4,1.9,4"/>
        <path class="cls-5" d="M488.4,205.7s.1-.4.1-1.3c0-.4,0-1-.4-1.5-.3-.5-.9-1-1.7-1.1h-.2s.1-.2.1-.2c3.8-4.5,10.6-12.6,19.1-22.7v.3c-4-3.3-8.5-7-13.3-10.9h.4c-1.6,1.7-3.3,3.5-5,5.4-5.6,6-10.9,11.7-15.7,16.9-2.4,2.6-4.7,5.1-6.7,7.5-.5.6-1,1.2-1.4,1.8-.4.6-.8,1.3-1.1,1.9-.6,1.3-.8,2.7-.7,4,0,1.3.2,2.6.4,3.7.3,1.1.9,2.1,1.5,3,1.3,1.7,2.8,2.8,4,3.6,1.2.8,2.3,1.4,2.9,1.8.3.2.6.3.8.4.2,0,.3.1.3.2,0,0-.1,0-.3-.1-.2,0-.5-.2-.8-.4-.7-.3-1.8-.9-3-1.7-1.2-.8-2.8-1.9-4.1-3.6-.7-.8-1.3-1.9-1.6-3-.3-1.2-.4-2.5-.5-3.8,0-1.3.1-2.8.7-4.2.6-1.3,1.5-2.7,2.5-3.8,2.1-2.4,4.3-4.9,6.7-7.5,4.8-5.2,10.1-11,15.7-16.9,1.7-1.8,3.4-3.7,5-5.4l.2-.2.2.2c4.7,3.9,9.2,7.6,13.3,10.9l.2.2-.2.2c-8.6,10-15.5,18.1-19.3,22.5v-.2c.8.2,1.4.7,1.7,1.3.3.6.4,1.1.3,1.6,0,.4,0,.8-.1,1,0,.2,0,.3,0,.3Z"/>
      </g>
      <g>
        <path class="cls-1" d="M494.2,144.9s-1.6-1.2-1.9,1.4,2.2,13,2.5,13c.3,0,1.8,6,1.6,6.8s-2.5,3.3-2.5,3.3l10.6,8.7,3.3-5.9s3.8-1.3,6.2-4.8c2.4-3.5,11.5-16.9,11.7-18.7.3-1.9-1.6-2.1-3-.3-1.4,1.8-4.5,6.1-5.1,6.3-.6.2-.9-.5-.6-1,.3-.5,6.3-10,6.8-11.8.8-2.3-1.8-2.8-1.8-2.8,0,0,.9-2.5-.4-3-1.3-.5-2.6.8-4,2.9-1.4,2.1-6.2,9-6.7,9.3-.4.3-.9,0-.5-.9.4-.9,6.3-9.4,6.2-10.6,0-1.2-.9-3.1-3.4-.6-2.5,2.5-8,13-8.9,13.9-.9.9-3.4,3.8-4.3,3.5-1-.3-3.3-3.3-3.8-5.5-.5-2.1-2-3.1-2-3.1Z"/>
        <path class="cls-8" d="M494.2,144.9s.4.2,1,.9c.3.4.6.8.8,1.5.1.3.2.7.3,1,.1.4.3.7.5,1.1.4.8.9,1.6,1.6,2.4.6.7,1.6,2.1,2.6,1,1-.7,1.9-1.7,2.9-2.8.5-.5.8-1.1,1.2-1.8.4-.7.8-1.3,1.2-2,1.6-2.8,3.3-5.8,5.5-9,.6-.8,1.2-1.6,2-2.2.4-.3.9-.6,1.5-.5.6,0,1.1.6,1.2,1.1,0,.3.1.5.1.8,0,.1,0,.3,0,.5v.4c-.4.5-.6.9-.9,1.4-.5.9-1.1,1.8-1.6,2.7-1.2,1.8-2.3,3.7-3.6,5.6-.1.2-.2.5-.2.7,0,.1,0,.1,0,.1,0,0,.1,0,.2,0h.1c0,0,.1-.3.1-.3,0-.1.2-.2.3-.3l.5-.7c.7-.9,1.4-1.9,2.1-2.9,1.4-2,2.7-3.9,4.2-6,.4-.5.8-1,1.3-1.4.5-.4,1.1-.8,1.8-.8.4,0,.7,0,1,.4.3.3.4.7.4,1,0,.7,0,1.3-.3,2l-.2-.3c.8.2,1.6.6,2,1.5.4.9,0,1.8-.3,2.4-.7,1.4-1.5,2.8-2.3,4.2-.8,1.4-1.6,2.7-2.5,4.1-.4.7-.9,1.4-1.3,2.1l-.3.5-.2.2c0,0,0,.1,0,.2,0,.1,0,.3.1.4,0,0,.2,0,.3,0,0,0,.3-.3.5-.4l.5-.5c.3-.4.6-.7.9-1.1.6-.8,1.2-1.5,1.8-2.3.6-.8,1.1-1.5,1.8-2.3.4-.4.8-.7,1.3-.8.5-.2,1.2,0,1.5.4.3.5.3,1.1.2,1.6,0,.3-.2.5-.3.7,0,.2-.2.4-.3.6-.4.8-.9,1.6-1.4,2.4-.9,1.6-1.9,3.1-2.9,4.6-1.9,3-3.9,5.9-5.8,8.7-.5.7-.9,1.4-1.4,2.1-.5.7-1.1,1.3-1.7,1.8-1.3,1.1-2.7,2-4.2,2.6h.1c-1.1,1.9-2.2,3.9-3.3,5.8v.2c-.1,0-.3-.2-.3-.2-3.8-3.1-7.3-6.1-10.6-8.7h-.2c0-.1.1-.3.1-.3.7-.8,1.4-1.6,2-2.4.1-.2.3-.4.4-.6.1-.2.1-.4.1-.6,0-.5-.1-1-.2-1.4-.2-.9-.4-1.8-.6-2.7-.1-.4-.2-.9-.4-1.3,0-.2-.1-.4-.2-.6,0,0,0-.2-.1-.2,0,0,0,0,0,0,0,0,.1,0,0,0,0,0-.1,0-.1,0h0c0-.1,0-.2,0-.2-.5-1.6-.9-3.2-1.2-4.6-.3-1.4-.6-2.7-.7-3.9-.3-2.3-.6-4.3,0-5.4.1-.3.4-.5.6-.6.2,0,.5,0,.6,0,.3.1.4.3.4.3,0,0-.1-.1-.4-.2-.1,0-.3,0-.6,0-.2,0-.4.3-.5.5-.5,1.1-.2,3,.2,5.4.4,2.3,1,5.2,2,8.4,0,0,0,0,0,.1h0s0,0,0,0c0,0,0,.2,0,0,0,0,0,0,0,0,0,0,0,0,0,0,0,0,0,0,0,0,0,.1.1.2.2.3,0,.2.2.4.2.6.1.4.3.8.4,1.3.2.9.5,1.8.6,2.7,0,.5.2,1,.2,1.5,0,.1,0,.3,0,.4,0,.2,0,.3-.1.4-.1.2-.3.4-.4.7-.6.8-1.3,1.6-2,2.4v-.3c3.2,2.6,6.8,5.5,10.6,8.7h-.3c1.1-1.8,2.1-3.8,3.3-5.8h0c0,0,0-.1,0-.1,1.4-.6,2.8-1.4,4-2.5.6-.5,1.2-1.1,1.7-1.8.5-.6.9-1.4,1.4-2.1,1.9-2.8,3.8-5.7,5.8-8.7,1-1.5,1.9-3,2.9-4.6.5-.8.9-1.6,1.4-2.4.1-.2.2-.4.3-.6.1-.2.2-.4.2-.6.1-.4,0-.9-.1-1.1-.2-.3-.6-.4-1-.2-.4.1-.8.4-1.1.7-.6.6-1.2,1.5-1.7,2.2-.6.8-1.2,1.5-1.8,2.3-.3.4-.6.8-.9,1.1l-.5.6c-.2.2-.3.4-.6.5-.2.1-.7,0-.9-.1-.2-.2-.3-.5-.3-.8,0-.1,0-.3.1-.4l.2-.3.3-.5c.4-.7.9-1.4,1.3-2.1.8-1.4,1.7-2.8,2.5-4.1.8-1.4,1.6-2.7,2.3-4.1.3-.7.6-1.4.3-2-.3-.6-.9-1-1.6-1.2h-.3c0,0,0-.3,0-.3.2-.6.3-1.2.3-1.8,0-.3-.1-.5-.3-.7-.2-.2-.4-.2-.7-.2-.5,0-1.1.3-1.5.7-.4.4-.8.9-1.2,1.4-1.4,2-2.8,4-4.2,6-.7,1-1.4,1.9-2.1,2.9l-.5.7c0,.1-.2.2-.3.3v.2c-.2,0-.3.1-.4.2-.2,0-.4.2-.6,0-.2-.1-.3-.4-.3-.6,0-.4.1-.7.3-.9,1.2-2,2.4-3.8,3.6-5.6.6-.9,1.1-1.8,1.6-2.7.3-.5.5-.9.7-1.4v-.3c.2-.1.2-.2.2-.3,0-.2,0-.5-.1-.7-.1-.4-.4-.8-.8-.9-.4,0-.8.2-1.2.5-.8.6-1.4,1.3-1.9,2.1-2.2,3.1-3.9,6.2-5.5,8.9-.4.7-.8,1.4-1.2,2-.4.6-.8,1.3-1.3,1.8-1,1-1.9,2-2.9,2.8-.3.2-.5.3-.9.4-.2,0-.4,0-.5,0-.2,0-.3-.2-.4-.2-.5-.4-.8-.8-1.2-1.2-.7-.8-1.2-1.7-1.6-2.5-.2-.4-.3-.8-.5-1.2-.1-.4-.2-.7-.3-1-.2-.6-.5-1.1-.8-1.5-.3-.4-.5-.6-.7-.8-.2-.2-.3-.2-.3-.2Z"/>
      </g>
      <g>
        <path class="cls-3" d="M486.5,201.7c-1.5,2.6-3.1,5.2-5.2,7.4s-4.9,3.7-7.9,3.8"/>
        <path class="cls-5" d="M473.4,212.9c0,0,1,0,2.5-.6,1.5-.5,3.5-1.6,5.2-3.4,1.7-1.7,3-3.6,3.9-5,.9-1.4,1.4-2.2,1.5-2.2,0,0-.4.9-1.2,2.4-.8,1.4-2,3.4-3.8,5.2-1.8,1.8-3.9,2.9-5.5,3.4-.8.2-1.5.3-1.9.3-.5,0-.7,0-.7,0Z"/>
      </g>
      <path class="cls-5" d="M487.6,209.4s-.4.8-1.5,2c-1,1.1-2.6,2.6-4.6,3.8-2,1.2-4,2-5.5,2.4-1.5.4-2.4.5-2.4.4,0-.2,3.7-.8,7.6-3.3,3.9-2.4,6.2-5.5,6.3-5.4Z"/>
      <g class="cls-13">
        <path class="cls-6" d="M473.7,212.4c2.5.9,4.9,1.2,7.3.1,2.4-1.1,4.4-3.2,5.3-5.7.7-1.8.8-3.8,1.6-5.6,1.8-3.9,6.5-6.2,7.5-10.4-3.7,4.1-7.2,7.7-10.1,12.6-1.2,2.1-3,4.5-5.3,6.3-2.2,1.7-3.6,2.2-6.5,2.6"/>
      </g>
    </g>
    <g class="cls-13">
      <path class="cls-6" d="M511.3,241.7l2.3.7s.9-17.5-1.6-22.8l-.7,22.1Z"/>
    </g>
  </g>
  <g>
    <g>
      <g>
        <path class="cls-2" d="M281.8,195.8l-6.7-37.3c-2-9.2,1.8-18.1,11-19.8h.9c8.7-1.2,16.8,4.6,18.6,13.2,1.7,8,3.4,16.9,3.9,21.2,1,9-7.8,11.5-7.8,11.5,0,0,.8,5.4,1.3,8.1l3.1,5.8-7.6-.6-16.7-2.1Z"/>
        <path class="cls-9" d="M301.7,184.7s-5.6,1-12.1-2c0,0,3.7,6.4,12.5,4.5l-.4-2.5Z"/>
        <path class="cls-5" d="M303.2,160.7c.1.7-.4,1.3-1.1,1.4-.7.1-1.4-.3-1.5-1-.1-.7.4-1.3,1.1-1.4.7-.1,1.4.3,1.5,1Z"/>
        <path class="cls-5" d="M304.2,156.2c-.1.2-1.2-.4-2.6-.2-1.4.2-2.3,1-2.5.8,0,0,0-.4.4-.8.4-.4,1.1-.8,2-.9.9-.1,1.6.1,2.1.4.5.3.6.6.6.6Z"/>
        <path class="cls-5" d="M290.9,162.3c.1.7-.4,1.3-1.1,1.4-.7.1-1.4-.3-1.5-1-.1-.7.4-1.3,1.1-1.4.7-.1,1.4.3,1.5,1Z"/>
        <path class="cls-5" d="M290.7,158.2c-.1.2-1.2-.4-2.6-.2-1.4.2-2.3,1-2.5.8,0,0,0-.4.4-.8.4-.4,1.1-.8,2-.9.9-.1,1.6.1,2.1.4.5.3.6.6.6.6Z"/>
        <path class="cls-5" d="M297,168.2c0,0,.8-.3,2.2-.7.3,0,.7-.2.7-.4,0-.3-.1-.6-.4-1-.4-.8-.9-1.7-1.4-2.6-1.9-3.6-3.4-6.6-3.2-6.7.1,0,1.8,2.8,3.7,6.5.5.9.9,1.8,1.3,2.6.2.4.5.8.4,1.4,0,.3-.3.5-.5.6-.2,0-.4.1-.6.2-1.4.2-2.3.4-2.3.3Z"/>
        <path class="cls-5" d="M290.6,153.8c-.1.4-1.5.2-3.2.3-1.6.1-3,.6-3.2.2,0-.2.1-.5.7-.9.5-.4,1.4-.7,2.4-.8,1,0,1.9,0,2.5.3.6.3.9.6.8.7Z"/>
        <path class="cls-5" d="M303.8,152.1c-.2.4-1.4.2-2.8.4-1.4.1-2.5.6-2.8.3-.1-.1,0-.5.5-.8.5-.4,1.2-.7,2.2-.8.9-.1,1.8,0,2.3.3.5.3.7.6.6.7Z"/>
        <path class="cls-2" d="M276.7,165.1c-.2,0-6.4-1.1-5.4,5.1,1,6.1,6.9,3.9,6.9,3.7,0-.2-1.4-8.8-1.4-8.8Z"/>
        <path class="cls-9" d="M275.9,171.9s0,0-.3.2c-.2.1-.5.2-.8.1-.7-.1-1.4-1.1-1.6-2.2-.1-.6,0-1.1,0-1.6.1-.5.4-.8.7-.9.3-.1.6,0,.7.2.1.2,0,.3.1.3,0,0,.1-.1,0-.4,0-.1-.1-.3-.3-.3-.2,0-.4-.1-.6,0-.5.1-.8.6-1,1.1-.2.5-.2,1.1-.1,1.8.2,1.2,1,2.3,2,2.4.4,0,.8-.1.9-.3.2-.2.2-.3.2-.3Z"/>
        <path class="cls-5" d="M292.8,169.7c.2,0,.5,1.4,1.8,2.1,1.4.8,2.8.4,2.9.6,0,0-.3.3-.9.5-.6.1-1.6,0-2.4-.4-.8-.5-1.3-1.2-1.4-1.8-.2-.6,0-1,0-1Z"/>
      </g>
      <g>
        <path class="cls-5" d="M316.6,141.9c-.2-.3-.5-.6-.8-.7-.8-.3-1.6-.1-2.3,0-1.9.3-3.9,0-5.8-.5.6-.4,1.1-.9,1.5-1.4.8-1.1,1.2-2.7.5-4-.1-.2-.3-.5-.6-.5-.4,0-.7.4-.9.7-.8,1.2-1.5,1.7-2.9,1.8-.9,0-1.7,0-2.4-.3,0,0,0,0,0,0-.4-.3-.7-.5-1.1-.8,0,0,0,0,0,0h0c-2.7-1.9-4.9-3.2-7-3.7-3.2-.7-8.2-.5-11.2.8-3,1.3-5.4,4.3-5.3,7.5-2-1.2-4.6-.8-6.6.4h0c-2.2,1.2-3.2,3.9-3.5,6.4,0,.1,0,.3,0,.4-.6,1.4-1.5,2.6-2.7,3.6-.2.2-.4.4-.4.6,0,.3.3.4.5.6.6.3,1.3.5,2,.5-.1.6-.3,1.2-.5,1.8-.2.5-.4,1.1-.1,1.5.2.3.7.4,1.1.3.4-.1.7-.4,1-.7-.2.7-.3,1.3-.5,2,.9,0,1.8-.2,2.5-.6.9,2.2,1.9,6.3,2.7,7.7,1.6-.2,2-.5,2.9-.3,1.1.2,1,2.1,2.3,1.4.7-.4,1.3-3.2,1.4-4,.8-5,.6-10.1-.8-15,.8-1.2,1.9-2.2,3.1-3h0c2.4-1.1,5.1-2.4,7.6-1.6,2,.6,3.4,2.4,5,3.7,3.1,2.5,6.2,3.6,10.2,3.1.8,2.6,1.6,7,2.1,9.5l1.4-5.4h0c.1-.3.2-.6.3-.9h0c0,0,0-.1,0-.1.1-.5.3-1,.5-1.5,0,0,0,0,0,0,1.6,1,3.3-1.2,2-2.5-.3-.3-.6-.5-.9-.6.7.5,1.7.6,2.5.2.8-.4,1.3-1.3,1.1-2.1-.1-.6-.6-1-1.2-1.2,1.1,0,2.2-.5,3.1-1.2.6-.5,1.1-1.1.8-1.9Z"/>
        <path class="cls-3" d="M281,141.3s-.3.3-.8,1c-.4.7-.9,1.8-.9,3.2,0,.7,0,1.5.1,2.3.1.8.3,1.7.5,2.6.2.9.4,1.9.5,2.9,0,.5,0,1,0,1.6,0,.5,0,1.1-.4,1.6-.3.4-.7.6-1.2.6-.5,0-.9-.2-1.2-.5-.7-.6-1-1.4-1.2-2.1h.2c-.2.7-.4,1.4-.8,2-.4.6-1,1.1-1.6,1.2-.3,0-.6,0-.9,0-.3,0-.5-.3-.7-.5-.2-.2-.3-.5-.3-.8,0-.3,0-.5.2-.7h.1c-.6,1-1.2,1.5-1.7,1.8-.2.2-.4.3-.6.3-.1,0-.2,0-.2,0,0,0,0,0,.2-.1.1,0,.3-.2.5-.3.5-.3,1.1-.9,1.6-1.8h.1c-.3.4-.2,1,.1,1.4.2.2.4.4.7.5.3,0,.6,0,.9,0,.6-.2,1.1-.6,1.5-1.2.4-.6.6-1.3.8-2v-.3c0,0,.2.3.2.3.3.7.5,1.5,1.2,2,.3.3.7.4,1.1.4.4,0,.8-.2,1-.5.3-.4.3-1,.4-1.5,0-.5,0-1,0-1.5,0-1-.3-2-.5-2.9-.2-.9-.4-1.8-.5-2.6-.1-.8-.1-1.6,0-2.3,0-1.4.5-2.6,1-3.2.5-.7.8-.9.8-.9Z"/>
        <path class="cls-3" d="M310,145.7s0,0,0,0c0,0-.1.1-.2.2,0,0-.2.2-.3.3-.1.1-.3.2-.5.4-.8.5-2,1.1-3.7,1.3-1.7.2-3.7-.1-5.7-1.2-2-1-3.9-2.7-5.5-4.6-.8-1-1.5-2-2.3-2.9-.7-.9-1.5-1.8-2.4-2.4-.9-.6-1.9-1.1-2.8-1.2-.5,0-.9,0-1.4,0-.4,0-.8.2-1.2.4-.7.4-1.3.9-1.7,1.4-.4.5-.7,1-.8,1.5-.3.9-.2,1.4-.3,1.4,0,0,0,0,0,0,0,0,0-.2,0-.3,0-.2,0-.6.2-1.1.1-.4.4-1,.8-1.5.4-.5,1-1.1,1.7-1.5.4-.2.8-.4,1.2-.5.5,0,.9-.1,1.4,0,1,.1,2,.5,2.9,1.2.9.6,1.7,1.5,2.5,2.4.8.9,1.5,2,2.3,2.9,1.6,2,3.4,3.6,5.4,4.6,1.9,1,4,1.3,5.6,1.2,1.7-.1,2.9-.7,3.7-1.2.8-.5,1.1-.9,1.1-.9Z"/>
        <path class="cls-3" d="M310.2,141.6s0,.1-.3.3c-.2.2-.5.4-.9.6-.4.2-.9.5-1.4.7-.6.2-1.2.4-1.9.6-.7.1-1.4.2-2,.2-.6,0-1.1,0-1.6-.2-.4,0-.8-.2-1-.3-.2,0-.4-.1-.4-.2,0,0,.5.1,1.4.3.4,0,1,.1,1.6.1.6,0,1.2,0,1.9-.2.7-.1,1.3-.3,1.9-.5.6-.2,1-.4,1.4-.7.8-.4,1.2-.8,1.2-.8Z"/>
      </g>
    </g>
    <path class="cls-2" d="M394.4,255.1l3.5-.5s1.6-1.7,3.6-2.8c2-1.2,3.7-1.2,4.2-.2.5,1,.3,2.1-.8,3.1-1,1-4.9,2-5.1,3.7s12.3,7,12.3,7l-9.9,11.3-14.4-7.7-.7-1.2v-3.1c-.1,0,7.3-9.5,7.3-9.5Z"/>
    <g>
      <path class="cls-5" d="M293.9,286.2l4.4,51.4-1.5,8.9s-17.8,51.2-17.4,72.4l20.8-1s20.3-58,21.9-64.4c1.6-6.4,9.8-49.2,9.8-49.2l13.5,33.9.4,7.9-7.8,49.1,24.2,1.3s9.9-55.8,8.9-63c-1-7.2-17-63.8-17-63.8l-8.3-7.2-47.1,7.9-4.9,15.8Z"/>
      <g>
        <path class="cls-5" d="M360,381.5l-.7,20.6s19.6,7.7,19.8,11.6h-37.9c0-.1,0-32.3,0-32.3h18.9Z"/>
        <path class="cls-4" d="M347.6,400.4c-.7.2-1.2,1.1-1.1,1.9.2.8,1,1.3,1.7,1.1.7-.2,1.4-1.2,1.1-2-.3-.8-1.3-1.4-1.9-1"/>
        <path class="cls-3" d="M341.2,413.6v-3.2c.1,0,36.4,1.3,36.4,1.3,0,0,1.7.8,1.5,2h-37.9Z"/>
        <path class="cls-12" d="M359.9,401.9c0,.2-.9.3-1.8.9-.9.6-1.4,1.4-1.6,1.4-.2,0,.1-1.2,1.2-1.9,1.1-.7,2.2-.5,2.2-.3Z"/>
        <path class="cls-12" d="M363.9,403.7c0,.2-.8.5-1.4,1.3-.7.8-.8,1.7-1,1.7-.2,0-.3-1.1.5-2.1.8-1,1.9-1.1,1.9-.9Z"/>
        <path class="cls-12" d="M366.1,408.7c-.2,0-.4-.9,0-2,.5-1.1,1.3-1.5,1.4-1.3.1.2-.5.7-.8,1.6-.4.9-.5,1.7-.6,1.7Z"/>
        <path class="cls-12" d="M359.6,397.2c0,.2-.9,0-2,0-1,0-1.9.4-2,.2-.1-.1.7-.9,1.9-.9,1.2,0,2.1.5,2,.7Z"/>
      </g>
      <g>
        <path class="cls-5" d="M298.2,403.2v23.7c.1,0,5.7,18.7,5.7,18.7.4,1.3-.4,2.7-1.8,3.1h0c-.8.2-1.6,0-2.1-.6-3.7-3.4-17.3-15.8-17.2-17.5.1-2-1.8-25-1.8-25l17.3-2.4Z"/>
        <path class="cls-3" d="M302,448.6l-19.4-19.7v1c0,.9.4,1.7,1,2.3,1.6,1.7,5.9,6.4,16.2,15.8.6.5,1.4.8,2.2.6h0Z"/>
        <g class="cls-14">
          <path class="cls-12" d="M287.3,421.2c.6.4.8,1.3.5,1.9-.4.6-1.3.9-1.9.5-.6-.4-.9-1.4-.5-2,.4-.6,1.5-.8,2-.3"/>
        </g>
        <path class="cls-12" d="M296.3,438.4c.1,0,.6-1.2,2-1.9,1.4-.7,2.7-.5,2.7-.6,0,0-.3-.2-.8-.3-.6,0-1.3,0-2.1.4-.8.4-1.3,1-1.5,1.5-.3.5-.3.8-.2.9Z"/>
        <path class="cls-12" d="M298.1,441.6c.1,0,.9-.7,2.1-1.1,1.2-.4,2.3-.2,2.3-.4,0-.1-1.1-.6-2.5-.1-1.4.4-2,1.5-1.9,1.6Z"/>
        <path class="cls-12" d="M293.1,434.5c.1.1,1.2-1.1,3.1-1.9,1.8-.8,3.5-.8,3.5-.9,0-.1-1.7-.4-3.7.4-2,.8-3,2.3-2.9,2.4Z"/>
        <path class="cls-12" d="M292.4,427.3c0,.1,1.4-.4,3.1-.6,1.7-.1,3.1.3,3.1.1,0-.1-1.3-.8-3.1-.6-1.8.1-3.1,1-3,1.1Z"/>
        <path class="cls-12" d="M292.2,420.3c0,.1,1.4-.7,3.2-.7,1.8,0,3.1.8,3.2.7,0,0-.2-.3-.8-.6-.5-.3-1.4-.6-2.4-.6-1,0-1.8.3-2.4.6-.6.3-.8.6-.8.6Z"/>
      </g>
    </g>
    <g>
      <path class="cls-3" d="M270.7,197s-12.7,7.7-3.5,25.9c11.2,22.4,21.9,53.9,25.6,56,1.5.9,8.5-2.7,8.5-2.7l5.6-10.4-14.8-38.7-9.7-22.4-11.7-7.8Z"/>
      <path class="cls-3" d="M280,191.1l-9.2,5.9,24.5,43.3-3.6,38.7,5.5,3.1,57.3-7.9,1.9-2.6-6.3-18.2-8.4-20.4s-8.3-18.5-13.2-26.4c-4.9-7.9-10.1-15.9-10.1-15.9l-14-1-1.7-1.9s-2.1,3.8-7.9,4.2c-4.7.3-14.6-2.3-14.6-2.3l-.2,1.3Z"/>
      <path class="cls-3" d="M394.4,255.1s-33.6-26.9-36.4-30.1c-2.7-3.1-26.1-27.7-26.1-27.7,0,0-8.6-8.2-13.5-6.6-6,2,6,30.9,6,30.9,0,0,24.7,20.5,28.7,24.4s28.1,19.4,28.1,19.4l5.7-.8,7.4-9.5Z"/>
      <path class="cls-5" d="M285.3,214.3s.1.2.3.5c.2.4.4.9.6,1.5.5,1.3,1.3,3.2,2.3,5.5,2,4.7,4.8,11,8,18.1,3.2,7.1,5.9,13.5,7.7,18.2.9,2.4,1.6,4.3,2.1,5.6.2.6.4,1.1.5,1.5.1.4.2.5.1.6,0,0-.1-.2-.2-.5-.2-.4-.4-.9-.6-1.5-.5-1.3-1.3-3.2-2.2-5.6-1.9-4.7-4.7-11.1-7.8-18.2-3.2-7-6-13.5-7.9-18.2-1-2.3-1.7-4.3-2.2-5.6-.2-.6-.4-1.1-.5-1.5-.1-.4-.2-.5-.2-.5Z"/>
      <path class="cls-5" d="M326.5,203.4s.1,0,.3.3c.2.2.4.5.7,1,.6.9,1.4,2.2,2.3,3.8,1.8,3.3,4.1,7.9,6.6,13,2.5,5.1,4.6,9.8,6.2,13.2.8,1.7,1.4,3.1,1.8,4.1.4,1,.6,1.5.6,1.5,0,0-.3-.5-.8-1.4-.5-1-1.1-2.4-1.9-4-1.6-3.4-3.9-8.1-6.3-13.2-2.5-5.1-4.8-9.7-6.5-13.1-.9-1.7-1.6-3-2.1-3.9-.5-.9-.9-1.3-.9-1.4Z"/>
      <g class="cls-13">
        <path class="cls-6" d="M293,232.7s-2.4-13.3-1-21.1c1.4-7.8,5.3-19.1,5.3-19.1l7-3,36.4,17.7,2.7,3.3-4.8,15.4,3.6,28-49.3-21.1Z"/>
      </g>
    </g>
    <g>
      <path class="cls-10" d="M301.8,209.2c2.7-50.1,30.9-77.1,66.6-75.2,36,2,60.8,31.8,58.1,82-2.7,50.1-30.7,77.1-66.6,75.2-35.8-1.9-60.8-31.8-58.1-82ZM392.6,214.2c1.9-34.5-9-49.5-25.8-50.4-16.6-.9-29,12.8-30.9,47.3-1.9,34.5,9,49.5,25.6,50.4,16.8.9,29.3-12.8,31.1-47.3Z"/>
      <g class="cls-13">
        <path class="cls-6" d="M301.8,209.2c2.7-50.1,30.9-77.1,66.6-75.2,36,2,60.8,31.8,58.1,82-2.7,50.1-30.7,77.1-66.6,75.2-35.8-1.9-60.8-31.8-58.1-82ZM392.6,214.2c1.9-34.5-9-49.5-25.8-50.4-16.6-.9-29,12.8-30.9,47.3-1.9,34.5,9,49.5,25.6,50.4,16.8.9,29.3-12.8,31.1-47.3Z"/>
      </g>
      <path class="cls-10" d="M291.5,209.3c2.7-50.1,30.9-77.1,66.6-75.2,36,2,60.8,31.8,58.1,82-2.7,50.1-30.7,77.1-66.6,75.2-35.8-1.9-60.8-31.8-58.1-82ZM382.3,214.2c1.9-34.5-9-49.5-25.8-50.4-16.6-.9-29,12.8-30.9,47.3-1.9,34.5,9,49.5,25.6,50.4,16.8.9,29.3-12.8,31.1-47.3Z"/>
    </g>
    <path class="cls-2" d="M329.2,285.1l-6.2-3.8s-6.3-4.2-6.7-4.8c-.4-.6-.8-2.3-.8-3.3,0-.9,2.9-3,3.2-4.8.3-1.8-1.6-3.5-2.2-3.8-.7-.3-1.4.8-1.5,1.5-.1.8-1.3,1.9-3.1,2.3-1.8.4-4.3,2.7-4.3,2.7l-5.4,10.1c.9,1.7,11.9,5.9,12.3,6.1.3.2,12.1.4,13.3,0,1.2-.4,1.6-.9,1.5-2.3Z"/>
    <g>
      <g>
        <path class="cls-2" d="M416.8,264.1c0,1.7-3.3,1.6-3.3,1.6.4.8-1.4,2.8-2.5,2.4.3.6.6.8.6,1.5s-.4,1.3-1,1.7c-.6.3-1.4.3-1.8-.2.2,1-.2,2.1-1.1,2.7-.5.3-1.2.4-1.8.3-.3,0-.6-.2-.9-.3,0,0-.2-.1-.3-.2,0,0,0,0,0-.1,0-.2-.1-.5-.2-.7,0,0,0-.2-.1-.3-.2-.4-.4-.8-.7-1.1-.1-.1-.3-.3-.4-.5,0-.1,0-.3-.1-.4-.3-.8-1-1.4-1.7-1.9-.7-.6-1.4-1.3-1.6-2.2-.2-.9.2-2,1.1-2.2-.5-.3-.6-1.1-.3-1.6.3-.5.9-.8,1.5-.8.6,0,1.2.2,1.7.5-.5-.5-.5-1.4,0-1.9.5-.5,1.3-.6,1.9-.5.7.2,1.3.5,1.8,1,.6.4,2.9,2.2,3.5,2.5l1.4-1.4.2-.2c1.2.4,1.6.5,2.6.9.8.3,1.5.7,1.5,1.4Z"/>
        <path class="cls-2" d="M403.6,275.8c-.4.4-.9.8-1.5.8-.7,0-1.7-.9-2.1-1.4,0,0,1.3-1.5,1.3-1.5l.3-.4c0-.4-.6-1-.8-1.4-.3-.7,0-1.6.8-2,.7-.3,1.6-.1,2.2.4s.9,1.3,1,2.1c.1,1.2-.3,2.5-1.1,3.4Z"/>
        <path class="cls-9" d="M408.8,271.1c0-.1-1.6-1.8-3.8-3.7-2.2-1.9-4.1-3.4-4.2-3.3,0,.1,1.6,1.8,3.8,3.7,2.2,1.9,4.1,3.4,4.2,3.3Z"/>
        <path class="cls-9" d="M411,268.1c.1,0-1.3-1.8-3.4-3.5-2.1-1.7-4-2.8-4.1-2.7,0,.1,1.7,1.4,3.7,3.1,2.1,1.7,3.6,3.2,3.7,3Z"/>
      </g>
      <path class="cls-9" d="M413.2,265.2c.1-.1-1.1-1.4-2.9-2.8-1.8-1.3-3.2-2.3-3.3-2.2,0,.1,1.3,1.3,3,2.6,1.8,1.3,3.1,2.4,3.2,2.3Z"/>
      <path class="cls-9" d="M404.2,274.7s.4-.2.6-.7c.2-.6.2-1.4-.2-2.3-.4-.8-.9-1.4-1.3-1.8-.5-.4-1-.2-.9-.1,0,0,.4,0,.7.4.3.4.7,1,1.1,1.7.3.7.4,1.4.3,1.9,0,.5-.3.8-.2.8Z"/>
    </g>
  </g>
  <g>
    <g>
      <path class="cls-5" d="M183.1,392.2l-3.2,19s19.1,7.8,19.2,11.5l-37.1-.6,4.6-31.3,16.4,1.3Z"/>
      <path class="cls-4" d="M168.4,409.4c-.7.2-1.2,1-1.1,1.8.2.8,1,1.3,1.7,1.1.7-.2,1.4-1.2,1.1-1.9-.2-.7-1.2-1.3-1.9-1"/>
      <path class="cls-3" d="M162,422.2l.5-3.2,35.2,1.7s1.6.8,1.4,2l-37.1-.6Z"/>
      <path class="cls-12" d="M180.5,411c0,.2-.9.3-1.8.9-.9.6-1.4,1.4-1.6,1.3-.2,0,.1-1.2,1.2-1.9,1.1-.7,2.2-.5,2.1-.3Z"/>
      <path class="cls-12" d="M184.4,412.8c0,.2-.7.5-1.4,1.3-.6.8-.8,1.7-1,1.6-.2,0-.3-1.1.5-2.1.8-1,1.9-1,1.9-.9Z"/>
      <path class="cls-12" d="M186.5,417.7c-.2,0-.4-.9,0-2,.5-1,1.3-1.4,1.4-1.3.1.2-.5.7-.8,1.6-.4.8-.5,1.7-.6,1.7Z"/>
      <path class="cls-12" d="M180.2,406.4c0,.2-.9-.1-1.9,0-1,0-1.8.4-1.9.2-.1-.1.7-.8,1.9-.9,1.2,0,2,.6,2,.7Z"/>
    </g>
    <g>
      <path class="cls-5" d="M129.5,395.2l-9.8,17.6s13.6,15.5,12.1,18.9l-32.9-17,14.3-28,16.4,8.6Z"/>
      <path class="cls-4" d="M110.2,406c-.7-.1-1.6.4-1.8,1.1-.2.8.3,1.6,1,1.8.7.2,1.7-.4,1.9-1.2.1-.8-.5-1.7-1.2-1.7"/>
      <path class="cls-3" d="M98.8,414.6l1.5-2.8,31,17.4s1.1,1.4.4,2.4l-32.9-17Z"/>
      <path class="cls-12" d="M120.3,412.9c0,.2-.9-.2-2,0-1.1.1-1.9.6-2,.5-.1-.1.6-1,1.9-1.1,1.3-.2,2.2.6,2.1.7Z"/>
      <path class="cls-12" d="M123,416.2c0,.2-.9.1-1.8.5-.9.4-1.5,1.1-1.6,1-.2,0,.2-1.1,1.4-1.6,1.1-.5,2.1-.1,2,0Z"/>
      <path class="cls-12" d="M122.7,421.5c-.2,0,0-1,.9-1.7.9-.7,1.8-.7,1.8-.5,0,.2-.7.4-1.5,1-.7.6-1.2,1.3-1.3,1.2Z"/>
      <path class="cls-12" d="M122.1,408.6c-.1.1-.8-.5-1.7-.9-.9-.4-1.8-.5-1.8-.7,0-.2,1-.4,2.1,0,1.1.5,1.6,1.4,1.4,1.5Z"/>
    </g>
    <g>
      <path class="cls-5" d="M152.5,278.8s6.6,64.1,4.7,71.5-33.7,64.1-33.7,64.1l-21.9-12.2s26.6-51.3,26.3-53.5c-.3-2.2.7-8.3.7-8.3l-14.7-49.2,2.9-21.1,26-2.6,9.7,11.3Z"/>
      <path class="cls-5" d="M135.1,302.9c.7,2,35.9,42.2,35.9,42.2,0,0-.2,1.5.4,2.5.9,1.4,3,2.1,3,2.1l-14,58,24.5,2.3s14.6-58.1,14.1-65.4c-.6-7.3-35.6-64.1-35.6-64.1l-25-1.4-3.3,23.7Z"/>
      <path class="cls-3" d="M153.1,292.8s0,.6-.3,1.6c-.1,1-.2,2.5-.1,4.4.2,3.7,1.1,8.8,2.1,14.4,1.1,5.6,2,10.7,2.2,14.4.1,1.9,0,3.4,0,4.4-.2,1-.3,1.6-.3,1.6,0,0,0-.6.1-1.6,0-1,0-2.5,0-4.4-.3-3.7-1.3-8.8-2.3-14.3-1-5.6-1.9-10.7-2-14.4,0-1.9,0-3.4.3-4.4.3-1,.4-1.6.5-1.6Z"/>
    </g>
    <path class="cls-1" d="M205.4,194s4.5-7.2,8.6-7.8,11.2,0,11.2,0l-3.8,15.5-8.5,1.5-7.4-9.1Z"/>
    <polygon class="cls-3" points="140.1 205.8 171.8 207.7 204.2 192.6 214.2 204.9 174.5 226 152.5 228.8 140.1 205.8"/>
    <g>
      <path class="cls-10" d="M238.7,238.5l-25.1-4.4-5.7,32.4-34.8-6.1,5.7-32.4-83-14.5,4.2-24,89.8-85.1,37.4,6.6-83.6,80.9,41.4,7.2,5.1-28.9,33.7,5.9-5.1,28.9,25.1,4.4-5.1,29.1Z"/>
      <g class="cls-13">
        <path class="cls-6" d="M238.7,238.5l-25.1-4.4-5.7,32.4-34.8-6.1,5.7-32.4-83-14.5,4.2-24,89.8-85.1,37.4,6.6-83.6,80.9,41.4,7.2,5.1-28.9,33.7,5.9-5.1,28.9,25.1,4.4-5.1,29.1Z"/>
      </g>
      <path class="cls-10" d="M230.2,237.3l-25.1-4.4-5.7,32.4-34.8-6.1,5.7-32.4-83-14.5,4.2-24,89.8-85.1,37.4,6.6-83.6,80.9,41.4,7.2,5-28.9,33.7,5.9-5,28.9,25.1,4.4-5.1,29.1Z"/>
    </g>
    <g class="cls-13">
      <path class="cls-6" d="M155.1,222s-3.6-9.8-6.8-13.5c-3.2-3.8-6.7-9.2-6.7-9.2l16.2-7.1-8.4-6.5-14.2,6.5-.9,12.8,17.2,17.9,3.8-.8Z"/>
    </g>
    <g>
      <path class="cls-5" d="M143.4,157.3c3.3,2.7,5.1,7,4.7,11.2-.2,2-.8,4.4.5,5.9,1.3,1.6,3.9,1.6,5.1,3.2,1.4,1.9.1,4.7.6,7,.5,2.2,2.7,3.9,5,3.6-2.6,2.1-5.9,3.4-9.2,3.8-.8-1.1-1.7-2.2-2.5-3.3.9,1.2.7,3-.3,4.2-1,1.2-2.4,1.8-3.9,2.2-6.9,2-14.7.6-20.5-3.7"/>
      <path class="cls-5" d="M104.6,174.6c.5-1.6,1.4-3,1.8-4.6.8-3.4-.8-7.4.9-10.5,1.2-2.2,3.8-3.2,6.2-3.9,2.4-.7,5-1.3,6.9-3,1.3-1.3,2.1-3,3.5-4.3,1.9-1.8,4.7-2.4,7.3-2.5,2.7-.1,5.5.2,7.9,1.4,2.4,1.2,4.4,3.5,4.8,6.2.2,1.3,0,2.7.4,3.9.4,1.4,1.5,2.5,2.1,3.8,1.4,2.7.5,6.4-1.9,8.3l-19,23.6c-3.9,1.4-13.3-.6-16.3-3.5-3-2.9-6-11-4.6-14.9Z"/>
      <path class="cls-1" d="M144,166.3c-.7-5.5-4.7-12-10.1-11.1l-16.8,5.3c-1.6.3-2.8,1.8-2.7,3.4l4.1,39.4s-1.2,1-2,.7c-.2,0-.4.1-.3.3,1.9,2.9,11.1,15.8,21,12.2,2.2-.8,0-7.7.2-10.3l-.2-6.5c-.2-3.3-.2-4.7-.2-4.6,0,0,6.9-1.6,7.9-10.8.5-4.6-.2-12-.9-18.1Z"/>
      <path class="cls-5" d="M142.7,174.7c0,.6-.4,1.2-1.1,1.2-.6,0-1.2-.4-1.3-1,0-.6.4-1.2,1.1-1.2.6,0,1.2.4,1.3,1Z"/>
      <path class="cls-5" d="M131.4,175.2c0,.6-.4,1.2-1.1,1.2-.6,0-1.2-.4-1.3-1,0-.6.4-1.2,1.1-1.2.6,0,1.2.4,1.3,1Z"/>
      <path class="cls-5" d="M143.2,170.8c-.1.2-1.2-.5-2.6-.3-1.4.1-2.3,1.1-2.4.9,0,0,0-.4.4-.9.4-.4,1.1-.9,1.9-1,.9,0,1.6.2,2.1.5.5.3.7.7.6.7Z"/>
      <path class="cls-5" d="M131,171.6c-.2.2-1.2-.6-2.7-.6-1.5,0-2.5.8-2.7.7,0,0,0-.4.5-.8.5-.4,1.2-.7,2.1-.8.9,0,1.7.3,2.1.7.5.4.6.7.5.8Z"/>
      <path class="cls-5" d="M135.4,180.3c0,0,.8-.3,2-.5.3,0,.6-.1.7-.4,0-.2,0-.6-.3-.9-.3-.8-.7-1.6-1.1-2.4-1.5-3.4-2.6-6.2-2.5-6.3.1,0,1.5,2.7,3,6.1.4.8.7,1.6,1.1,2.4.1.4.4.8.2,1.3,0,.2-.3.4-.5.5-.2,0-.4,0-.5.1-1.3.1-2.1.2-2.1.1Z"/>
      <path class="cls-8" d="M137.1,195.1s-6.1.7-12.4-2.6c0,0,3.4,6.2,12.5,4.9v-2.3Z"/>
      <path class="cls-8" d="M131.5,183.9c.2-.3.4-.6.7-.8.3-.2.7-.2,1.1,0,.5.1,1.1.3,1.4.8s.5,1,.3,1.5h0c-.2.5-.9.8-1.5.9s-1.1,0-1.6-.4c-.4-.2-.8-.6-.8-1.1,0-.3.2-.6.3-.9Z"/>
      <path class="cls-5" d="M131.8,182.1c.2,0,.3,1.3,1.5,2.2,1.2.9,2.7.7,2.7.9,0,0-.3.3-.9.3-.6,0-1.5,0-2.2-.6-.7-.6-1.1-1.3-1.2-1.9,0-.6,0-.9.1-.9Z"/>
      <path class="cls-5" d="M131,167.6c-.1.3-1.4.3-2.8.5-1.5.2-2.6.7-2.9.4,0-.1,0-.5.6-.8.5-.4,1.2-.7,2.1-.9.9-.1,1.7,0,2.3.1.6.2.8.4.8.6Z"/>
      <path class="cls-5" d="M142.2,165.5c-.2.3-1.2,0-2.4.1-1.2,0-2.2.3-2.4,0-.1-.1,0-.4.5-.7.4-.3,1.1-.6,2-.6.8,0,1.5.2,2,.5.4.3.6.6.5.7Z"/>
      <path class="cls-5" d="M113.5,161.8c.9-1.3,2.4-1.9,3.8-2.4,6.3-2.3,12.8-3.8,19.4-4.5.8,1.4,0,3.2-1.3,4.2-1.3,1-2.9,1.3-4.4,1.8-1.5.5-3,1.4-3.7,2.8-.7,1.5-.2,3.4-.8,5-1,2.7-4.9,3.5-5.9,6.2-.8,2.1.4,4.3.6,6.5.3,2.5-.7,5.1-2.5,6.7-1.4,1.3-3.4,2-5.4,2-.3-7.8-.6-15.7-.9-23.5,0-1.6,0-3.4.8-4.7Z"/>
      <path class="cls-5" d="M97.3,181.2c1.3-1.1,2.8-2,3.4-3.6.8-2.3-1-5,.2-7.1,1.1-1.9,4.3-1.7,5.4-3.7.8-1.5,0-2.9.3-4.2.3-1.3,2.3-2.5,3.6-2.3l10.4,15.7c.9,5.2,1.8,8,.7,11-.6,1.7-1.5,3.3-1.7,5-.3,1.8.1,3.8,1.6,4.8-6.4.4-12.3-3.1-17.8-6.4-1.9-1.2-3.9-2.4-5.8-3.5-.6-.4-1.2-.8-1.6-1.4-.8-1.4.2-3.2,1.5-4.3Z"/>
      <path class="cls-3" d="M103.1,188.9s.2,0,.7.1c.5,0,1.1,0,2-.1.8-.2,1.9-.6,2.8-1.4.9-.8,1.7-2.1,1.9-3.7.1-.8,0-1.6-.2-2.5-.2-.8-.7-1.6-1.1-2.4-.5-.8-1-1.6-1.2-2.5-.2-.9-.2-1.9.4-2.7.6-.8,1.7-.9,2.7-1.3.5-.2,1-.5,1.4-1,.3-.5.5-1.1.5-1.7,0-1.2-.5-2.3-.7-3.3,0-.5-.1-1.1,0-1.6.1-.5.5-1,.9-1.3.9-.6,2.1-.7,3.3-.8,1.1,0,2.3-.3,3.3-.9,1-.6,1.8-1.4,2.3-2.4.5-1,.7-2,.9-3,.2-1,.3-2,.7-2.9.4-.9.9-1.6,1.5-2.2,1.3-1.2,3-1.8,4.5-1.9,1.5,0,2.9.3,3.9.9,1.1.6,1.9,1.3,2.4,1.9,1.1,1.3,1.4,2.2,1.5,2.2,0,0,0,0,0-.2,0-.1-.1-.3-.2-.5-.2-.4-.5-1-1.1-1.7-.6-.7-1.3-1.4-2.4-2-1.1-.6-2.5-1.1-4.1-1-1.6,0-3.3.7-4.7,2-.7.6-1.3,1.4-1.6,2.3-.4.9-.5,1.9-.7,2.9-.2,1-.4,2-.9,2.9-.5.9-1.2,1.7-2.2,2.3-.9.6-2,.8-3.2.8-1.1,0-2.4.1-3.4.9-.5.3-.9.9-1.1,1.5-.2.6-.1,1.2,0,1.8.2,1.2.7,2.2.7,3.3,0,.5-.1,1.1-.4,1.5-.3.4-.7.7-1.2.9-.5.2-1,.3-1.5.5-.5.2-1,.5-1.3.9-.7.9-.7,2-.4,3,.2,1,.8,1.8,1.2,2.6.5.8.9,1.5,1.1,2.3.2.8.3,1.6.2,2.3-.2,1.5-.9,2.8-1.8,3.6-.9.8-1.9,1.2-2.7,1.5-1.7.4-2.6,0-2.6,0Z"/>
      <path class="cls-5" d="M94.7,177.7s-.1.2-.2.5c0,.4,0,1,.2,1.6.2.3.4.6.8.9.4.2.8.4,1.4.4,1,0,2.2-.6,2.8-1.7.3-.6.5-1.2.5-1.9,0-.7-.2-1.4-.4-2.1-.5-1.4-1.4-2.8-1.4-4.4,0-.8.2-1.6.8-2.2.6-.6,1.5-.7,2.3-.7.9,0,1.8.1,2.8-.2.5-.2.9-.5,1.2-.9.3-.4.4-.9.5-1.4.1-1,0-1.9-.2-2.8-.1-.9,0-1.8.2-2.6.5-1.7,1.7-3.1,3.1-3.8,1.4-.8,3-.9,4.5-.9,1.5,0,2.9-.1,4.1-.6,1.2-.4,2.2-1.1,2.9-1.7.7-.7,1.3-1.4,1.6-2,.7-1.2.8-2,.8-2,0,0-.2.8-.9,1.9-.4.6-.9,1.3-1.6,1.9-.7.6-1.7,1.3-2.8,1.7-1.2.4-2.5.5-4,.5-1.4,0-3.1,0-4.6.9-1.5.8-2.7,2.3-3.2,4-.3.9-.3,1.8-.2,2.8.1.9.3,1.9.2,2.8-.1.9-.6,1.7-1.4,2-.8.3-1.7.2-2.6.2-.9,0-1.9.1-2.6.8-.7.7-.9,1.6-.9,2.4,0,.9.2,1.7.5,2.4.3.7.6,1.4.9,2.1.3.7.4,1.4.4,2,0,.7-.2,1.3-.4,1.8-.5,1.1-1.7,1.6-2.6,1.6-.5,0-.9-.1-1.3-.3-.3-.2-.6-.5-.8-.8-.3-.6-.4-1.2-.3-1.5,0-.4.2-.5.1-.5Z"/>
      <path class="cls-5" d="M162,182.9c0,0,.3.6,0,1.7-.2.5-.6,1.1-1.4,1.3-.7.2-1.7,0-2.3-.7-.3-.3-.5-.8-.5-1.3,0-.5,0-1.1.3-1.6.4-1.1,1.1-2.2,1-3.7,0-1.4-.7-2.8-1.9-3.7-.6-.5-1.2-.8-2-1.1-.7-.3-1.5-.3-2.3-.4-.8,0-1.5,0-2.2-.3-.7-.2-1.3-.5-1.7-1.1-.4-.6-.6-1.2-.6-1.9,0-.7,0-1.3.2-2,.3-1.3.7-2.5.6-3.7,0-1.2-.5-2.3-1.1-3.1-.6-.8-1.4-1.4-2-1.8-.7-.4-1.2-.8-1.6-1.2-.8-.7-1-1.4-1-1.4,0,0,0,0,0,.1,0,0,0,.2.1.3.1.3.4.7.8,1,.4.4,1,.8,1.6,1.2.6.5,1.4,1,2,1.8.6.8,1,1.8,1,3,0,1.2-.4,2.3-.7,3.6-.2.6-.3,1.3-.2,2.1,0,.7.2,1.5.6,2.1.4.6,1.2,1.1,1.9,1.3.7.2,1.5.2,2.3.3.8,0,1.5.1,2.2.4.7.2,1.3.6,1.9,1,1.1.9,1.7,2.2,1.8,3.5,0,1.3-.6,2.4-.9,3.5-.2.6-.3,1.2-.3,1.7,0,.6.2,1.1.6,1.5.7.8,1.8,1,2.6.7.8-.3,1.2-.9,1.4-1.5.2-.5.2-1,0-1.3,0-.3-.2-.4-.2-.4Z"/>
    </g>
    <g>
      <g>
        <path class="cls-1" d="M227.4,185.5c.9,1.3-1.9,2.9-1.9,2.9.7.5.3,3-.9,3.2.5.3.9.3,1.2.9.3.6.3,1.3,0,1.8-.3.6-1,.9-1.6.8.7.7.9,1.8.5,2.7-.3.5-.7,1-1.3,1.2-.3.1-.6.2-.9.2-.1,0-.2,0-.3,0,0,0,0,0-.1,0-.2-.2-.3-.3-.5-.5,0,0-.1-.1-.2-.2-.4-.2-.7-.4-1.1-.5-.2,0-.4,0-.6-.2-.1,0-.2-.2-.3-.2-.7-.5-1.5-.6-2.3-.7-.9-.2-1.8-.4-2.4-1-.6-.6-.8-1.8-.2-2.4-.6,0-1-.6-1.1-1.1,0-.6.3-1.1.8-1.4.5-.3,1.1-.4,1.6-.4-.7-.1-1.1-.9-.9-1.5.1-.7.7-1.2,1.3-1.4.6-.2,1.3-.2,2-.1.7,0,3.4.3,4.1.3l.5-1.8v-.2c1.3-.3,1.6-.4,2.7-.6.8-.1,1.6-.2,1.9.4Z"/>
        <path class="cls-1" d="M222.6,201.6c-.1.5-.3,1.1-.8,1.4-.6.3-1.8.1-2.4,0,0,0,.3-1.9.3-1.9v-.5c-.1-.4-.9-.5-1.3-.7-.6-.4-.8-1.4-.4-2,.4-.6,1.2-.9,2-.8.7.1,1.4.6,1.8,1.2.7.9,1,2.2.8,3.3Z"/>
        <path class="cls-8" d="M224.5,195.2c0-.1-2.2-.6-5-1.1-2.8-.5-5-.7-5.1-.6,0,.1,2.2.6,5,1.1,2.8.5,5,.7,5.1.6Z"/>
        <path class="cls-8" d="M224.8,191.6c0-.1-2-.8-4.5-1.1-2.5-.3-4.6-.3-4.6-.1,0,.1,2.1.3,4.6.6,2.5.3,4.5.7,4.6.6Z"/>
      </g>
      <path class="cls-8" d="M225.1,188.2c0-.1-1.6-.6-3.7-.8-2.1-.2-3.8-.2-3.8-.1,0,.1,1.7.4,3.8.6,2.1.2,3.8.4,3.8.3Z"/>
      <path class="cls-8" d="M222.5,200.4c0,0,.2-.3,0-.9-.1-.6-.6-1.3-1.3-1.7-.7-.5-1.4-.7-2-.8-.6,0-.9.3-.8.4,0,0,.3-.1.8,0,.4.2,1.1.5,1.8.9.6.4,1,.9,1.2,1.4.2.4.2.8.3.8Z"/>
    </g>
    <g>
      <path class="cls-3" d="M117.3,198.8c-5.8,5.3-9.7,7.3-10.4,12.7-.5,3.5-.2,9.2,1.5,14.2,3.1,9.3,7.1,20.2,9.6,25.4.9,1.9,1,4,.4,6-1.4,4.6-5,13.2-4.4,30.8l54.1-3.8s-9.4-21.7-11.5-32.5c-.3-1.3,1.2-16.9.5-20-2.6-11.5-15.1-22.9-19.2-29l-.5-2-19.8-3.3-.4,1.3Z"/>
      <g class="cls-13">
        <path class="cls-6" d="M117.1,245.5s6.7,14,10.1,15.3c3.3,1.3,31.1-2.5,31.1-2.5l-1.7-6.6-39.5-6.3Z"/>
      </g>
      <path class="cls-5" d="M141.4,207.3s.4.3.9.8c.6.5,1.3,1.4,2.2,2.5,1.8,2.1,4,5.4,6.5,8.8,2.5,3.5,4.3,7,5.2,9.6.5,1.3.7,2.4.8,3.2.1.8.2,1.2.1,1.2,0,0-.3-1.7-1.3-4.3-1-2.6-2.8-6-5.3-9.5-2.5-3.5-4.6-6.7-6.4-8.9-.9-1.1-1.6-2-2.1-2.5-.5-.6-.8-.9-.8-.9Z"/>
    </g>
    <g>
      <path class="cls-3" d="M110.3,205s-11.7,7.8-4.7,21.5c6.3,12.2,16.4,27.1,20.5,29.5,4.1,2.3,48.3-7.2,48.3-7.2l-1.4-17.1-38,8-10.9-20.4s-4.3-17.2-13.9-14.3Z"/>
      <g>
        <g>
          <path class="cls-1" d="M173.3,234.1s.4-1.8,3.7-4c3.3-2.2,4.1-4,4.7-5s1.6-2.8,2.5-2.3c.9.5.8,1.9.1,4.1-.6,2.2-2.5,4-1.8,4.8s10.7-.2,13.7-.8c2.9-.6,4.3-.3,3.9,1.1-.4,1.4-9.5,1.8-10.1,3.1s.3,1,1.4,1.4c1,.4,10.8-.7,11,1.1.2,1.8-1.1,1.8-1.1,1.8,0,0,.3,2.1-1.3,2.7s-11.5-.6-11.2.6,8,1.9,8.2,3.8c.2,2-1.7,1.2-3.7.8s-6.1-1.4-9.4-1.5c-3.3,0-9.7-.6-9.7-.6l-.9-11.4Z"/>
          <path class="cls-10" d="M201.4,239.8c0,.1-3,.1-6.6,0-3.7-.2-6.6-.4-6.6-.6,0-.1,3-.1,6.6,0,3.7.2,6.6.4,6.6.6Z"/>
        </g>
        <path class="cls-5" d="M132.3,245.5c-.1,0,0-1.5.8-3.1.9-1.6,2.1-2.5,2.2-2.4.1.1-.9,1.1-1.7,2.6-.8,1.5-1.1,2.9-1.3,2.8Z"/>
        <path class="cls-5" d="M121.9,215.3s.1.1.3.4c.2.3.4.7.8,1.2.6,1.1,1.6,2.7,2.7,4.8,2.3,4.2,5.7,10.3,9.6,17.8h-.2c10.5-2.3,23.6-5.1,38-8.2h.3c0,0,0,.2,0,.2.4,5.5.9,11.2,1.4,17h0c0,0,0,.3,0,.3h-.2c-11.3,2.5-22.1,4.6-32,6.2-2.5.4-4.9.7-7.2,1-2.4.3-4.7.5-6.9.5-.6,0-1.1,0-1.7-.2-.3,0-.6-.2-.8-.3l-.7-.5c-.5-.3-.8-.7-1.2-1.1-.4-.4-.8-.7-1.1-1.1-.7-.8-1.4-1.5-1.9-2.3-.6-.8-1.2-1.6-1.7-2.3-4.4-6.2-7.4-11.5-9.5-15.2-1-1.8-1.8-3.3-2.3-4.3-.2-.5-.4-.8-.6-1.1-.1-.3-.2-.4-.2-.4,0,0,0,.1.2.4.2.3.4.6.6,1.1.6,1,1.4,2.4,2.4,4.2,2.2,3.6,5.2,8.9,9.6,15.1.6.8,1.1,1.5,1.7,2.3.6.8,1.3,1.5,1.9,2.3.3.4.7.7,1.1,1.1.4.4.7.7,1.2,1l.6.5c.1,0,.2.1.3.2.1,0,.2,0,.4.1.5.1,1.1.1,1.6.2,2.2,0,4.5-.2,6.8-.5,2.3-.3,4.8-.6,7.2-1,9.9-1.6,20.7-3.7,31.9-6.1l-.2.3h0c-.5-5.9-.9-11.6-1.4-17.1l.3.2c-14.5,3-27.5,5.8-38,7.9h-.1s0-.1,0-.1c-3.9-7.6-7.2-13.7-9.4-17.9-1.1-2.1-2-3.7-2.6-4.9-.3-.5-.5-1-.7-1.3-.2-.3-.2-.4-.2-.4Z"/>
      </g>
    </g>
  </g>
</svg>