<?xml version="1.0" encoding="UTF-8"?>
<svg xmlns="http://www.w3.org/2000/svg" version="1.1" viewBox="0 0 500 500">
  <defs>
    <style>
      .cls-1 {
        fill: #ff725e;
      }

      .cls-1, .cls-2, .cls-3, .cls-4, .cls-5, .cls-6, .cls-7, .cls-8, .cls-9, .cls-10 {
        stroke-width: 0px;
      }

      .cls-2 {
        fill: #ffbf9d;
      }

      .cls-3 {
        fill: #e0e0e0;
      }

      .cls-4 {
        fill: #ff9a6c;
      }

      .cls-5 {
        fill: #000;
      }

      .cls-6 {
        fill: #455a64;
      }

      .cls-7 {
        fill: #263238;
      }

      .cls-11 {
        opacity: .3;
      }

      .cls-8 {
        fill: #ebebeb;
      }

      .cls-9 {
        fill: #fff;
      }

      .cls-12 {
        display: none;
      }

      .cls-10 {
        fill: #f5f5f5;
      }
    </style>
  </defs>
  <g id="Background_Complete" data-name="Background Complete">
    <g>
      <path class="cls-3" d="M378.9,371.4c-5.7-6.7-13.5-10.7-18.9-12.2-5.1-1.4-12.8-2.7-20.7-.8-4.9,1.2-9.2,3.5-12.7,6.8-4.2,4-7.4,9.4-9.5,16.2-.3,1-.2,2.1.3,3,.5.9,1.4,1.6,2.4,1.9l13.4,3.8c1.9.5,3.9-.4,4.7-2.2,1.8-4,6.2-10.4,16.3-7.7,7.7,2,9.2,8.4,9.6,11.1.5,4.3-1.2,8.8-4.6,12-5.2,4.9-12,3.9-15.6,2.9-4.1-1.1-8.4,1.3-9.6,5.3l-4,14.4c-.6,2.1.6,4.3,2.7,4.9l13,3.7c2.1.6,4.3-.6,4.9-2.7l.8-3c0,0,0-.1.2-.1,3.2-.2,9.7-1.1,16.2-4.8,8.4-4.7,14.1-12.2,17-22.3,4.1-14.4-.9-24.4-5.8-30.1Z"/>
      <path class="cls-3" d="M338.8,436.4l-1.1-.3c-5.4-1.5-11.1,1.6-12.6,7.1s1.6,11.1,7.1,12.6l1.1.3c5.4,1.5,11.1-1.6,12.6-7.1s-1.6-11.1-7.1-12.6Z"/>
    </g>
    <g>
      <path class="cls-10" d="M407.6,291.8c-3.9-2.2-8.4-2.6-11.3-2.4s-6.6,1-10.1,3.4c-2.1,1.5-3.7,3.3-4.8,5.6-1.3,2.7-1.8,5.9-1.6,9.5,0,.5.3,1,.7,1.4.4.4,1,.5,1.5.5l7.1-.6c1,0,1.8-.9,1.8-1.9.1-2.3,1.1-6.1,6.4-6.7,4-.4,6,2.3,6.6,3.5,1,2,1.1,4.4,0,6.6-1.6,3.3-5,4.1-6.9,4.3-2.2.2-3.8,2.1-3.6,4.3l.7,7.6c.1,1.1,1.1,1.9,2.2,1.8l6.9-.6c1.1-.1,1.9-1.1,1.8-2.2v-1.6c-.1,0-.1,0,0,0,1.5-.7,4.4-2.3,6.9-5.3,3.2-3.8,4.5-8.4,4-13.8-.7-7.7-4.9-11.5-8.3-13.4Z"/>
      <path class="cls-10" d="M400.3,330.3h-.6c-2.9.3-5,2.9-4.8,5.8.3,2.9,2.8,5,5.7,4.8h.6c2.9-.3,5-2.9,4.8-5.8-.3-2.9-2.8-5-5.7-4.8Z"/>
    </g>
    <g>
      <path class="cls-10" d="M123.9,129.1c-2.7-2.6-6.1-4-8.5-4.5s-5.6-.7-8.8.4c-2,.7-3.8,1.8-5.2,3.4-1.6,1.8-2.8,4.3-3.5,7.3,0,.4,0,.9.2,1.3.3.4.6.6,1.1.7l5.8,1.1c.8.2,1.6-.3,1.9-1.1.6-1.8,2.3-4.7,6.6-3.9,3.3.6,4.3,3.2,4.5,4.4.4,1.8-.2,3.8-1.5,5.3-2,2.3-5,2.1-6.5,1.8-1.8-.3-3.5.9-3.9,2.6l-1.2,6.3c-.2.9.4,1.8,1.3,2l5.7,1.1c.9.2,1.8-.4,2-1.3l.2-1.3s0,0,0,0c1.4-.2,4.1-.8,6.7-2.6,3.4-2.3,5.6-5.7,6.4-10.1,1.2-6.3-1.3-10.3-3.6-12.6Z"/>
      <path class="cls-10" d="M109.2,158.3h-.5c-2.4-.5-4.7,1-5.1,3.4s1.1,4.7,3.5,5.1h.5c2.4.5,4.7-1,5.1-3.4s-1.1-4.7-3.5-5.1Z"/>
    </g>
    <g>
      <path class="cls-8" d="M397,131.1c-3.9-2.2-8.4-2.7-11.3-2.4s-6.6,1-10.1,3.4c-2.1,1.5-3.8,3.3-4.9,5.6-1.3,2.7-1.8,5.9-1.6,9.5,0,.5.3,1,.7,1.4.4.4,1,.5,1.5.5l7.1-.6c1,0,1.8-.9,1.8-1.9.1-2.2,1.1-6.1,6.4-6.7,4-.4,6,2.4,6.6,3.6,1,2,1,4.4,0,6.6-1.6,3.3-5,4.1-6.9,4.2-2.2.2-3.8,2.1-3.6,4.3l.7,7.6c0,1.1,1.1,1.9,2.2,1.8l6.9-.6c1.1,0,1.9-1.1,1.8-2.2v-1.6c-.1,0-.1,0,0,0,1.5-.7,4.4-2.3,6.9-5.2,3.2-3.8,4.6-8.4,4.1-13.8-.7-7.7-4.9-11.5-8.3-13.4Z"/>
      <path class="cls-8" d="M389.6,169.5h-.6c-2.9.3-5,2.9-4.8,5.7.3,2.9,2.8,5,5.7,4.8h.6c2.9-.3,5-2.9,4.8-5.7s-2.8-5-5.7-4.8Z"/>
    </g>
    <g>
      <path class="cls-8" d="M184,361.5c-4.9-2.3-10.4-2.6-13.8-2s-7.9,1.7-11.9,4.8c-2.5,1.9-4.3,4.3-5.4,7.1-1.4,3.3-1.8,7.2-1.2,11.6,0,.7.4,1.2,1,1.6.5.4,1.2.6,1.9.5l8.5-1.3c1.2-.2,2.1-1.2,2.1-2.5,0-2.7.9-7.5,7.2-8.6,4.8-.8,7.4,2.4,8.2,3.8,1.4,2.3,1.6,5.3.5,7.9-1.7,4.1-5.8,5.3-8.1,5.6-2.6.4-4.4,2.9-4,5.5l1.4,9.2c.2,1.3,1.5,2.3,2.8,2.1l8.3-1.3c1.3-.2,2.3-1.5,2.1-2.8l-.3-1.9s0,0,0-.1c1.8-.9,5.2-3.1,8-6.9,3.6-4.8,4.9-10.5,3.9-16.9-1.4-9.2-6.8-13.5-11-15.5Z"/>
      <path class="cls-8" d="M178,408.6h-.7c-3.5.6-5.9,3.9-5.3,7.4.5,3.5,3.8,5.9,7.3,5.3h.7c3.5-.6,5.9-3.9,5.3-7.4s-3.8-5.9-7.3-5.3Z"/>
    </g>
    <g>
      <path class="cls-8" d="M109.3,188.2c-6.9-3.2-14.6-3.6-19.4-2.8-4.6.7-11.2,2.5-16.7,6.8-3.4,2.7-6,6.1-7.6,10-1.9,4.7-2.5,10.2-1.7,16.3.1.9.6,1.7,1.3,2.3.8.6,1.7.8,2.6.7l12-1.9c1.7-.3,2.9-1.7,2.9-3.5,0-3.8,1.2-10.5,10.1-12,6.8-1.2,10.4,3.3,11.6,5.3,2,3.2,2.3,7.4.7,11.1-2.4,5.7-8.1,7.4-11.3,8-3.7.6-6.2,4-5.7,7.7l2,12.9c.3,1.9,2.1,3.2,3.9,2.9l11.6-1.8c1.9-.3,3.2-2.1,2.9-3.9l-.4-2.7c0,0,0-.1,0-.2,2.5-1.3,7.3-4.4,11.2-9.7,5-6.8,6.8-14.8,5.4-23.8-2-12.9-9.6-19-15.5-21.8Z"/>
      <path class="cls-8" d="M101,254.3l-1,.2c-4.9.8-8.2,5.3-7.5,10.2s5.3,8.2,10.2,7.5l1-.2c4.9-.8,8.2-5.3,7.5-10.2s-5.3-8.2-10.2-7.5Z"/>
    </g>
  </g>
  <g id="Background_Simple" data-name="Background Simple" class="cls-12">
    <path class="cls-10" d="M74.2,295.6l1.4-1.1c11.8-9.2,27.8-11.5,41.3-5.3,1.7.8,3.4,1.7,5,2.8,11.6,7.5,19,21.2,18.9,35.2,0,8.2-2.5,16.8.5,24.4,3.8,9.9,14.9,14.4,24.9,17.9,10,3.4,21.1,8,24.9,17.9,2.3,6.2,1.1,13.4-1.6,19.5-7.2,16.2-24.3,26.6-41.8,28.4-17.5,1.8-35-4.1-49.8-13.5-20.8-13.1-37.4-33.7-43-57.8-5.5-24.1,1.2-51.6,19.4-68.4Z"/>
    <path class="cls-10" d="M442.3,182.3l-1.3,1.2c-11.2,10-27,13.2-40.9,8-1.8-.7-3.5-1.5-5.2-2.4-12.1-6.7-20.3-19.9-21.1-33.9-.5-8.2,1.4-16.9-2-24.3-4.4-9.7-15.8-13.4-26-16.2-10.2-2.8-21.6-6.6-26-16.3-2.7-6.1-2-13.3.3-19.6,6.1-16.7,22.6-28.2,39.9-31.1,17.3-2.9,35.2,1.8,50.6,10.2,21.6,11.7,39.5,31.2,46.7,54.9,7.1,23.7,2.2,51.5-14.9,69.5Z"/>
    <circle class="cls-10" cx="89.7" cy="232.8" r="33"/>
    <circle class="cls-10" cx="420.8" cy="260.1" r="33"/>
  </g>
  <g id="Speech_Bubble" data-name="Speech Bubble">
    <g>
      <g>
        <path class="cls-9" d="M277.7,106.7l9,1.5c4.4,5.3,10.5,9.3,17.8,11.3,17.2,4.6,35.3-4.9,41.5-21.5,7.1-19.2-3.8-40.5-23.7-45.8-17-4.5-34.9,4.6-41.3,21-3.2,8.1-3.1,16.6-.4,24.1h0s-2.8,9.4-2.8,9.4Z"/>
        <path class="cls-7" d="M277.7,106.7s0-.2.2-.6c.1-.4.3-1,.5-1.8.5-1.6,1.2-4,2.1-7v-.2c0,0,.2.2.2.2h0s-.2.1-.2.1c-1.4-4.1-2.7-9.9-1.6-16.7.5-3.4,1.6-7,3.4-10.6,1.8-3.6,4.3-7,7.6-10,3.3-3,7.4-5.5,12-7.1,4.6-1.6,9.7-2.4,15-1.9,5.2.5,10.5,2.2,15.2,5.2,4.7,2.9,8.8,7.1,11.7,12.1,1.5,2.5,2.6,5.2,3.4,7.9.2.7.3,1.4.5,2.1.1.7.4,1.4.4,2.1,0,.7.2,1.4.3,2.1v1c.1,0,.1,1.1.1,1.1.2,5.6-1,11.1-3.2,15.9-2.2,4.8-5.5,8.9-9.3,12.1-3.8,3.2-8,5.4-12.3,6.8-4.3,1.3-8.6,1.7-12.6,1.5-1-.1-2-.2-2.9-.3-1-.1-1.9-.4-2.8-.6-1.8-.4-3.5-1-5.1-1.6-6.4-2.6-10.8-6.6-13.5-9.9h0c-2.9-.5-5.2-.9-6.7-1.1-.7-.1-1.3-.2-1.7-.3-.4,0-.6-.1-.6-.1,0,0,.2,0,.6,0,.4,0,1,.2,1.8.3,1.5.2,3.8.6,6.7,1.1h0s0,0,0,0c2.7,3.2,7.1,7.2,13.5,9.8,1.6.6,3.3,1.2,5.1,1.6.9.2,1.8.4,2.8.6,1,.1,1.9.2,2.9.3,4,.3,8.2-.2,12.5-1.5,4.2-1.3,8.4-3.6,12.2-6.7,3.7-3.1,7-7.1,9.1-11.9,2.1-4.8,3.3-10.1,3.1-15.7v-1s-.1-1-.1-1c0-.7-.2-1.4-.3-2.1,0-.7-.3-1.4-.4-2.1-.2-.7-.3-1.4-.5-2.1-.9-2.7-1.9-5.4-3.4-7.8-2.9-4.9-6.8-9.1-11.5-11.9-4.6-2.9-9.8-4.6-15-5.1-5.1-.6-10.2.2-14.8,1.8-4.5,1.6-8.6,4.1-11.9,7-3.3,3-5.8,6.4-7.6,9.9-1.8,3.5-2.9,7.1-3.4,10.5-1.1,6.8.1,12.5,1.5,16.6l.3.7-.4-.6h0s.2,0,.2,0c-.9,3-1.7,5.3-2.2,6.9-.2.8-.4,1.4-.6,1.8-.1.4-.2.6-.2.6Z"/>
      </g>
      <g>
        <path class="cls-1" d="M320.8,69.8c-2.7-1.8-5.8-2.4-7.9-2.4s-4.8.3-7.4,1.8c-1.6.9-2.9,2.2-3.8,3.7-1.1,1.8-1.7,4.1-1.7,6.7,0,.4.1.8.4,1,.3.3.6.4,1,.4h5.1c.7,0,1.3-.6,1.4-1.3.2-1.6,1.1-4.3,4.9-4.4,2.9,0,4.1,2,4.5,2.9.6,1.5.5,3.2-.4,4.7-1.3,2.2-3.8,2.6-5.2,2.6-1.6,0-2.8,1.3-2.8,2.9v5.5c0,.8.7,1.4,1.5,1.4h4.9c.8,0,1.4-.7,1.4-1.5v-1.1s0,0,0,0c1.1-.4,3.3-1.4,5.2-3.3,2.5-2.5,3.7-5.7,3.7-9.6,0-5.5-2.8-8.5-5.1-10Z"/>
        <path class="cls-1" d="M313.3,96.7h-.4c-2.1,0-3.7,1.7-3.7,3.8s1.7,3.7,3.8,3.7h.4c2.1,0,3.7-1.7,3.7-3.8s-1.7-3.7-3.8-3.7Z"/>
      </g>
    </g>
  </g>
  <g id="Character">
    <g>
      <path class="cls-1" d="M327,151.7c-23.6-15.9-51.7-21.5-70.1-21.5s-42.6,2.7-65.5,15.7c-14.3,8-25.6,19-33.8,32.7-9.7,16.1-14.9,36.1-15.6,59.4,0,3.5,1.2,6.8,3.6,9.3,2.4,2.5,5.7,3.9,9.2,3.9h45.2c6.4,0,11.9-4.8,12.7-11.1,2-14.2,10.4-38,44.2-38.6,25.8-.4,36.4,18.2,39.8,26.2,5.5,13.1,4.1,28.6-3.7,41.5-12,19.8-34.1,22.9-46.3,22.9-13.9,0-25.3,11.4-25.3,25.2v48.6c0,7.1,5.8,12.9,12.9,12.9h44c7.1,0,12.9-5.8,12.9-12.9v-10.2c0-.2.2-.5.4-.5,10-3.5,29.3-12,46.7-29.3,22.2-22.1,33.5-50.6,33.5-84.8,0-48.9-24.4-75.6-44.9-89.3Z"/>
      <path class="cls-7" d="M255.4,401.4h3.6c17.5,0,31.7,14.2,31.7,31.7,0,17.5-14.2,31.7-31.7,31.7h-3.6c-17.5,0-31.7-14.2-31.7-31.7,0-17.5,14.2-31.7,31.7-31.7Z"/>
      <g>
        <path class="cls-7" d="M234.3,388.1h44c7.1,0,12.9-5.6,12.9-12.5v-19.9c0-.2.2-.4.4-.5,5.2-1.8,12.5-5,20.7-10.1-28.1-.2-79.4-.5-90.8,0v30.5c0,6.9,5.8,12.5,12.9,12.5Z"/>
        <g>
          <g>
            <path class="cls-2" d="M270.5,167.9l-28.2-82c-6-20.5-22.9-34.2-43.2-27.6l-1.8.7c-18.6,7.2-28.5,27.4-22.9,46.5,5.3,17.8,11.3,37.3,15,46.5,7.6,19,27.6,13.7,27.6,13.7,0,0,4.4,12.7,6.4,18.4l10.3,10.2,4.3-4.7,32.6-21.8Z"/>
            <path class="cls-4" d="M216.9,165.7s12.3-4,22.1-17c0,0-.4,16.7-20.2,22.4l-1.9-5.4Z"/>
            <path class="cls-7" d="M188.1,118.4c.5,1.5,2.2,2.2,3.7,1.7,1.5-.5,2.4-2.1,1.9-3.6-.5-1.5-2.2-2.2-3.7-1.7-1.5.5-2.4,2.1-1.9,3.6Z"/>
            <path class="cls-7" d="M181.3,111.4c.5.2,2-2.1,4.9-3.2,2.9-1.2,5.7-.5,5.8-1,0-.2-.5-.7-1.7-1.1-1.2-.3-3-.4-4.9.3-1.8.7-3.1,2-3.7,3-.6,1-.7,1.8-.5,1.9Z"/>
            <path class="cls-7" d="M212.7,108.7c.5.2,2-2.1,4.9-3.2,2.9-1.2,5.7-.5,5.8-1,0-.2-.5-.7-1.7-1.1-1.2-.3-3-.4-4.9.3-1.8.7-3.1,2-3.7,3-.6,1-.7,1.8-.5,1.9Z"/>
            <path class="cls-7" d="M208.6,127.6c0-.2-2,.2-5.1,1-.8.2-1.5.3-1.9-.1-.4-.5-.4-1.4-.4-2.4,0-2.1,0-4.3,0-6.6,0-9.3-.4-16.9-.8-16.9-.4,0-.6,7.6-.6,16.9,0,2.3,0,4.5,0,6.6,0,1,0,2.1.7,3.1.4.5,1.1.7,1.7.6.5,0,1-.2,1.3-.3,3-1,4.9-1.7,4.8-1.9Z"/>
            <path class="cls-7" d="M205.9,92.1c.7.6,3.2-1.3,6.7-2.7,3.4-1.5,6.5-2,6.6-2.9,0-.4-.8-.9-2.3-1-1.4-.1-3.5.1-5.6,1-2.1.9-3.7,2.2-4.6,3.3-.9,1.1-1.2,2.1-.9,2.4Z"/>
            <path class="cls-7" d="M177.9,102.8c.9.4,3-1.1,5.9-2.2,2.8-1.2,5.5-1.5,5.8-2.4.1-.4-.5-1-1.8-1.2-1.3-.2-3.2-.1-5.2.7-2,.8-3.5,2-4.2,3.1-.8,1.1-.8,1.9-.5,2.1Z"/>
            <path class="cls-2" d="M245.9,99.7c.3-.3,11.6-9,16.3,4.3,4.6,13.2-9.6,15.2-9.8,14.8-.2-.4-6.5-19.1-6.5-19.1Z"/>
            <path class="cls-4" d="M254.7,112.4c0,0,.3,0,.7.1.4,0,1.1,0,1.7-.6,1.2-1,1.6-3.6.8-6-.4-1.2-1-2.3-1.8-3.1-.7-.8-1.6-1.3-2.4-1.2-.8,0-1.1.7-1.1,1.1,0,.4.1.7,0,.7,0,0-.4-.1-.4-.7,0-.3,0-.6.2-1,.2-.4.6-.7,1.2-.8,1-.3,2.3.3,3.1,1.2.9.9,1.7,2,2.1,3.4.8,2.7.4,5.7-1.4,6.9-.8.6-1.7.6-2.2.4-.5-.2-.7-.5-.7-.5Z"/>
            <path class="cls-7" d="M218.6,126.3c-.5.1.5,3.2-1.3,6.2-1.9,3-5.3,3.8-5.1,4.2,0,.2.9.4,2.3,0,1.4-.4,3.2-1.5,4.3-3.4,1.2-1.9,1.2-3.9.9-5.2-.3-1.3-.9-2-1.1-1.9Z"/>
          </g>
          <g>
            <path class="cls-7" d="M141.3,96.2c0-.9.3-1.7.8-2.4,1.2-1.4,3-1.9,4.7-2.5,4.2-1.5,8-4.1,11-7.3-1.5-.2-3-.6-4.4-1.2-2.9-1.4-5.3-4.2-5.3-7.4,0-.6.1-1.3.6-1.6.8-.6,1.8,0,2.7.5,2.7,1.5,4.9,1.8,7.7.5,1.8-.8,3.4-1.9,4.5-3.3,0,0,0-.2.1-.2.4-1,.9-1.9,1.3-2.8,0,0,0,0,0,0h0c3.2-6.7,6.3-11.6,10.1-14.9,5.5-4.9,16-9.7,23.3-10.3,7.4-.6,15.3,2.7,18.7,9.3,2.7-4.5,8.3-6.5,13.6-6.3h0c5.8,0,10.6,4.3,13.9,9,.2.3.4.5.5.8,2.7,2.1,5.9,3.7,9.3,4.3.6.1,1.3.3,1.6.8.3.5,0,1.2-.4,1.7-.9,1.3-2.1,2.4-3.5,3.2.9,1.1,1.9,2.1,3,3,.9.8,2,1.7,1.9,2.9-.1.9-1,1.6-1.9,1.8-.9.2-1.9,0-2.8-.2,1.1,1.2,2.1,2.3,3.2,3.5-1.7,1-3.7,1.5-5.7,1.6.6,5.3,3,14.6,2.9,18.4-3.5,1.3-4.5,1.2-6,2.4-2,1.6.3,5.3-3.1,5.2-1.7,0-6.1-5-7.1-6.4-7-9.1-12-19.7-14.5-30.8-2.9-1.5-6.1-2.5-9.4-2.8h.3c-6.1.2-12.8.5-17.1,4.8-3.3,3.4-4.2,8.3-6,12.7-3.4,8.2-8.7,13.8-16.9,17.2,1.3,6.1,4.4,15.7,6.1,21.3l-8.5-9.3h0c-.6-.5-1.1-1-1.7-1.5l-.2-.2h0c-.8-.9-1.7-1.8-2.6-2.6,0,0,0,0,0,0-2,3.6-7.8,1.2-6.6-2.8.2-.8.6-1.5,1.1-2.2-.9,1.7-2.7,3.1-4.7,3.1-2,0-4-1.2-4.5-3.1-.3-1.3.2-2.7,1.1-3.6-2.3,1-4.9,1.4-7.4.9-1.6-.3-3.4-1.1-3.6-3Z"/>
            <path class="cls-6" d="M211.8,56.7c0,0,1,.2,2.6,1.1,1.6.9,3.6,2.6,5.2,5.4.8,1.4,1.6,3,2.2,4.7.6,1.8,1.2,3.7,1.7,5.8.6,2.1,1.2,4.2,2.1,6.4.5,1.1,1,2.2,1.6,3.2.6,1,1.3,2.1,2.5,2.8.9.5,2.2.5,3.1,0,.9-.5,1.6-1.3,2-2.3.7-1.9.4-3.8.1-5.6l-.4.2c1.2,1.2,2.4,2.4,3.8,3.2,1.4.8,3,1.1,4.5.7.7-.2,1.4-.5,1.9-1.1.5-.5.8-1.2.9-1.8,0-.6,0-1.3-.2-1.9-.2-.6-.7-1-1.2-1.3v.3c2,1.2,3.9,1.5,5.1,1.7.6,0,1.1,0,1.5,0,.3,0,.5,0,.5,0,0,0-.2,0-.5,0-.3,0-.8,0-1.4-.1-1.2-.2-3.1-.6-5.1-1.8v.3c.8.5,1.2,1.7,1,2.8-.1.6-.4,1.2-.8,1.6-.4.4-1,.8-1.7.9-1.3.3-2.9,0-4.2-.7-1.3-.8-2.5-1.9-3.7-3.2l-.5-.5v.7c.4,1.7.7,3.6,0,5.3-.3.8-1,1.6-1.8,2-.8.5-1.8.5-2.6,0-1-.6-1.7-1.6-2.3-2.6-.6-1-1.1-2.1-1.6-3.1-.9-2.1-1.5-4.3-2.1-6.3-.6-2.1-1.1-4-1.8-5.8-.7-1.8-1.5-3.4-2.3-4.8-1.7-2.8-3.8-4.5-5.4-5.4-1.6-.8-2.7-.9-2.7-.9Z"/>
            <path class="cls-6" d="M158.5,96.7s0,0,.2,0c.2,0,.4.1.6.2.3,0,.6.2,1,.2.4,0,.9.2,1.4.2,2.1.2,5.3,0,8.8-1.4,3.5-1.5,7.3-4.2,10.2-8.4,2.9-4.1,4.8-9.4,6-15.1.6-2.8.9-5.7,1.4-8.3.5-2.7,1.1-5.2,2.3-7.4,1.1-2.2,2.6-4.1,4.4-5.4.9-.6,1.9-1.1,2.8-1.4,1-.3,1.9-.4,2.9-.4,1.9,0,3.5.4,4.9,1,1.4.6,2.4,1.4,3.2,2.1,1.5,1.5,2,2.6,2,2.6,0,0,0,0,0-.2,0-.2-.2-.3-.3-.6-.3-.5-.8-1.2-1.5-1.9-.8-.7-1.8-1.5-3.2-2.2-1.4-.6-3.1-1.1-5-1.1-1,0-2,.1-3,.4-1,.3-2,.7-2.9,1.4-1.9,1.3-3.4,3.2-4.6,5.5-1.1,2.3-1.8,4.9-2.3,7.5-.5,2.7-.8,5.5-1.4,8.3-1.1,5.6-3,10.9-5.9,15-2.8,4.1-6.5,6.9-9.9,8.4-3.5,1.5-6.6,1.7-8.7,1.6-2.1-.2-3.2-.6-3.2-.5Z"/>
            <path class="cls-6" d="M153.7,88.8s.3.1.9.2c.6.1,1.4.2,2.4.3,1,0,2.3,0,3.6,0,1.4-.2,2.8-.4,4.4-.9,1.5-.5,2.9-1.1,4.1-1.8,1.2-.7,2.2-1.4,3-2,.8-.7,1.4-1.2,1.8-1.7.4-.4.6-.7.6-.7,0,0-.9.9-2.6,2.1-.8.6-1.8,1.3-3,1.9-1.2.6-2.5,1.2-4,1.7-1.5.5-2.9.8-4.3.9-1.3.2-2.5.2-3.6.2-2,0-3.3-.3-3.3-.2Z"/>
          </g>
        </g>
        <path class="cls-7" d="M190,227.4c-.2,0,2.1,11.4,4.3,23.2h.7c-2.2-11.8-4.8-23.2-5-23.2Z"/>
        <path class="cls-6" d="M199.6,251.2c6.4,0,12.3-4.6,13.2-10.9,2-14.1,10.1-38.1,44.1-38.7,25.9-.4,36.8,17.9,39.9,26.1,4.9,13,4.3,28.7-3.6,41.6-12.1,19.8-34.4,22.8-46.6,22.9-14,0-25.4,11.3-25.4,25.2v52.9l70.2-1.3v-13.2c0-.2.2-.5.4-.5,8.6-3,22.1-8.6,37.4-20.9l-4.6-60.9s13.4-25.7,12.7-31.5c-6.1-52.8-24-82.7-31.3-85.5-8.2-3.1-39.8-1.6-39.8-1.6,0,0-13.7,25.3-32.8,28.1-10.7,1.6-14.6-11.8-14.6-11.8l-24.8,14.5c-17.6,8.9-21.1,43.5-21.4,65.6h26.9Z"/>
        <g class="cls-11">
          <path class="cls-5" d="M281,282.3c14.2,3.6,28.1,8.2,42.3,11.8,1.1.3,2.2.6,2.9,1.4,1,1.2.8,3,.3,4.6-1.5,4.9-4.7,9.1-8.5,12.4-3.1,2.7-6.8,5-10.9,5.3-4.6.4-8.9-1.8-12.8-4.2-9.8-6.3-18.2-15.5-23.5-25.9,0,0,3.3-1.4,5.9-2.7s4.3-2.7,4.3-2.7Z"/>
        </g>
        <path class="cls-2" d="M296.5,228c5.7,13.1,4.2,28.6-3.8,41.4-4.5,7.2-10.2,12.3-16.4,15.7,6.7,7.3,13.5,13.7,20.2,18.5,7.2,5.1,23.9,3.7,30.2-7.6,7.8-13.9,8.4-49.3,8.4-49.3l1.5-21.3-43.6-6.7-.3,1.2c1.9,2.8,3,6.1,3.8,8.1Z"/>
        <path class="cls-6" d="M220.6,219l-2.5,3.9c-1.9,1.3-3.7.6-4.8-1.8l-26.8-40.8,6.5-4.2,29.6,39.2s.4,2.1-2,3.8Z"/>
        <g>
          <g>
            <path class="cls-7" d="M158.6,179.6c-5.3-3-9.7-7.5-12.4-13.4-3.4-7.2-3.7-15.4-1-22.8,2.7-7.5,8.2-13.5,15.5-16.8,14.9-6.9,32.7-.4,39.7,14.5h0c3.4,7.2,3.7,15.4,1,22.8-2.7,7.5-8.2,13.5-15.5,16.8-9.1,4.2-19.2,3.5-27.3-1.1ZM187.1,129.3c-7.6-4.3-17-5-25.5-1-6.8,3.1-11.9,8.7-14.4,15.7-2.6,7-2.2,14.6.9,21.3,3.1,6.8,8.7,11.9,15.7,14.4,7,2.6,14.6,2.2,21.3-.9,6.8-3.1,11.9-8.7,14.4-15.7,2.6-7,2.2-14.6-.9-21.3-2.5-5.5-6.7-9.8-11.6-12.5Z"/>
            <path class="cls-6" d="M159.9,178.3c-5.3-3-9.7-7.5-12.4-13.4-3.4-7.2-3.7-15.4-1-22.8,2.7-7.5,8.2-13.5,15.5-16.8,14.9-6.9,32.7-.4,39.7,14.5h0c3.4,7.2,3.7,15.4,1,22.8-2.7,7.5-8.2,13.5-15.5,16.8-9.1,4.2-19.2,3.5-27.3-1.1ZM188.3,128.1c-7.6-4.3-17-5-25.5-1-6.8,3.1-11.9,8.7-14.4,15.7-2.6,7-2.2,14.6.9,21.3,3.1,6.8,8.7,11.9,15.7,14.4,7,2.6,14.6,2.2,21.3-.9,6.8-3.1,11.9-8.7,14.4-15.7,2.6-7,2.2-14.6-.9-21.3-2.5-5.5-6.7-9.8-11.6-12.5Z"/>
          </g>
          <path class="cls-9" d="M199.5,152.7s0-.2,0-.5c0-.3,0-.8,0-1.4,0-1.2-.3-3-1-5-.3-1-.8-2.1-1.3-3.3-.6-1.1-1.2-2.3-2-3.5-.8-1.2-1.7-2.4-2.8-3.5-1.1-1.1-2.3-2.3-3.6-3.2-1.3-1-2.7-1.8-4.1-2.5-1.4-.7-2.8-1.1-4.2-1.5-2.8-.7-5.4-.9-7.6-.8-2.2.1-3.9.5-5.1.8-.6.1-1,.3-1.3.4-.3,0-.5.1-.5.1,0,0,.2,0,.5-.2.3-.1.7-.3,1.3-.5,1.2-.4,2.9-.7,5.1-.9,2.2-.2,4.8,0,7.7.7,1.4.4,2.9.9,4.3,1.5,1.4.7,2.8,1.5,4.2,2.5,1.4,1,2.5,2.1,3.6,3.3,1.1,1.1,2,2.4,2.8,3.6.8,1.2,1.5,2.4,2,3.6.5,1.2,1,2.3,1.3,3.3.6,2.1.9,3.9.9,5.1,0,.6,0,1.1,0,1.4,0,.3,0,.5,0,.5Z"/>
          <path class="cls-9" d="M168.3,177.1c0,0,1.4.4,3.7.7.3,0,.6,0,.9.1.3,0,.6,0,1,0,.7,0,1.4,0,2.2,0,1.5,0,3.2-.3,4.9-.8,1.7-.5,3.3-1.1,4.6-1.8.7-.4,1.3-.7,1.9-1.1.3-.2.6-.4.8-.5.3-.2.5-.4.7-.5,1.8-1.4,2.8-2.6,2.8-2.5,0,0-.2.3-.7.8-.2.2-.5.5-.8.9-.3.3-.7.7-1.2,1-.2.2-.5.4-.7.6-.3.2-.5.4-.8.6-.6.4-1.2.8-1.9,1.1-1.4.7-3,1.4-4.7,1.8-1.7.5-3.4.7-5,.8-.8,0-1.5,0-2.2,0-.3,0-.7,0-1,0-.3,0-.6,0-.9-.1-.6,0-1.1-.2-1.6-.3-.5,0-.8-.2-1.1-.3-.6-.2-1-.3-1-.3Z"/>
          <path class="cls-9" d="M188.8,157.9c0,0-4-3.8-8.7-8.7-4.7-4.9-8.5-8.9-8.5-8.9,0,0,4,3.8,8.7,8.7,4.7,4.9,8.5,8.9,8.5,8.9Z"/>
          <path class="cls-9" d="M184.2,165.8s-.1,0-.3-.3c-.2-.2-.5-.5-.8-.8-.7-.8-1.6-1.8-2.8-3.1-2.3-2.6-5.6-6.2-9.2-10.2-3.6-3.9-7-7.5-9.4-10-1.2-1.3-2.2-2.3-2.9-3-.3-.3-.6-.6-.8-.8-.2-.2-.3-.3-.3-.3,0,0,.1,0,.3.3.2.2.5.5.8.8.7.7,1.7,1.7,2.9,3,2.5,2.5,5.8,6,9.5,10,3.6,3.9,6.9,7.6,9.2,10.2,1.2,1.3,2.1,2.4,2.7,3.2.3.4.5.6.7.9.2.2.2.3.2.3Z"/>
          <g class="cls-11">
            <path class="cls-9" d="M159.9,129.2l36.7,39.8s-3,4.2-5.7,6l-37.5-40.8s2.7-3.3,6.5-5Z"/>
          </g>
          <g class="cls-11">
            <path class="cls-9" d="M150.3,138.8l36.1,38.8s.3.2-2.2.8l-34.9-37.7s.2-.9,1-2Z"/>
          </g>
        </g>
        <g>
          <path class="cls-2" d="M245.2,202.8c-7.7-6.2-26.6-21.3-27.5-21.7-1.1-.5-17.7-6.4-20.9-4.5-3.2,1.9-11.7,12.6-11.7,12.6,0,0,.8,6.7,8.3,1.9,5.7-3.6,6.6-4.2,6.7-4.3,0,0,0,0,0,0l7.9,1.8s-9.7,4-11.7,6.2c-2,2.1-5.3,10.2-3.3,12.1s4.4,2,4.4,2c0,0-4,5.7,3.1,9.1,0,0,1,4.8,4.5,6.6,3.5,1.9,10,1.2,10,1.2,0,0,3-1.8.8-4.7-2.2-3-6.4-3.4-6.4-3.4l5.1-3s2.7.8,6.6,3.9c0,0,4.7-6,9.3-9.4,5.2-3.8,14.8-6.5,14.8-6.5Z"/>
          <path class="cls-4" d="M212.5,205.4s-.3,0-.8,0c-.5,0-1.2.2-2,.5-1.7.5-3.9,1.7-5.7,3.7-1.8,2-2.8,4.3-3.2,6-.2.9-.3,1.6-.3,2.1,0,.5,0,.8,0,.8,0,0,0-1.1.5-2.7.4-1.7,1.4-3.9,3.2-5.8,1.8-1.9,3.9-3.1,5.5-3.7,1.6-.6,2.7-.7,2.7-.8Z"/>
          <path class="cls-4" d="M212.8,196.7s-.3,0-.8,0c-.3,0-.6,0-.9.2-.4,0-.8.1-1.2.3-.9.2-2,.6-3.1,1.2-1.1.6-2.3,1.3-3.4,2.1-1.1.9-2.1,1.8-2.9,2.8-.8,1-1.4,1.9-1.9,2.7-.3.4-.4.8-.6,1.1-.2.3-.3.6-.4.9-.2.5-.3.8-.3.8,0,0,.5-1,1.5-2.6.5-.8,1.1-1.7,1.9-2.6.8-.9,1.8-1.8,2.9-2.7,1.1-.9,2.4-1.8,3.5-2.4,1.1-.5,2-.7,2.9-1,1.8-.6,2.9-.7,2.9-.8Z"/>
          <path class="cls-4" d="M214.3,186.9s-.4-.2-1.1-.2c-.7,0-1.7,0-2.6.5-1.3.6-1.8,1.1-2.2,1.6-.4.5-.6.9-.6.9,0,0,1-1.4,2.9-2.2,1.9-.8,3.5-.5,3.6-.6Z"/>
        </g>
        <path class="cls-6" d="M303,155.5s24.4,2.3,32.1,23.5,9.5,67.2,7.9,68.2l-43.1-1.4c-.6-12.3-3.9-21.8-8.5-27.9l11.5-62.5Z"/>
        <path class="cls-4" d="M300.6,245.9s.3.1.8.5c.5.3,1.3.8,2.2,1.5,1.8,1.3,4.2,3.3,6.6,5.7,2.4,2.4,4.4,4.8,5.7,6.5.7.9,1.2,1.6,1.5,2.1.3.5.5.8.5.8,0,0-.9-1-2.3-2.7-1.4-1.7-3.4-4-5.8-6.4-2.4-2.4-4.7-4.4-6.4-5.8-1.7-1.4-2.8-2.2-2.8-2.3Z"/>
        <path class="cls-7" d="M295.5,194.1c.1,0-.6,5.4-1.8,12-1.1,6.6-2.1,12-2.3,11.9-.1,0,.6-5.4,1.8-12,1.1-6.6,2.1-11.9,2.3-11.9Z"/>
        <path class="cls-7" d="M241.3,345.2s.2,0,.7-.1c.5,0,1.2-.1,2.1-.2,1.8-.2,4.4-.4,7.6-.7,6.4-.6,15.2-1.5,24.9-2.8,9.7-1.2,18.5-2.5,24.8-3.5,3.1-.5,5.7-.9,7.5-1.2.8-.1,1.5-.2,2-.3.5,0,.7,0,.7,0,0,0-.2,0-.7.2-.5.1-1.2.2-2,.4-1.8.3-4.3.8-7.5,1.4-6.3,1.1-15.1,2.5-24.8,3.7-9.7,1.2-18.6,2.1-25,2.6-3.2.3-5.8.4-7.6.6-.9,0-1.5,0-2.1.1-.5,0-.7,0-.7,0Z"/>
        <path class="cls-7" d="M237.5,338.7s.6,0,1.8-.2c1.2,0,2.9-.2,4.8-.3,4.2-.2,9.8-.5,16-.8,6.2-.4,11.8-.7,16-.9,2-.1,3.6-.2,4.8-.3,1.1,0,1.8,0,1.8,0,0,0-.6.1-1.8.2-1.1.1-2.8.3-4.8.4-4.1.3-9.7.7-16,1.1-6.2.3-11.9.6-16,.7-2,0-3.7,0-4.9,0-1.1,0-1.8,0-1.8,0Z"/>
        <g>
          <g>
            <path class="cls-2" d="M168.9,247.6c.2-.6.4-1.2.8-1.7.7-1,1.8-1.8,3-2.1,2.1-.5,4.4.5,5.5,2.3,0-1.4,1-2.6,2.3-3,1.3-.4,2.3.1,3.4,1,1.1.9,1.3,1.6,1.7,2.9,1-2.4,6.4-2.1,7.1-.3,0,0,4.6-5.1,7-2.6,1,1,.6,2.6,0,4.2-.9,2.1-1.4,3-2.6,5.4l-4.4.2c-.4,1.4-1.1,7-1.3,8.4-.2,1.4-.4,2.9-1.2,4.1-.8,1.2-2.1,2.2-3.5,2.1-1.4,0-2.8-1.2-2.7-2.7-.3,1.2-.8,2.3-1.7,3.2-.9.8-2.1,1.3-3.3,1-1.2-.3-2.1-1.5-1.9-2.7-1.6,1.1-3.9.1-4.9-1.5-1-1.6-1-3.6-1-5.5,0-1.7.2-3.6-.5-5.2-.1-.3-.3-.5-.3-.7,0-.4,0-.8,0-1.3,0-.9-.2-1.8-.5-2.6,0-.2-.1-.4-.2-.5-.2-.5-.5-.9-.8-1.3,0,0,0-.2-.1-.3,0-.2,0-.5.1-.7Z"/>
            <path class="cls-2" d="M164,245.1c-1.2,0-2.5.2-3.2,1.1-.9,1-1.1,3.5-1,4.9,1.6.3,2.5,0,4.1.3.3,0,.6,0,.9.2.8.5.6,2.3.9,3.2.5,1.5,2.5,2.2,4,1.7,1.5-.6,2.5-2.1,2.5-3.7,0-1.6-.6-3.2-1.7-4.4-1.6-1.9-4-3.1-6.5-3.2Z"/>
          </g>
          <path class="cls-4" d="M191.7,259.9c-.2,0,.5-3,.9-6.7.2-1.9.3-3.5.2-4.8,0-1.2-.2-2-.1-2,0,0,.3.7.5,1.9.2,1.2.2,3,0,4.8-.2,1.9-.6,3.6-.8,4.8-.3,1.2-.5,1.9-.6,1.9Z"/>
          <path class="cls-4" d="M183.8,266.3c0,0,.1-1.1.4-2.8.3-1.7.8-4.1,1.1-6.8.3-2.7.5-5.1.4-6.9,0-1.8-.2-2.9,0-2.9,0,0,.3,1.1.4,2.8.1,1.8,0,4.3-.3,7-.3,2.7-.8,5.1-1.3,6.8-.4,1.7-.7,2.8-.8,2.8Z"/>
          <path class="cls-4" d="M177.1,267.5c0,0,.2-1.2.5-3.2.4-1.9.7-4.6.9-7.7.2-3,0-5.7,0-7.7-.1-2-.3-3.2-.2-3.2,0,0,.1.3.2.8.1.5.2,1.3.3,2.3.2,2,.4,4.7.2,7.8-.2,3-.6,5.8-1.1,7.7-.2,1-.4,1.7-.6,2.3-.2.5-.3.8-.3.8Z"/>
          <path class="cls-4" d="M168.2,247.9c0,0,.6.1,1.4.7.8.6,1.7,1.6,2.2,3,.5,1.4.6,2.8.3,3.7-.3,1-.9,1.3-.9,1.2,0,0,.4-.5.6-1.3.2-.9,0-2.2-.4-3.4-.5-1.3-1.3-2.3-2-2.9-.7-.6-1.2-.9-1.1-1Z"/>
        </g>
      </g>
    </g>
  </g>
</svg>