<?xml version="1.0" encoding="UTF-8"?>
<svg id="Layer_1" data-name="Layer 1" xmlns="http://www.w3.org/2000/svg" version="1.1" viewBox="0 0 663.1 379.9">
  <defs>
    <style>
      .cls-1 {
        fill: #ffd4bd;
      }

      .cls-1, .cls-2, .cls-3, .cls-4, .cls-5, .cls-6, .cls-7, .cls-8, .cls-9, .cls-10, .cls-11, .cls-12 {
        stroke-width: 0px;
      }

      .cls-2 {
        fill: #375a64;
      }

      .cls-3 {
        fill: #e1e1e1;
      }

      .cls-4 {
        fill: #fdb094;
      }

      .cls-5 {
        fill: #1a2e35;
      }

      .cls-6 {
        fill: #000;
      }

      .cls-7 {
        fill: #ececec;
      }

      .cls-8 {
        fill: #bf654e;
      }

      .cls-9 {
        fill: #c78976;
      }

      .cls-13 {
        opacity: .3;
      }

      .cls-14 {
        opacity: .6;
      }

      .cls-15 {
        opacity: .7;
      }

      .cls-10 {
        fill: #fafafa;
      }

      .cls-11 {
        fill: #fff;
      }

      .cls-12 {
        fill: #ff4f5b;
      }
    </style>
  </defs>
  <g>
    <path class="cls-7" d="M24.6,280.3s-2.9,6.8,13,11.6c15.9,4.8,24.8,6,24.8,6,0,0,3.4,1.4,1.8,3.9-1.6,2.5-6.7,6.3-5.1,9.7,1.7,3.5,6.1,4,12,2.1,5.9-1.8,19-5.3,20.2-5.6,1.2-.3,3,0,2.2,1.9-.8,1.8-9.6,13.2-4,17.1,5.6,3.8,21.3-3.9,23-4.7,1.7-.8,2.6-.6,3.2.2.6.8-2.7,4.3-5.1,7.7-2.4,3.3-4.5,7.6-1.1,9.6,3.4,1.9,16,.5,34-15l7.9-7.7-2.6-10.8c-6.9-22.7-16.8-30.6-20.7-30.8-3.9-.2-4.4,4.6-4.2,8.7s1.1,8.8.2,9.2c-.9.3-1.8,0-2.8-1.5-1-1.6-10.1-16.5-17-16.3-6.8.2-5.5,14.5-5.7,16.5-.3,2-2.1,1.3-2.9.4-.8-.9-10.1-10.8-14.1-15.5-4-4.7-7.9-6.6-11.3-4.6-3.2,2-1,8-.9,10.9,0,2.9-3.6,2.3-3.6,2.3,0,0-8.2-3.7-24.2-8.1-16-4.5-17.1,3-17.1,3"/>
    <path class="cls-3" d="M153.6,318.3c-11.7-3.3-32.4-9.6-50.2-14.9-17.8-5.3-33.9-10-45.6-13.4-5.8-1.7-10.6-3-13.8-4-1.6-.5-2.9-.8-3.8-1.1-.4-.1-.7-.2-1-.3-.2,0-.3-.1-.3-.1,0,0,.1,0,.3,0,.2,0,.6.1,1,.3.9.2,2.2.6,3.8,1,3.3.9,8,2.2,13.9,3.9,11.7,3.3,27.8,8,45.6,13.3,17.8,5.3,38.5,11.6,50.2,15"/>
    <path class="cls-3" d="M66.5,306.2s.2-.2.7-.4c.5-.2,1.1-.6,1.9-1,1.6-.8,3.9-1.9,6.5-3,2.5-1.1,4.8-2.1,6.6-2.8.8-.3,1.4-.6,2-.9.5-.2.7-.3.7-.3,0,0-.2.2-.7.4-.5.2-1.1.6-1.9,1-1.7.8-4,1.8-6.5,2.9-2.5,1.1-4.8,2.1-6.5,2.9-.8.4-1.4.6-2,.9-.5.2-.7.3-.7.3Z"/>
    <path class="cls-3" d="M84.9,296.8c0,0-2.5-4.6-5.3-10.4-2.9-5.8-5.1-10.5-5-10.5,0,0,2.5,4.6,5.3,10.4,2.9,5.8,5.1,10.5,5,10.5Z"/>
    <path class="cls-3" d="M111.8,306.2s0-.3-.2-.8c-.1-.6-.2-1.3-.4-2.2-.3-1.8-.8-4.4-1.4-7.1-.6-2.8-1.3-5.3-1.7-7.1-.2-.8-.4-1.6-.6-2.1-.1-.5-.2-.8-.2-.8,0,0,.1.3.3.8.2.5.4,1.2.7,2.1.5,1.8,1.2,4.3,1.8,7.1.6,2.8,1.1,5.3,1.3,7.2.1.9.2,1.7.3,2.2,0,.5,0,.8,0,.8Z"/>
    <path class="cls-3" d="M97.1,318.3s.2-.2.5-.5c.4-.4.9-.8,1.5-1.4,1.3-1.1,3.1-2.7,5.1-4.4,2-1.7,3.8-3.2,5.2-4.3.6-.5,1.2-.9,1.6-1.3.4-.3.6-.5.6-.4,0,0-.2.2-.5.5-.4.4-.9.8-1.5,1.4-1.3,1.1-3.1,2.7-5.1,4.4-2,1.7-3.8,3.2-5.2,4.3-.6.5-1.2.9-1.6,1.3-.4.3-.6.5-.6.4Z"/>
    <path class="cls-3" d="M119.8,329.6s.2-.3.7-.7c.5-.5,1.2-1,1.9-1.8,1.7-1.5,4-3.5,6.5-5.7,2.6-2.2,4.9-4.2,6.6-5.6.8-.7,1.5-1.2,2-1.7.5-.4.8-.6.8-.6,0,0-.2.3-.7.7-.5.5-1.2,1-1.9,1.8-1.7,1.5-4,3.5-6.5,5.7-2.6,2.2-4.9,4.2-6.6,5.6-.8.7-1.5,1.2-2,1.7-.5.4-.8.6-.8.6Z"/>
    <path class="cls-3" d="M137.8,313.9s-.1-.4-.3-1c-.2-.7-.4-1.6-.6-2.7-.5-2.3-1.2-5.5-2.1-9-.9-3.5-1.8-6.7-2.4-8.9-.3-1.1-.6-2-.8-2.7-.2-.6-.3-1-.2-1,0,0,.2.3.4,1,.2.6.5,1.5.9,2.7.7,2.3,1.6,5.4,2.5,8.9.9,3.5,1.6,6.7,2,9,.2,1.2.4,2.1.5,2.8.1.7.1,1,.1,1Z"/>
  </g>
  <g>
    <path class="cls-7" d="M476,104.8c-14-9.4-17.4-27.2-17.1-43.3,0-2.7-.3-5.5.9-7.9,1.2-2.4,4.2-4,6.6-2.9,2,.9,2.9,3.2,4.1,5.1,1.5,2.5,3.8,4.6,6.4,5.9,1.7.9,3.8,1.4,5.5.4,2.3-1.3,2.5-4.5,2.4-7.2-.1-5-.2-9.9-.4-14.9,0-2.7-.1-5.4.7-7.9.8-2.5,2.6-4.9,5.1-5.7,2.5-.8,5.7.7,6.3,3.3.2,1.1,0,2.2.1,3.3,0,1.1.6,2.3,1.7,2.6,1.1.3,2.1-.5,2.9-1.3,2.7-2.7,4.5-6.2,6.2-9.7,1.7-3.5,3.3-7,5.8-10,2.4-3,5.9-5.4,9.7-5.7,3.8-.3,7.9,2,9,5.7,1,3.7-1.1,7.6-3.4,10.7-3.5,4.6-7.6,8.7-12.2,12-.8.6-1.7,1.3-2,2.3-.5,1.8,1.2,3.5,2.9,4.1,2,.6,4.2.4,6.2.6,2.1.2,4.4,1.1,5.2,3,1.1,2.7-1.1,5.6-3.3,7.5-4.4,3.8-9.5,6.9-14.9,9-2,.8-4,1.4-5.6,2.8-1.6,1.4-2.5,3.8-1.5,5.7,1,1.9,3.5,2.4,5.5,2,2-.4,3.9-1.6,5.8-2.3,3.6-1.4,8.4-1.3,10.8,1.8,1.6,2.1,1.8,5,1,7.5-.7,2.5-2.3,4.7-3.9,6.7-5.8,7-13.2,12.7-21.6,15.8-8.5,3.1-16.3,4-24.8,1.1"/>
    <path class="cls-3" d="M479.9,94.7c2.2-8.2,5.4-16.9,9-25.9.9-2.3,1.8-4.5,2.7-6.7.9-2.2,1.8-4.4,2.8-6.4,2-4.1,4.2-8,6.4-11.6,2.2-3.6,4.5-6.9,6.6-10,2.1-3.1,4.2-5.9,6.1-8.4,3.9-5,7.5-8.7,10.1-11.1,1.3-1.2,2.3-2.1,3-2.7.3-.3.6-.5.8-.7.2-.2.3-.2.3-.2,0,0,0,0-.3.3-.2.2-.5.4-.8.7-.7.6-1.7,1.6-3,2.8-2.6,2.5-6.1,6.1-10,11.2-1.9,2.5-4,5.3-6.1,8.4-2.1,3.1-4.3,6.4-6.5,10-2.2,3.6-4.4,7.4-6.4,11.5-1,2.1-1.9,4.2-2.8,6.4-.9,2.2-1.8,4.4-2.7,6.7-3.6,9-6.8,17.7-9.1,25.8"/>
    <path class="cls-3" d="M494.6,55.6s-.1-.4-.3-1.1c-.2-.7-.3-1.8-.6-3.1-.4-2.7-.9-6.3-1.4-10.4-.5-4.1-1-7.7-1.5-10.4-.2-1.3-.4-2.4-.6-3.1-.1-.7-.2-1.1-.2-1.2,0,0,.2.4.4,1.1.2.7.5,1.8.7,3.1.6,2.6,1.1,6.3,1.6,10.4.5,4,.9,7.6,1.2,10.4.2,1.3.3,2.3.4,3.1,0,.7.1,1.2,0,1.2Z"/>
    <path class="cls-3" d="M528.8,48.6s-.5,0-1.4.2c-.9,0-2.2.2-3.7.4-3.1.4-7.5,1.1-12.2,2.1-4.7,1-9,2.1-12,2.9-1.5.4-2.7.8-3.6,1.1-.8.3-1.3.4-1.3.4,0,0,.4-.2,1.3-.5.8-.3,2-.7,3.6-1.2,3-1,7.3-2.1,12-3.1,4.7-1,9.1-1.6,12.2-1.9,1.6-.2,2.9-.2,3.7-.3.9,0,1.4,0,1.4,0Z"/>
    <path class="cls-3" d="M480.3,94s0-.1-.2-.4c-.2-.3-.4-.7-.6-1.2-.5-1.1-1.2-2.6-2.1-4.6-1.7-3.9-3.9-9.4-6.3-15.4-2.4-6.1-4.5-11.5-6.2-15.5-.8-1.9-1.5-3.5-2-4.7-.2-.5-.4-.9-.5-1.3-.1-.3-.2-.4-.2-.5,0,0,0,.1.2.4.2.3.4.7.6,1.2.5,1.1,1.2,2.6,2.1,4.6,1.7,3.9,3.9,9.4,6.3,15.4,2.4,6.1,4.5,11.5,6.2,15.5.8,1.9,1.5,3.5,2,4.7.2.5.4.9.5,1.3.1.3.2.4.2.5Z"/>
    <path class="cls-3" d="M525.7,78.5s-.2,0-.4.2c-.4.1-.8.3-1.3.5-1.2.4-2.9,1-4.9,1.7-4.1,1.4-9.7,3.4-16,5.7-6.2,2.2-11.9,4.2-16,5.5-2.1.7-3.7,1.2-4.9,1.5-.5.2-1,.3-1.3.4-.3,0-.5.1-.5,0,0,0,.2,0,.4-.2.4-.1.8-.3,1.3-.5,1.2-.4,2.9-1,4.9-1.7,4.1-1.4,9.7-3.4,16-5.7,6.2-2.2,11.9-4.2,16-5.5,2.1-.7,3.7-1.2,4.9-1.5.5-.2,1-.3,1.3-.4.3,0,.5-.1.5,0Z"/>
  </g>
  <g>
    <path class="cls-7" d="M628.9,171.9c-.1,2.7-1.7,5.2-3.7,7-2.1,1.8-4.7,2.8-7.3,3.5-5.1,1.3-11.1.3-16.1-1.2,2.1-5.5,8-8.8,11.1-10.3,4.9-2.3,15.2-3.6,16.1,1"/>
    <path class="cls-7" d="M595.4,189.1c2.5-1.7,6-1.7,8.7-.3,2.7,1.4,4.6,4.1,5.5,7,.4,1.4.5,2.9-.3,4.1-.7,1.1-2.2,1.5-3.5,1.4-1.3-.2-2.5-.8-3.5-1.6-3.6-2.7-6.5-6-6.8-10.5"/>
    <path class="cls-3" d="M582.2,188.4c0,0,1.3-.4,3.4-.6,1.1-.1,2.4-.2,3.8,0,1.4.2,3,.3,4.6.7,3.2.8,5.9,2.3,7.5,3.8.8.7,1.4,1.4,1.7,1.9.3.5.5.8.5.8,0,0-.8-1.1-2.5-2.4-1.6-1.3-4.2-2.8-7.4-3.5-1.6-.4-3.1-.6-4.5-.7-1.4-.2-2.6-.2-3.7-.1-2.1.2-3.5.3-3.5.2Z"/>
    <path class="cls-3" d="M621.1,173.6s-.5.3-1.6.8c-1,.5-2.5,1.1-4.4,1.9-3.7,1.6-8.9,3.7-14.7,5.9-5.8,2.2-11.1,4.1-14.9,5.3-1.9.6-3.5,1.1-4.6,1.4-1.1.3-1.7.5-1.7.4,0,0,.6-.3,1.6-.7,1.2-.4,2.7-1,4.5-1.6,3.8-1.4,9.1-3.3,14.8-5.5,5.7-2.2,10.9-4.2,14.7-5.8,1.8-.7,3.3-1.3,4.5-1.7,1.1-.4,1.7-.6,1.7-.6Z"/>
    <path class="cls-7" d="M591.2,183.5c5.1-3.9,8.1-10.4,7.8-16.8,0-1.6-.6-3.5-2.1-4.1-1.5-.5-3.1.6-4.2,1.9-4.4,5.2-5.2,13.2-1.9,19.1"/>
    <path class="cls-3" d="M595.4,169.9s0,.3,0,.9c0,.6-.1,1.5-.2,2.5-.3,2.1-.9,5.1-2.5,8-.8,1.4-1.8,2.7-2.9,3.6-1.1,1-2.2,1.6-3.1,2.1-1,.4-1.8.7-2.4.9-.6.2-.9.2-.9.2,0-.1,1.2-.5,3.1-1.4.9-.5,2-1.2,3-2.1,1-.9,2-2.1,2.7-3.5,1.6-2.8,2.2-5.7,2.6-7.7.4-2.1.5-3.4.6-3.4Z"/>
  </g>
  <g>
    <path class="cls-7" d="M61.2,0c3.2-.3,6.4,1,8.8,3.2,2.4,2.1,4.1,5,5.3,8,2.4,5.8,2.3,12.9,1.4,19.1-6.8-1.5-11.6-7.9-13.9-11.2-3.6-5.4-6.8-17.2-1.6-19"/>
    <path class="cls-7" d="M87,36.3c-2.4-2.7-3-6.7-1.8-10.1,1.2-3.4,4-6.1,7.3-7.6,1.5-.7,3.3-1.1,4.8-.4,1.4.7,2.2,2.3,2.2,3.9s-.6,3.1-1.3,4.4c-2.6,4.7-6,8.7-11.2,9.8"/>
    <path class="cls-3" d="M88.5,51.9c0,0-.6-1.4-1.3-3.9-.3-1.2-.6-2.8-.7-4.5,0-1.7-.1-3.5,0-5.5.3-3.9,1.7-7.3,3.2-9.4.7-1.1,1.4-1.8,1.9-2.3.5-.5.8-.7.9-.7,0,0-1.1,1.1-2.4,3.3-1.3,2.1-2.5,5.4-2.9,9.3-.2,1.9-.1,3.7,0,5.4,0,1.7.2,3.1.5,4.4.6,2.5,1,4,.9,4Z"/>
    <path class="cls-3" d="M64.5,8.9s.5.6,1.2,1.7c.7,1.1,1.7,2.8,3,4.8,2.5,4.1,5.9,9.8,9.4,16.2,3.6,6.4,6.6,12.3,8.8,16.6,1.1,2.1,1.9,3.9,2.5,5.1.6,1.2.8,1.9.8,1.9,0,0-.4-.6-1-1.8-.7-1.3-1.6-3-2.7-5-2.2-4.2-5.4-10.1-8.9-16.4-3.6-6.3-6.8-12-9.3-16.3-1.1-2-2.1-3.7-2.8-4.9-.6-1.2-1-1.8-.9-1.9Z"/>
    <path class="cls-7" d="M81.3,42.2c-5.4-5.3-13.5-7.7-21-6.2-1.9.4-4,1.3-4.4,3.2-.4,1.9,1.3,3.6,2.9,4.6,6.8,4.3,16.3,3.8,22.7-1.1"/>
    <path class="cls-3" d="M64.6,39.6s.4-.1,1.1-.2c.7,0,1.7-.1,3-.2,2.5,0,6.1.1,9.7,1.5,1.8.7,3.4,1.7,4.7,2.8,1.3,1.1,2.2,2.3,3,3.3.7,1.1,1.2,2,1.4,2.6.3.6.4,1,.4,1-.1,0-.8-1.4-2.2-3.4-.8-1-1.7-2.1-3-3.1-1.3-1-2.8-1.9-4.6-2.6-3.5-1.4-7-1.6-9.5-1.7-2.5,0-4,0-4.1-.2Z"/>
  </g>
  <g>
    <path class="cls-7" d="M298.5,368.3c-1.2-2.6-1-5.7,0-8.4,1.1-2.7,3-4.9,5.1-6.8,4.1-3.7,10.2-5.8,15.7-6.8.8,6.1-3.1,12.1-5.3,15-3.4,4.6-12.5,10.9-15.5,7"/>
    <path class="cls-7" d="M321.3,335.8c-1.5,2.8-4.8,4.5-8,4.5-3.2,0-6.3-1.6-8.5-3.9-1-1.1-1.9-2.5-1.8-3.9.2-1.4,1.3-2.5,2.6-3,1.3-.5,2.7-.4,4.1-.2,4.7.8,9.1,2.4,11.6,6.5"/>
    <path class="cls-3" d="M334,330c0,0-1,1-2.9,2.3-.9.7-2.2,1.3-3.6,1.9-1.4.5-2.9,1.2-4.6,1.6-3.4.9-6.7.7-8.9.2-1.1-.3-2-.7-2.5-.9-.6-.3-.9-.5-.8-.5,0-.1,1.3.6,3.5,1.1,2.2.5,5.3.5,8.6-.3,1.6-.4,3.2-1,4.6-1.5,1.4-.5,2.6-1.1,3.5-1.7,1.9-1.2,3.1-2,3.1-1.9Z"/>
    <path class="cls-3" d="M304.9,362.9s.4-.6,1.1-1.5c.7-.9,1.8-2.3,3.2-3.9,2.7-3.3,6.5-7.8,10.8-12.7,4.3-4.9,8.3-9.2,11.3-12.3,1.5-1.5,2.7-2.8,3.6-3.6.9-.8,1.3-1.3,1.4-1.2,0,0-.4.5-1.2,1.4-.9,1-2,2.2-3.4,3.7-2.9,3.1-6.9,7.5-11.2,12.4-4.2,4.9-8.1,9.3-10.9,12.6-1.3,1.5-2.5,2.8-3.3,3.8-.8.9-1.2,1.4-1.3,1.3Z"/>
    <path class="cls-7" d="M328,338.9c-2.8,6.1-2.5,13.7,1,19.5.9,1.5,2.3,3,4,2.8,1.7-.2,2.6-2.1,3-3.8,1.6-7-1.6-14.8-7.6-18.8"/>
    <path class="cls-3" d="M330.8,353.7s-.2-.3-.5-.9c-.3-.6-.6-1.4-1-2.5-.7-2.1-1.7-5.1-1.6-8.6,0-1.7.4-3.4.9-4.8.5-1.4,1.3-2.6,1.9-3.5.7-.9,1.3-1.6,1.8-2,.5-.4.7-.6.8-.6,0,0-.9,1-2.2,2.9-.6.9-1.3,2.1-1.7,3.4-.5,1.4-.8,2.9-.8,4.6,0,3.4.8,6.4,1.4,8.5.7,2.1,1.2,3.4,1.1,3.5Z"/>
  </g>
  <g>
    <path class="cls-12" d="M1.5,144.9c-4.2-24.3,4.2-51.1,23.6-66.4,19.4-15.2,49.5-16.4,68.3-.4,13.2,11.2,19.4,28.4,27.3,43.8,7.9,15.4,19.8,31.1,36.9,33.8,14.8,2.3,29.6-5.8,44.5-3.8,14.5,1.9,26.6,13.7,30.8,27.7,4.2,14,1.1,29.5-6.4,42.1-7.5,12.5-19,22.3-31.6,29.7-40.5,23.8-94.2,23-134-1.9C21.1,224.5-2.9,176.4.9,129.6"/>
    <g class="cls-15">
      <path class="cls-11" d="M1.5,144.9c-4.2-24.3,4.2-51.1,23.6-66.4,19.4-15.2,49.5-16.4,68.3-.4,13.2,11.2,19.4,28.4,27.3,43.8,7.9,15.4,19.8,31.1,36.9,33.8,14.8,2.3,29.6-5.8,44.5-3.8,14.5,1.9,26.6,13.7,30.8,27.7,4.2,14,1.1,29.5-6.4,42.1-7.5,12.5-19,22.3-31.6,29.7-40.5,23.8-94.2,23-134-1.9C21.1,224.5-2.9,176.4.9,129.6"/>
    </g>
  </g>
  <g>
    <path class="cls-12" d="M236.1,362.4c13.1-9,19.3-28.8,11.1-42.4h0c-8.3-12.4-21.2-22.3-36-24.4-14.8-2.1-31.1,4.9-37.7,18.3-4.1,8.4-4.2,18.6-.7,27.4,3.4,8.8,10.1,16,18.2,20.9,13.6,8.2,32,9.1,45.2.2Z"/>
    <g class="cls-15">
      <path class="cls-11" d="M236.1,362.4c13.1-9,19.3-28.8,11.1-42.4h0c-8.3-12.4-21.2-22.3-36-24.4-14.8-2.1-31.1,4.9-37.7,18.3-4.1,8.4-4.2,18.6-.7,27.4,3.4,8.8,10.1,16,18.2,20.9,13.6,8.2,32,9.1,45.2.2Z"/>
    </g>
  </g>
  <g>
    <path class="cls-12" d="M663.1,279.5c-.8-21-11.2-41.9-28.7-53.7-17.5-11.8-41.8-13.4-59.8-2.4-11.2,6.8-19.3,17.7-26.1,28.9-3.7,6.2-7.6,12.9-14.2,15.6-8.7,3.5-18.2-1.3-27.4-3.1-12-2.4-25,.6-34.7,8.1-7.4,5.7-12.8,13.9-15.3,22.8-8,33.2,15.3,56.9,40.1,71.3,27.8,16.1,63,16.1,93.2,5.3,19.9-7,38.4-18.6,51.9-34.7,13.5-16.2,21.8-37.1,21-58.1Z"/>
    <g class="cls-15">
      <path class="cls-11" d="M663.1,279.5c-.8-21-11.2-41.9-28.7-53.7-17.5-11.8-41.8-13.4-59.8-2.4-11.2,6.8-19.3,17.7-26.1,28.9-3.7,6.2-7.6,12.9-14.2,15.6-8.7,3.5-18.2-1.3-27.4-3.1-12-2.4-25,.6-34.7,8.1-7.4,5.7-12.8,13.9-15.3,22.8-8,33.2,15.3,56.9,40.1,71.3,27.8,16.1,63,16.1,93.2,5.3,19.9-7,38.4-18.6,51.9-34.7,13.5-16.2,21.8-37.1,21-58.1Z"/>
    </g>
  </g>
  <g>
    <path class="cls-12" d="M615.3,99.7c-2.6-16.8-18.8-31.9-35.7-30.3h0c-15.8,2.3-31.3,10.2-40.1,23.4-8.8,13.3-9.7,32.2.2,44.8,6.2,7.9,16,12.6,26,13.3,10,.7,20.1-2.3,28.5-7.9,14.2-9.3,23.6-26.6,21-43.4Z"/>
    <g class="cls-15">
      <path class="cls-11" d="M615.3,99.7c-2.6-16.8-18.8-31.9-35.7-30.3h0c-15.8,2.3-31.3,10.2-40.1,23.4-8.8,13.3-9.7,32.2.2,44.8,6.2,7.9,16,12.6,26,13.3,10,.7,20.1-2.3,28.5-7.9,14.2-9.3,23.6-26.6,21-43.4Z"/>
    </g>
  </g>
  <g>
    <g>
      <g>
        <g>
          <path class="cls-5" d="M419.5,103.9c2.2-.3,3.9-1.9,5.9-2.8,3-1.4,6.6-1.2,9.4.5,2.8,1.7,4.8,3.7,5,7l-3.7,4"/>
          <g>
            <g>
              <path class="cls-1" d="M442.7,124.4l-5.9,35.4c-1,6-3.7,14.7-13.2,12.6h0c-8.1-2.4-8.9-10.6-7.9-16.2.4-2.7.8-4.9.8-5.2,0,0-8.9-2.3-8-11.4.4-4.4,2-13.3,3.5-21.3,1.6-8.7,9.6-14.6,18.4-13.7h.9c9.3,1.6,13.2,10.4,11.4,19.7Z"/>
              <path class="cls-4" d="M416.6,151s5.7,1.1,12.1-2.1c0,0-3.5,6.2-12.4,4.4l.3-2.3Z"/>
            </g>
            <g>
              <g>
                <g>
                  <path class="cls-5" d="M412.9,123.8c.2.2,1.4-.3,3.1-.1,1.7.2,2.8.9,3,.8,0,0,0-.3-.6-.7-.5-.3-1.4-.7-2.4-.8-1-.1-1.9,0-2.5.3-.5.2-.7.4-.6.5Z"/>
                  <path class="cls-5" d="M426.6,125.3c.2.2,1.4-.3,3.1,0,1.7.2,2.8.9,3,.8,0,0,0-.3-.6-.7-.5-.3-1.4-.7-2.4-.8-1-.1-1.9,0-2.4.2-.5.2-.7.4-.6.5Z"/>
                </g>
                <path class="cls-5" d="M426.3,127.5c0,.5.3,1,.9,1.1.5,0,1-.3,1.1-.8,0-.5-.3-1-.9-1.1-.5,0-1,.3-1.1.8Z"/>
                <path class="cls-5" d="M413.3,126.1c0,.5.3,1,.9,1.1.5,0,1-.3,1.1-.8,0-.5-.3-1-.9-1.1-.5,0-1,.3-1.1.8Z"/>
                <path class="cls-5" d="M421,134.4c0,0-.8-.3-2.2-.6-.4,0-.7-.2-.7-.4,0-.3.1-.6.3-1,.4-.8.9-1.7,1.3-2.6,1.9-3.7,3.2-6.7,3.1-6.8-.1,0-1.8,2.9-3.6,6.5-.4.9-.9,1.8-1.3,2.6-.2.4-.5.8-.3,1.4,0,.3.3.5.5.6.2,0,.4.1.6.1,1.4.2,2.3.3,2.3.2Z"/>
              </g>
              <path class="cls-5" d="M428.2,119.2c0,.4,1.3.3,2.7.7,1.4.3,2.5.9,2.8.6.1-.1,0-.5-.5-.9-.4-.4-1.1-.8-2-1-.9-.2-1.7-.1-2.2,0-.5.2-.8.4-.8.6Z"/>
              <path class="cls-5" d="M413.6,119.5c.1.3,1.3.2,2.7.4,1.4.2,2.6.6,2.8.3,0-.1,0-.4-.6-.7-.4-.3-1.2-.6-2-.7-.9-.1-1.6,0-2.2.1-.5.2-.8.4-.8.5Z"/>
            </g>
          </g>
          <g>
            <path class="cls-1" d="M441.3,131c.2,0,6.4-1.2,5.5,5-.8,6.1-6.8,4-6.8,3.9,0-.2,1.3-8.8,1.3-8.8Z"/>
            <path class="cls-4" d="M442.2,137.7s0,0,.3.2c.2.1.5.2.8.1.7-.1,1.4-1.1,1.6-2.2,0-.6,0-1.1,0-1.6-.1-.5-.4-.8-.7-.9-.3-.1-.6,0-.7.2-.1.2,0,.3-.1.3,0,0-.1-.1,0-.4,0-.1.1-.3.3-.4.2,0,.4-.1.6,0,.5,0,.8.6,1,1.1.2.5.2,1.1.1,1.8-.2,1.2-1,2.3-1.9,2.4-.4,0-.8-.1-1-.3-.2-.2-.2-.3-.2-.3Z"/>
          </g>
          <path class="cls-5" d="M410.3,116.3c3.9,1.5,8.4.9,11.8-1.4,2.4-1.6,4.4-4.1,7.2-4.7,1.9-.4,3.9.2,5.5,1.4,1.6,1.1,2.8,2.7,3.8,4.3-2.2,4.4-1.6,9.6-.9,14.5,0,.5.2,1.1.6,1.5.7.6,1.8.3,2.5-.3,1.1-1,1.7-2.4,2.1-3.8.9-3.2,1.4-6.7,1-10-.4-3.4-1.6-6.6-3.8-9.2-2.7-3.2-6.8-5.2-11-5.5-4.2-.4-8.5.8-12.1,2.9-1.7,1-3.3,2.3-4.2,4"/>
        </g>
        <path class="cls-5" d="M410.9,124.8c.6-2.5.8-5.6,1.4-8.1,3.9.5,8-.4,11.1-2.8,1.6-1.3,3.1-3,5-3.6,2.6-.7,5.2.6,7.6,1.9h0c1.2.7,2.2,1.8,3,3-1.4,4.8-1.8,10-1.1,15,.1.8.5,1.5,1.2,1.8,1.3.8,2.2,0,3.2-.7.7-.4,1.7-.7,2.3-.1,1.9-3.1,3.2-6.5,4.1-10-.4,1.1.2,2.5,1.3,3,1.1.5,2.5.2,3.2-.8-.6-.7-1-1.6-1.2-2.5,1.3,1.2,3.6,1,4.7-.4-.7-.6-1.3-1.3-2-1.9.9,0,1.9,0,2.8.1-2.2-.9-3.8-2.7-5.3-4.6-1.5-1.8-2.9-3.7-4.9-5-2-1.3-4.6-1.8-6.7-.6.1-3.2-2.2-6.3-5.1-7.6-2.9-1.4-8-1.8-11.2-1.1-2.5.5-5,2-8.2,4.3-1.5,1.1-3,2.3-4.3,3.7-1.9,2-5.8,5.4-9.5,4.4l.3,3.8c2,1.9,6.1.2,6.1.2,0,0-2.4,2.4-4.6,2.3l.6,3.3s3.4.6,4.9-2l1.5,4.9Z"/>
        <path class="cls-2" d="M438.7,115.9s-.3-.5-.9-1.3c-.6-.8-1.6-2-3.1-2.9-.8-.4-1.7-.8-2.7-1-1-.2-2.1-.4-3.2,0-2.3.7-3.9,3-6.3,4.4-2.4,1.5-5.1,2.2-7.5,2.2-.6,0-1.2,0-1.8,0-.3,0-.5,0-.7,0-.2,0-.5.2-.7.3-.9.5-1.3,1.4-1.9,2.1-1.1,1.5-2.7,2.1-3.7,2.2-.5,0-.9,0-1.2,0-.3,0-.4,0-.4,0,0,0,.6,0,1.6-.1,1-.2,2.4-.7,3.4-2.2.5-.7,1-1.7,2-2.3.2-.1.5-.3.8-.4.3-.1.6,0,.9,0,.6,0,1.1,0,1.7,0,2.4,0,5-.7,7.3-2.2,1.2-.7,2.2-1.6,3.2-2.5,1-.8,2.1-1.6,3.3-2,1.2-.4,2.5-.2,3.5.1,1,.3,2,.7,2.8,1.1,1.6,1,2.5,2.2,3.1,3.1.3.4.5.8.6,1,.1.2.2.4.2.4Z"/>
        <path class="cls-2" d="M448.5,121.3s0,.2-.2.5c-.1.3-.4.8-.8,1.3-.4.5-1.2,1-2.1.9-.5,0-1-.4-1.2-.9-.3-.5-.3-1-.3-1.6h.5c-.3.8-1,1.2-1.7,1.3-.7,0-1.4-.3-1.8-.7-.5-.4-.8-1-1-1.5-.4-1.1-.4-2.1-.4-2.9,0-1.6-.4-2.5-.3-2.6,0,0,.6.9.7,2.5,0,.8.1,1.8.5,2.7.2.5.5.9.9,1.3.4.4.9.6,1.5.5.6,0,1.1-.4,1.3-.9l.8-2.1-.4,2.2c-.1.9.3,1.8,1.1,1.9.7.1,1.4-.3,1.8-.7.4-.4.7-.9.9-1.1.2-.3.3-.4.3-.4Z"/>
        <path class="cls-2" d="M446.2,128.1s-.6.5-1.7.5c-1.1,0-2.7-.5-3.9-1.7-1.2-1.2-1.9-2.6-2.4-3.6-.4-1-.6-1.6-.6-1.7,0,0,.4.6.9,1.5.5.9,1.2,2.3,2.4,3.4,1.2,1.1,2.6,1.6,3.6,1.7,1,0,1.7-.2,1.7-.1Z"/>
        <path class="cls-2" d="M445.9,129.2c0,0-.6.2-1.5.1-.9,0-2.2-.4-3.5-1.2-1.2-.8-2.1-1.8-2.6-2.6-.5-.8-.6-1.4-.6-1.4,0,0,.3.5.9,1.2.5.7,1.4,1.6,2.6,2.4,1.2.7,2.4,1.1,3.3,1.3.9.2,1.5.2,1.5.2Z"/>
        <path class="cls-2" d="M449.9,106.2c0,0-.6-.1-1.5-.2-.9-.1-2.3-.1-3.7.2-1.4.3-2.6,1-3.3,1.5-.8.5-1.2,1-1.3.9,0,0,.3-.5,1-1.2.7-.6,2-1.3,3.4-1.7,1.5-.4,2.9-.3,3.8,0,1,.2,1.5.5,1.5.6Z"/>
        <path class="cls-2" d="M441.5,100.9c.1,0,.9,1.8.5,4.3-.4,2.4-1.7,4-1.8,3.9-.1,0,1-1.7,1.3-4,.4-2.3-.2-4.2,0-4.2Z"/>
        <path class="cls-2" d="M405.6,112c0,0,.4.4,1.3.7.9.3,2.3.1,4-.5.8-.3,1.7-.6,2.7-1,1-.3,1.9-.8,2.9-1.4,2-1.1,4-2.8,6.5-3.9,1.2-.5,2.5-.9,3.8-1,1.3,0,2.6.2,3.6.7,2.1,1.1,3.6,2.6,5.2,3.3,1.6.6,3.1.6,3.9.2.9-.4,1.2-.9,1.2-.9,0,0,0,.1-.2.3-.2.2-.4.5-.9.7-.9.5-2.5.6-4.1,0-1.7-.6-3.2-2.2-5.3-3.2-1-.5-2.2-.8-3.4-.7-1.2,0-2.5.4-3.7,1-2.4,1.1-4.4,2.7-6.4,3.8-1,.6-2,1.1-3,1.4-1,.3-1.9.7-2.7.9-1.7.5-3.2.7-4.1.3-.5-.2-.8-.4-1-.6-.2-.2-.3-.3-.2-.3Z"/>
        <path class="cls-2" d="M440.4,108.5c0,0-.8-1.1-2.4-2.4-1.6-1.3-4.2-2.8-7.3-3.2-1.6-.2-3.1,0-4.5,0-1.4.1-2.7.2-3.7,0-1.1,0-1.9-.3-2.5-.5-.6-.2-.8-.4-.8-.4,0,0,1.2.6,3.3.6,1,0,2.3,0,3.7-.2,1.4-.1,2.9-.3,4.6,0,3.3.4,5.9,2,7.5,3.4.8.7,1.3,1.4,1.7,1.9.3.5.5.8.5.8Z"/>
        <path class="cls-5" d="M421.7,138.9c0-.2,1.2-.3,2.3-1.3.5-.5.9-1,1.1-1.4.3-.4.4-.7.5-.6,0,0,0,.3-.2.8-.2.5-.5,1.1-1.1,1.6-.6.5-1.3.8-1.8.9-.5.1-.8,0-.8,0Z"/>
      </g>
      <g>
        <g>
          <path class="cls-12" d="M582.6,310.8l16.4-9.3s14.9,13.5,18.1,12.1l-16.8-32.4-26.1,13.4,8.5,16.2Z"/>
          <g class="cls-14">
            <path class="cls-11" d="M592.4,292.2c-.2-.7.3-1.5,1-1.7.7-.2,1.5.3,1.7,1,.2.7-.4,1.7-1.1,1.8-.7.1-1.7-.5-1.6-1.2"/>
          </g>
          <g class="cls-14">
            <path class="cls-11" d="M600.2,281.2l-2.6,1.5,17.1,30.5s1.4,1.1,2.3.4l-16.8-32.4Z"/>
          </g>
          <path class="cls-5" d="M599.1,302.1c.2,0-.2-.9,0-2,0-1,.6-1.8.4-1.9-.1-.1-.9.6-1,1.9-.1,1.3.6,2.1.7,2Z"/>
          <path class="cls-5" d="M602.3,304.8c.2,0,0-.9.5-1.8.4-.9,1-1.4.9-1.6,0-.2-1,.2-1.5,1.3-.5,1.1,0,2.1,0,2Z"/>
          <path class="cls-5" d="M607.3,304.6c0-.2-.9,0-1.6.9-.7.9-.6,1.8-.4,1.8.2,0,.4-.7.9-1.4.5-.7,1.2-1.1,1.1-1.3Z"/>
          <path class="cls-5" d="M595.1,303.8c.1-.1-.5-.8-.9-1.7-.4-.9-.5-1.8-.7-1.8-.2,0-.4,1,0,2,.5,1.1,1.4,1.6,1.5,1.4Z"/>
        </g>
        <g class="cls-13">
          <polygon class="cls-6" points="585.8 308.9 588.8 307.3 580.3 291.4 577.6 292.8 585.8 308.9"/>
        </g>
        <path class="cls-5" d="M591.8,305.6c0,0-.2-.7-.9-1.6-.3-.5-.8-1-1.4-1.4-.3-.2-.6-.5-1-.7-.2,0-.4-.2-.6-.3-.3,0-.7,0-.9.4-.2.3-.1.6,0,.9.1.2.3.4.4.6.3.3.6.6.9.8.6.5,1.2.8,1.8,1,1.1.4,1.8.3,1.8.3,0,0-.7-.2-1.6-.7-.5-.2-1-.6-1.6-1-.3-.2-.5-.5-.8-.8-.3-.3-.4-.6-.3-.8,0,0,0,0,.2,0,.1,0,.3.1.5.2.3.2.6.4.9.6.6.4,1,.9,1.4,1.3.7.8,1.1,1.4,1.2,1.3Z"/>
        <path class="cls-5" d="M591.9,305.3c0,0-.7,0-1.8.4-.5.2-1.1.6-1.7,1.1-.3.3-.5.6-.8.9-.2.4-.5.8-.3,1.5.2.3.5.5.8.4.3,0,.5,0,.7-.1.4-.1.8-.3,1.1-.6.6-.5,1.1-1,1.3-1.6.5-1.1.4-1.8.3-1.8-.1,0-.1.7-.7,1.6-.3.4-.7.9-1.3,1.3-.3.2-.6.3-1,.5-.4.1-.7.1-.7,0,0-.2,0-.6.2-.8.2-.3.4-.6.7-.9.5-.5,1-.9,1.5-1.2.9-.5,1.6-.7,1.6-.8Z"/>
      </g>
      <g>
        <g>
          <path class="cls-12" d="M535.9,336.3l18.6-3s9.3,17.9,12.8,17.6l-4.6-36.2-29.1,3.6,2.4,18.1Z"/>
          <g class="cls-14">
            <path class="cls-11" d="M551.5,322.2c.1-.7.8-1.3,1.6-1.2.7,0,1.3.8,1.2,1.5,0,.7-.9,1.5-1.7,1.3-.7-.2-1.4-1.1-1.1-1.7"/>
          </g>
          <g class="cls-14">
            <path class="cls-11" d="M562.7,314.6l-2.9.5,5.5,34.5s.9,1.5,2,1.2l-4.6-36.2Z"/>
          </g>
          <path class="cls-5" d="M554.4,333.8c.2,0,.1-.9.6-1.9.4-1,1.1-1.5,1.1-1.7,0-.2-1.1.2-1.6,1.4-.5,1.1-.2,2.2,0,2.1Z"/>
          <path class="cls-5" d="M556.5,337.4c.2,0,.4-.8,1.1-1.5.7-.7,1.4-1,1.4-1.1,0-.2-1-.2-1.9.7-.8.9-.8,1.9-.6,1.9Z"/>
          <path class="cls-5" d="M561.3,339c0-.2-.9-.3-1.8.3-.9.6-1.2,1.5-1,1.5.2,0,.6-.5,1.4-1,.7-.5,1.5-.6,1.5-.8Z"/>
          <path class="cls-5" d="M550.1,334.1c.2,0-.2-.9-.3-1.9,0-1,.2-1.8,0-1.9-.1,0-.7.8-.6,1.9,0,1.2.7,1.9.9,1.8Z"/>
        </g>
        <g class="cls-13">
          <polygon class="cls-6" points="539.6 335.7 542.9 335.1 540.5 317.3 537.5 317.7 539.6 335.7"/>
        </g>
        <path class="cls-5" d="M546.3,334.6c0,0,0-.7-.2-1.8-.2-.5-.4-1.2-.8-1.8-.2-.3-.4-.7-.7-1-.1-.2-.3-.3-.5-.5-.2-.2-.7-.2-1,0-.3.2-.3.6-.3.8,0,.3.1.5.2.7.1.4.3.8.5,1.1.4.7.9,1.2,1.3,1.5.9.7,1.6.9,1.6.9,0,0-.6-.4-1.3-1.2-.4-.4-.8-.9-1.1-1.5-.2-.3-.3-.6-.5-1-.1-.4-.2-.7,0-.8,0,0,0,0,.2,0,.1,0,.2.2.4.4.2.3.5.6.7.9.4.6.7,1.2.9,1.7.4,1,.6,1.7.7,1.7Z"/>
        <path class="cls-5" d="M546.6,334.3c0,0-.7-.3-1.8-.3-.6,0-1.3.2-2,.5-.3.2-.7.4-1,.6-.3.3-.8.6-.8,1.3,0,.4.3.6.6.7.3,0,.5,0,.7.1.4,0,.8,0,1.2-.2.8-.2,1.4-.6,1.8-1,.8-.8,1-1.6.9-1.6,0,0-.4.6-1.2,1.3-.4.3-1,.6-1.6.8-.3,0-.7.1-1.1.1-.4,0-.7-.1-.7-.3,0-.2.2-.5.5-.7.3-.2.6-.4.9-.6.6-.3,1.2-.5,1.8-.6,1.1-.2,1.7,0,1.8-.2Z"/>
      </g>
      <g>
        <path class="cls-5" d="M459.7,236.1c-.6.2,8.8,9.3,10.3,15.4,1.8,7.4,6.8,15.8,6.8,15.8l34.6,33.2,65.2-9.5,11,20.1-78.6,21.3c-4.2,1.1-8.8.3-12.3-2.3l-50.7-37.7-29.1-36,42.8-20.2Z"/>
        <path class="cls-5" d="M412.1,259l4.2,15.4c11.8,24.3,34.2,70.4,40.2,73.4,8.3,4.1,84.2-11,84.2-11l-1.7-20.9-63.8,5.5-42.6-74.9-20.5,12.5Z"/>
        <path class="cls-2" d="M582.5,312.3s-.1,0-.4.1c-.3,0-.7.2-1.3.4-1.1.3-2.8.8-4.9,1.4-4.3,1.2-10.5,3-18.2,5.2-7.7,2.2-16.8,4.8-27,7.7-5.1,1.4-10.4,2.9-15.9,4.5-1.4.4-2.8.8-4.2,1.2-1.4.3-2.9.5-4.4.5-3,0-6.1-.6-8.8-2-1.4-.7-2.7-1.5-3.9-2.4-1.2-.9-2.4-1.8-3.5-2.7-2.3-1.8-4.6-3.7-6.8-5.5-4.4-3.7-8.7-7.2-12.6-10.8-7.9-7-14.8-13.6-20.4-19.2-5.6-5.7-9.9-10.5-12.7-14-.7-.9-1.3-1.7-1.8-2.3-.5-.7-.9-1.3-1.3-1.8-.3-.5-.6-.8-.8-1.1-.2-.2-.2-.4-.2-.4,0,0,.1.1.3.4.2.3.5.6.8,1.1.4.5.8,1.1,1.3,1.7.5.7,1.2,1.4,1.9,2.3,2.8,3.4,7.2,8.2,12.8,13.9,5.6,5.6,12.5,12.2,20.5,19.1,3.9,3.5,8.2,7.1,12.6,10.7,2.2,1.8,4.5,3.6,6.8,5.5,1.2.9,2.4,1.8,3.5,2.7,1.2.9,2.4,1.7,3.8,2.4,2.7,1.3,5.7,2,8.6,1.9,1.5,0,2.9-.2,4.3-.5,1.4-.3,2.8-.8,4.2-1.2,5.5-1.6,10.9-3.1,15.9-4.5,10.2-2.8,19.3-5.4,27-7.6,7.7-2.1,13.9-3.9,18.2-5.1,2.1-.6,3.8-1,5-1.4.6-.1,1-.3,1.3-.3.3,0,.4,0,.4,0Z"/>
        <path class="cls-2" d="M433.4,259.9c0,0-.4.3-.5,1,0,.3,0,.7.3,1,.3.3.8.4,1.2.2.4-.2.7-.6.7-1,0-.4-.3-.7-.6-.9-.6-.4-1-.2-1-.3,0,0,0-.1.3-.2.2,0,.6,0,.9.2.3.2.7.6.8,1.2,0,.6-.4,1.2-.9,1.5-.6.3-1.3.2-1.7-.3-.4-.5-.4-1-.3-1.4.1-.4.3-.7.5-.8.2-.1.3-.1.3-.1Z"/>
        <path class="cls-2" d="M466.6,250.9s-.2.2-.6.6c-.4.4-1,.9-1.8,1.4-1.6,1-4.2,2.1-7.1,2.4-3,.2-5.7-.5-7.4-1.2-.9-.4-1.6-.8-2-1.1-.4-.3-.7-.5-.7-.5,0,0,1,.6,2.8,1.3,1.8.7,4.4,1.3,7.3,1.1,2.9-.2,5.4-1.2,7-2.2,1.6-.9,2.5-1.8,2.6-1.7Z"/>
      </g>
      <g>
        <path class="cls-2" d="M525.4,195.6s-45.3-17-48.1-19.5c-2.7-2.4-14.7-16-19.7-17.7,0,0-8.1-2.1-13.6-1.8l-5.8.7v-4.4l-23.9.4-.7,5.9-4.1,1.5s-9.6,20-9.6,29.1-4.7,62.5,4.6,72.8c1.4,1.6,7,.6,7,.6,0,0,26.8-2.9,53.5-21.5l-9.8-11.3s-3.5-23.6.6-40.5c0-.4.2-.7.3-1.1,11.6,5.7,29.3,14,34.6,14,0,0,29.2,9.9,34.6,3.5.6-.7,0-10.7,0-10.7Z"/>
        <path class="cls-2" d="M414.3,159.8s-9.3.4-15.4,7.9c-6.1,7.6-16,39.9-16,39.9l-13.6-14-13,7.2s18.4,25.6,22,28.6c.9.7,4.8,2.7,6.6,2.8,8.7.8,14.6-8.1,16.4-15.5l6-30.1"/>
        <path class="cls-1" d="M360.2,198.5l-14-8.3s-4.2-10-2.6-10.5c1.6-.5,3,5.6,3,5.6l2,1s-2.7-5.1-1.8-5.6,2.3,1,3,2.2c.6.9,2.4,4.6,2.4,4.6l.9-1.3-.7-3.4s-1-2.3.1-2.3,1.1,0,1.9,1.8c.8,1.9,1.4,3.3,1.4,3.3,0,0,4.1,2.4,4.9,2.2,2.3-.7,4,.3,4,.3,0,0,3.9,2,2.9,6.1"/>
        <path class="cls-5" d="M454.9,161.1c0,0-.3,1-.7,2.5-.4,1.6-.9,3.7-1.1,6.2-.1,2.5,0,4.7.4,6.3.3,1.6.5,2.6.5,2.6,0,0-.4-.9-.8-2.5-.4-1.6-.6-3.9-.5-6.4.1-2.5.7-4.7,1.2-6.3.5-1.5,1-2.4,1.1-2.4Z"/>
        <path class="cls-5" d="M417.4,159.8c-.1,0-.3-1.5-.3-3.4,0-1.9.4-3.4.5-3.4.1,0,0,1.5,0,3.4,0,1.9,0,3.4-.2,3.4Z"/>
        <path class="cls-5" d="M423,160.7c-.1,0,0-1.7,0-3.8.2-2.1.4-3.8.6-3.8.1,0,0,1.7,0,3.8-.2,2.1-.4,3.8-.6,3.8Z"/>
        <path class="cls-5" d="M430.4,160.5c-.1,0,.2-1.7.3-3.7.1-2,0-3.7.2-3.7.1,0,.5,1.7.3,3.7-.1,2.1-.7,3.7-.8,3.7Z"/>
        <path class="cls-5" d="M435.9,159.1c-.1,0,0-1.4,0-3.1,0-1.7-.3-3.1-.1-3.1.1,0,.6,1.3.6,3.1,0,1.8-.4,3.1-.5,3.1Z"/>
        <path class="cls-5" d="M400.6,172c.1,0,0,13.1-.3,29.2-.3,16.1-.7,29.2-.8,29.2-.1,0,0-13.1.3-29.2.3-16.1.7-29.2.8-29.2Z"/>
        <path class="cls-10" d="M399.7,202.7c0,0-.8-.4-2-1.1-1.2-.7-2.8-1.7-4.8-2.4-2-.7-3.9-.9-5.2-.8-1.4.1-2.2.5-2.2.4,0,0,.7-.5,2.1-.7,1.4-.2,3.4-.1,5.4.6,2,.7,3.7,1.8,4.8,2.6,1.1.8,1.8,1.3,1.8,1.4Z"/>
        <path class="cls-10" d="M454.3,193.5s-.2.1-.5.3c-.4.2-.8.5-1.4.8-.6.4-1.3.8-2.2,1.2-.9.4-1.9,1-3,1.4-1.1.5-2.4,1.1-3.8,1.5-1.4.5-2.9,1-4.4,1.5-3.1.9-6.7,1.8-10.4,2.4-3.8.6-7.4.8-10.7.9-1.6,0-3.2,0-4.7-.1-1.5,0-2.8-.2-4.1-.3-1.2-.1-2.3-.3-3.3-.5-1-.1-1.8-.3-2.5-.5-.6-.1-1.2-.3-1.6-.3-.4,0-.5-.1-.5-.2,0,0,.2,0,.6,0,.4,0,.9.2,1.6.3.7.1,1.5.3,2.5.4,1,.1,2.1.3,3.3.4,1.2.1,2.6.2,4,.3,1.5,0,3,0,4.6,0,3.3,0,6.9-.3,10.6-.9,3.7-.6,7.2-1.4,10.4-2.4,1.6-.5,3-.9,4.4-1.5,1.4-.5,2.6-1,3.8-1.5,1.2-.5,2.2-1,3-1.4.9-.4,1.7-.8,2.3-1.1.6-.3,1.1-.5,1.4-.7.3-.2.5-.2.5-.2Z"/>
        <path class="cls-10" d="M480.6,179c0,0-.8.6-2,1.7-1.2,1.1-2.8,2.7-4.3,4.7-1.4,2-2.4,4.1-3,5.6-.6,1.5-.8,2.5-.9,2.5,0,0,0-.3,0-.7,0-.5.2-1.1.5-1.9.5-1.6,1.4-3.7,2.9-5.8,1.5-2.1,3.1-3.7,4.4-4.7.7-.5,1.2-.9,1.6-1.1.4-.2.6-.3.6-.3Z"/>
        <path class="cls-10" d="M485.7,180.6c0,0-1,.5-2.5,1.5-1.5,1-3.4,2.5-5.1,4.6-1.7,2.1-2.8,4.3-3.4,6-.6,1.7-.8,2.8-.9,2.7,0,0,0-.3,0-.8,0-.5.2-1.2.5-2.1.5-1.7,1.6-4,3.4-6.2,1.7-2.2,3.7-3.7,5.3-4.6.8-.5,1.4-.8,1.9-1,.5-.2.7-.3.7-.2Z"/>
        <path class="cls-10" d="M454.7,189.4s-.2,0-.5.2c-.4.2-.9.4-1.5.6-.6.3-1.4.6-2.4.9-.9.3-2,.7-3.2,1.1-2.4.8-5.2,1.5-8.4,2.3-3.2.7-6.7,1.3-10.5,1.8-3.8.4-7.4.6-10.6.7-3.3,0-6.2,0-8.7-.3-1.2,0-2.3-.2-3.3-.3-1,0-1.8-.2-2.5-.3-.6,0-1.2-.2-1.6-.2-.4,0-.5-.1-.5-.1,0,0,.2,0,.6,0,.4,0,.9,0,1.6.2.7,0,1.5.2,2.5.2,1,0,2.1.2,3.3.2,2.5.2,5.4.2,8.7.2,3.3,0,6.8-.3,10.6-.7,3.7-.4,7.3-1.1,10.5-1.7,3.2-.7,6-1.4,8.4-2.2,1.2-.3,2.2-.7,3.2-1,.9-.3,1.7-.6,2.4-.8.6-.2,1.1-.4,1.5-.5.3-.1.5-.2.5-.1Z"/>
        <path class="cls-10" d="M400.2,195.1c0,.1-2.2-1.7-5.3-2.9-3.1-1.2-5.9-1.3-5.9-1.5,0,0,.7-.1,1.8,0,1.1.1,2.6.4,4.2,1,1.6.6,2.9,1.4,3.8,2.1.9.7,1.4,1.2,1.3,1.2Z"/>
      </g>
      <g>
        <path class="cls-1" d="M540.3,191.8l-9.9,3.3-5,.4v10.7l5.1,1.8,13.8-.8s7.9,4,9.9,3.8c2-.3,2-.9,2-.9l-9.8-5.9s1.5-.5,3.8.5c2.3,1,6.1,3.3,7.5,2.6,1.4-.6,1.1-1.1,1.1-1.1l-7.6-4.8s6.6,2.9,7.7,2.4c1.1-.5,1.2-1.5,1.2-1.5l-4.3-3.8-6.4-5-9.2-1.8Z"/>
        <path class="cls-4" d="M534.8,196.2s.4.1,1.1.4c.7.3,1.6.8,2.8,1.4,1.2.6,2.6,1.3,4.1,2.2.4.2.8.5,1.1.9.3.4.5.9.6,1.4,0,.5,0,1.1-.3,1.6-.3.5-.9.8-1.4.9-.7.2-1.5.2-2.2,0-.7-.2-1.3-.4-1.9-.7-1.2-.5-2.3-1-3.3-1.5h.3c-.7.8-1.5,1.4-2.3,1.8-.8.4-1.6.4-2.2.4-.6,0-1.1-.1-1.4-.2-.3-.1-.5-.2-.5-.2,0,0,.7.2,1.9.2.6,0,1.3-.1,2.1-.5.7-.3,1.5-.9,2.1-1.8h.1c0-.1.2,0,.2,0,1,.5,2.1,1,3.3,1.5.6.2,1.2.5,1.8.6.6.2,1.3.1,1.9,0,.5-.1.9-.3,1.1-.7.2-.3.3-.8.3-1.2,0-.9-.7-1.5-1.5-1.9-1.5-.9-2.9-1.6-4.1-2.3-1.1-.6-2-1.1-2.8-1.5-.6-.4-1-.6-1-.6Z"/>
        <path class="cls-4" d="M551.7,201.4c0,0-2.1-1-4.4-2.7-.3-.3-.6-.5-.9-.8h.3c-1.1.7-2.1.7-2.8.8-.7,0-1.2,0-1.1-.1,0,0,.4,0,1.1-.2.7-.1,1.7-.3,2.6-.9h.2c0-.1.1,0,.1,0,.3.2.5.5.9.7,2.2,1.7,4.2,3,4.1,3.1Z"/>
      </g>
    </g>
    <g>
      <path class="cls-12" d="M568.6,278.1c-2,0-4-.3-5.9-.9-19-5.7-18-19.4-17.2-30.4.7-10.3.8-16.7-7.7-19.9-11.2-4.2-15.8-.1-22.8,6.1-8.3,7.4-18.7,16.5-43.8,12.8-13-1.9-34-8.8-59.7-30.6-15.3-12.9-24.9-24.9-25.3-25.4l3.9-3.1c.4.5,38.8,47.8,81.9,54.2,22.8,3.4,31.8-4.6,39.7-11.6,7.1-6.3,13.8-12.2,27.9-7,12.4,4.6,11.6,15.4,10.9,24.9-.8,11.1-1.5,20.7,13.7,25.3,17.1,5.1,39.6-22,53-38.2,4.8-5.8,8.1-10,10.8-12.1l3.8,3c-1.7,2-6.3,7-10.7,12.3-13.7,16.5-33.7,40.6-52.4,40.6Z"/>
      <path class="cls-11" d="M498.1,238.6s-.2.2-.6.4c-.4.3-1,.6-1.8,1-1.5.8-3.7,1.6-6.3,2.2-2.6.5-4.9.6-6.6.5-.8,0-1.5-.1-2-.2-.5,0-.7-.1-.7-.2,0,0,1.1,0,2.7,0,1.7,0,4-.1,6.5-.6,2.5-.5,4.7-1.3,6.2-2,1.5-.7,2.5-1.2,2.5-1.1Z"/>
      <path class="cls-11" d="M527.4,223.6c0,0-.6,0-1.6,0-1,0-2.4.1-3.8.6-1.4.5-2.6,1.2-3.4,1.9-.8.6-1.2,1.1-1.3,1,0,0,.3-.6,1-1.3.7-.7,1.9-1.6,3.4-2.1,1.5-.5,3-.6,4-.5,1,.1,1.6.3,1.6.4Z"/>
      <path class="cls-11" d="M559.2,270.8s-.9-.1-2.2-.7c-1.3-.6-3.1-1.7-4.6-3.3-1.5-1.6-2.5-3.5-3-4.8-.5-1.4-.6-2.3-.5-2.3,0,0,.3.9.8,2.2.5,1.3,1.5,3,3,4.6,1.5,1.6,3.1,2.7,4.4,3.4,1.3.7,2.1.9,2.1,1Z"/>
      <path class="cls-11" d="M628.8,224c0,0-1.6,1.9-3.8,4.1-2.2,2.2-4,3.9-4.1,3.8,0,0,1.6-1.9,3.8-4.1,2.2-2.2,4-3.9,4.1-3.8Z"/>
    </g>
  </g>
  <g>
    <g>
      <g>
        <path class="cls-12" d="M390.6,190.9h0c-2.1,2.3-5.8,2.5-8.1.4l-8.8-8,7.7-8.5,8.8,8c2.3,2.1,2.5,5.8.4,8.1Z"/>
        <path class="cls-5" d="M390.6,190.9s.4-.4.8-1.3c.4-.9.8-2.4.3-4.2-.3-.9-.8-1.7-1.6-2.5-.8-.7-1.7-1.5-2.6-2.4-1.9-1.7-4-3.6-6.2-5.6h.3c-1.2,1.3-2.5,2.8-3.9,4.2-1.3,1.5-2.6,2.9-3.9,4.3v-.3c2.2,2,4.2,3.9,6.1,5.6.9.9,1.8,1.7,2.6,2.4.8.7,1.7,1.2,2.6,1.4,1.8.4,3.3-.2,4.1-.7.9-.5,1.2-1,1.3-.9,0,0-.3.5-1.2,1.1-.8.6-2.4,1.2-4.3.8-.9-.2-1.9-.6-2.8-1.4-.8-.7-1.7-1.5-2.6-2.4-1.9-1.7-4-3.6-6.2-5.6l-.2-.2.2-.2c1.2-1.4,2.5-2.8,3.9-4.3,1.3-1.5,2.6-2.9,3.9-4.2l.2-.2.2.2c2.2,2,4.3,3.9,6.1,5.6.9.9,1.8,1.7,2.6,2.4.8.8,1.4,1.7,1.6,2.6.5,1.9,0,3.4-.4,4.3-.5.9-1,1.3-1,1.3Z"/>
      </g>
      <g>
        <g>
          <path class="cls-12" d="M346.2,142.8l-15.1-12.5c-1.2-1-1.4-2.7-.4-3.9h0c1-1.2,2.7-1.4,3.9-.4l15.1,12.5-3.6,4.3Z"/>
          <path class="cls-12" d="M332,161.1l-15.1-12.5c-1.2-1-1.4-2.7-.4-3.9h0c1-1.2,2.7-1.4,3.9-.4l15.1,12.5-3.6,4.3Z"/>
          <g class="cls-14">
            <path class="cls-11" d="M346.2,142.8l-15.1-12.5c-1.2-1-1.4-2.7-.4-3.9h0c1-1.2,2.7-1.4,3.9-.4l15.1,12.5-3.6,4.3Z"/>
          </g>
          <g class="cls-14">
            <path class="cls-11" d="M332,161.1l-15.1-12.5c-1.2-1-1.4-2.7-.4-3.9h0c1-1.2,2.7-1.4,3.9-.4l15.1,12.5-3.6,4.3Z"/>
          </g>
          <path class="cls-5" d="M346.2,142.8s0-.1.2-.3c.2-.2.4-.5.7-.9.6-.8,1.5-1.9,2.5-3.2v.2c-1.9-1.5-4.3-3.5-7.1-5.8-1.4-1.2-2.9-2.4-4.5-3.7-.8-.6-1.6-1.3-2.4-2-.4-.3-.8-.7-1.2-1-.4-.3-.8-.5-1.3-.6-.8-.1-1.7.2-2.2.9-.5.6-.7,1.5-.5,2.3,0,.4.3.7.5,1,.2.3.6.5.9.8.6.5,1.3,1.1,1.9,1.6,2.4,2,4.6,3.9,6.5,5.5,1.8,1.5,3.3,2.8,4.4,3.7.5.4.9.8,1.2,1,.3.2.4.4.4.4s-.1,0-.4-.3c-.3-.3-.7-.6-1.2-.9-1.1-.9-2.6-2.1-4.5-3.6-1.9-1.6-4.2-3.4-6.7-5.4-.6-.5-1.3-1-1.9-1.6-.3-.3-.7-.5-1-.9-.3-.3-.5-.8-.6-1.2-.2-.9,0-2,.6-2.7.6-.8,1.7-1.2,2.7-1,.6,0,1.1.3,1.6.7.4.3.8.7,1.2,1,.8.7,1.6,1.3,2.4,2,1.6,1.3,3,2.5,4.4,3.7,2.7,2.3,5.1,4.3,7,5.9h.1c0,0,0,.2,0,.2-1.1,1.3-2,2.4-2.7,3.2-.3.3-.5.6-.7.8-.2.2-.2.3-.2.2Z"/>
          <path class="cls-5" d="M332,161.1s0-.1.2-.3c.2-.2.4-.5.7-.9.6-.8,1.5-1.9,2.5-3.2v.2c-1.9-1.5-4.3-3.5-7.1-5.8-1.4-1.2-2.9-2.4-4.5-3.7-.8-.6-1.6-1.3-2.4-2-.4-.3-.8-.7-1.2-1-.4-.3-.8-.5-1.3-.6-.8-.1-1.7.2-2.2.9-.5.6-.7,1.5-.5,2.3,0,.4.3.7.5,1,.2.3.6.5.9.8.6.5,1.3,1.1,1.9,1.6,2.4,2,4.6,3.9,6.5,5.5,1.8,1.5,3.3,2.8,4.4,3.7.5.4.9.8,1.2,1,.3.2.4.4.4.4,0,0-.1,0-.4-.3-.3-.3-.7-.6-1.2-.9-1.1-.9-2.6-2.1-4.5-3.6-1.9-1.6-4.2-3.4-6.7-5.4-.6-.5-1.3-1-1.9-1.6-.3-.3-.7-.5-1-.9-.3-.3-.5-.8-.6-1.2-.2-.9,0-2,.6-2.7.6-.8,1.7-1.2,2.7-1,.6,0,1.1.3,1.6.7.4.3.8.7,1.2,1,.8.7,1.6,1.3,2.4,2,1.6,1.3,3,2.5,4.4,3.7,2.7,2.3,5.1,4.3,7,5.9h.1c0,0,0,.2,0,.2-1.1,1.3-2,2.4-2.7,3.2-.3.3-.5.6-.7.8-.2.2-.2.3-.2.2Z"/>
        </g>
        <g>
          <path class="cls-12" d="M380.6,158.7l.4-.5c1.9-2.3,1.6-5.6-.7-7.5-2-1.6-4.8-1.6-6.7,0l-22.2-18.5-25.4,30.3,22.7,18c-1.4,2.2-1,5.3,1.1,7h0c2.2,1.9,5.5,1.6,7.4-.6,6.6,5,16.1,3.9,21.3-2.7l3.6-4.5c5.1-6.4,4.3-15.6-1.6-21Z"/>
          <path class="cls-5" d="M380.6,158.7s0,0,.2.2c.1.1.3.3.5.5.2.2.5.5.8.9.2.2.3.4.5.6.2.2.3.5.5.7.7,1,1.5,2.4,2,4.2.5,1.7.8,3.9.5,6.2-.3,2.3-1.1,4.9-2.8,7.1-.8,1.2-1.8,2.2-2.7,3.4-.9,1.2-1.9,2.4-3.1,3.5-2.3,2.2-5.6,3.8-9.3,4.1-3.6.3-7.5-.7-10.7-3.1h.3c-.9,1-2.2,1.7-3.6,1.9-1.4.2-3-.3-4.1-1.2h0s0,0,0,0c-1-.8-1.7-2-1.9-3.4-.2-1.3,0-2.8.8-4v.3c-5.5-4.4-11.4-9.1-17.5-13.9-1.7-1.4-3.4-2.7-5.1-4.1l-.2-.2.2-.2c9.2-11,17.9-21.3,25.4-30.3v-.2c.1,0,.3.1.3.1,8.8,7.4,16.3,13.7,22.1,18.5h-.2c1-.8,2.3-1.2,3.5-1.2,1.2,0,2.3.4,3.1,1,1.7,1.2,2.3,3.1,2.2,4.5,0,1.4-.6,2.4-1,3-.2.3-.4.5-.5.6-.1.1-.2.2-.2.2,0,0,.2-.3.6-.9.4-.6.9-1.6.9-3,0-1.3-.6-3.1-2.2-4.3-.8-.6-1.8-1-3-1-1.1,0-2.3.3-3.3,1.1h0c0,0,0,0,0,0-5.8-4.8-13.3-11.1-22.2-18.4h.3c-7.5,9-16.1,19.3-25.3,30.3v-.3c1.7,1.3,3.4,2.7,5.1,4.1,6.1,4.8,12,9.5,17.5,14h.2c0,.1-.1.3-.1.3-.7,1.1-1,2.4-.7,3.6.2,1.2.9,2.3,1.8,3.1h0s0,0,0,0c1.1.9,2.5,1.3,3.8,1.1,1.3-.1,2.5-.8,3.4-1.7v-.2c.1,0,.3.1.3.1,3.1,2.3,6.9,3.3,10.4,3,3.5-.3,6.7-1.8,9-4,1.2-1.1,2.1-2.3,3-3.5.9-1.2,1.9-2.3,2.7-3.4,1.6-2.2,2.4-4.7,2.8-7,.3-2.3,0-4.4-.5-6.1-.5-1.7-1.2-3.1-1.9-4.1-.2-.3-.3-.5-.5-.7-.2-.2-.3-.4-.5-.6-.3-.4-.6-.7-.8-.9-.2-.2-.4-.4-.5-.5-.1-.1-.2-.2-.2-.2Z"/>
        </g>
        <rect class="cls-3" x="336" y="152.4" width="20.3" height="4" transform="translate(177.8 -185.2) rotate(39.6)"/>
      </g>
    </g>
    <path class="cls-5" d="M380.6,158.7s-.3.4-.8,1.2c-.6.7-1.4,1.8-2.4,3.1-2.1,2.6-5,6.2-8.3,10-3.2,3.9-6.2,7.3-8.4,10-1,1.2-1.9,2.2-2.5,3-.6.7-1,1.1-1,1.1,0,0,.3-.4.8-1.2.6-.7,1.4-1.8,2.4-3.1,2.1-2.6,5-6.2,8.3-10,3.2-3.9,6.2-7.3,8.4-9.9,1-1.2,1.9-2.2,2.5-3,.6-.7,1-1.1,1-1.1Z"/>
    <path class="cls-5" d="M373.6,150.6s-.3.5-.9,1.2c-.6.8-1.5,1.9-2.6,3.3-2.2,2.7-5.4,6.5-8.9,10.6-3.5,4.1-6.6,7.7-9,10.5-1.1,1.3-2,2.4-2.7,3.2-.7.7-1,1.1-1.1,1.1s.3-.5.9-1.2c.6-.8,1.5-1.9,2.6-3.3,2.2-2.7,5.4-6.5,8.9-10.6,3.5-4.1,6.6-7.7,9-10.5,1.1-1.3,2-2.4,2.7-3.2.7-.7,1-1.1,1.1-1.1Z"/>
  </g>
  <g>
    <g>
      <path class="cls-9" d="M274,70.2c-.1.3-11.2,8.7-11.2,8.7l-.2,7.1,5.7.8,8.1-4.6,5.5-.3s3.4,1.8,4,2c1.5.5,2.3-.9,2.3-.9l-5-3.6s5.5,3.1,6.1,2.7c.5-.4.8-1.8-.5-2.7,0,0,1.7.9,2.8.2,1.1-.7.7-1.6.7-1.6l-7.3-6.6c-.9-.8-2.2-1.3-3.4-1.3h-7.5Z"/>
      <path class="cls-8" d="M274.9,73.3s0,.3,0,.8c0,.6-.2,1.4-.4,2.3v-.2c1,0,2.5-.2,4.1-.3.8,0,1.8,0,2.7.4.5.2.8.6,1.1,1.1.2.5.3,1.1,0,1.6h0c0,0,0,0,0,0-1.3.8-3,.6-4.4.7-1.2,0-2.2.4-3.1,1.1-.9.7-1.6,1.5-2.3,2.2-.7.8-1.5,1.5-2.3,1.9-.8.5-1.7.7-2.5.7-1.6,0-2.9-.5-3.7-.8-.8-.3-1.3-.5-1.2-.6,0,0,.5.1,1.3.4.8.2,2.1.7,3.6.6.8,0,1.6-.2,2.3-.7.8-.5,1.5-1.1,2.2-1.9.7-.7,1.4-1.6,2.3-2.3.9-.7,2.1-1.2,3.4-1.2,1.6,0,3.1,0,4.2-.6h0c.4-.7-.2-1.6-.9-2-.8-.4-1.7-.4-2.5-.4-1.6,0-3,.1-4.2.2h-.2s0-.2,0-.2c.2-.9.4-1.7.5-2.3.1-.5.2-.8.2-.8Z"/>
      <path class="cls-8" d="M289,79.5s-.8-.2-1.9-1.1c-1.1-.8-2.3-2.3-3.9-3.5-.4-.3-.8-.5-1.2-.5-.4,0-.9,0-1.4,0-.8,0-1.6,0-2.3,0-1.3,0-2.2,0-2.2-.1,0,0,.8-.1,2.2-.2.7,0,1.5,0,2.3,0,.4,0,.9,0,1.4,0,.5,0,1,.3,1.5.6,1.7,1.2,2.8,2.7,3.8,3.6,1,.9,1.7,1.3,1.7,1.4Z"/>
    </g>
    <g>
      <g>
        <g>
          <path class="cls-12" d="M289.5,291.2l-.3,17.5s17.7,6.1,18,9.4l-33.9.7-.7-27.3,16.9-.3Z"/>
          <g class="cls-14">
            <path class="cls-11" d="M278.7,307.4c-.7.2-1.1.9-.9,1.6.2.7.9,1.1,1.6.9.7-.2,1.2-1.1,1-1.7-.2-.6-1.2-1.1-1.8-.8"/>
          </g>
          <g class="cls-14">
            <path class="cls-11" d="M273.3,318.7v-2.8s32.6.4,32.6.4c0,0,1.5.6,1.4,1.7l-33.9.7Z"/>
          </g>
          <path class="cls-5" d="M289.8,308.5c0,.2-.8.3-1.6.8-.8.5-1.2,1.3-1.4,1.2-.2,0,0-1,1.1-1.7,1-.7,2-.5,2-.3Z"/>
          <path class="cls-5" d="M293.4,309.9c0,.2-.7.5-1.2,1.2-.6.7-.7,1.5-.9,1.5-.2,0-.3-.9.4-1.8.7-.9,1.7-1,1.7-.8Z"/>
          <path class="cls-5" d="M295.5,314.1c-.1,0-.4-.8,0-1.7.4-.9,1.2-1.3,1.2-1.2,0,.1-.4.6-.7,1.4-.3.7-.4,1.4-.5,1.5Z"/>
          <path class="cls-5" d="M289.4,304.5c0,.2-.8,0-1.8,0-.9,0-1.7.4-1.7.3,0-.1.6-.7,1.7-.8,1.1,0,1.9.4,1.8.6Z"/>
        </g>
        <g class="cls-13">
          <polygon class="cls-6" points="289.5 294.6 289.4 297.7 272.8 297.9 272.7 295.1 289.5 294.6"/>
        </g>
        <path class="cls-5" d="M289.4,301c0,0-.6.2-1.7,0-.5,0-1.1-.2-1.8-.5-.3-.1-.7-.3-1-.5-.2,0-.3-.2-.5-.4-.2-.2-.3-.6,0-.9.2-.3.5-.4.7-.4.3,0,.5,0,.6,0,.4,0,.7.2,1.1.3.7.3,1.2.6,1.6,1,.8.7,1.1,1.3,1,1.4,0,0-.5-.5-1.3-1-.4-.3-.9-.6-1.5-.8-.3-.1-.6-.2-1-.3-.4,0-.7,0-.8,0,0,0,0,0,0,.2,0,0,.2.2.4.3.3.2.6.4.9.5.6.3,1.2.5,1.7.6,1,.3,1.6.3,1.6.4Z"/>
        <path class="cls-5" d="M289.2,301.2c0,0-.4-.6-.5-1.6,0-.5,0-1.2.2-1.9,0-.3.2-.7.4-1,.2-.3.4-.8,1.1-.9.3,0,.6.2.7.5.1.2.1.4.2.6,0,.4,0,.8,0,1.1,0,.7-.4,1.3-.7,1.8-.6.9-1.3,1.1-1.3,1,0,0,.5-.4,1-1.3.2-.4.5-1,.5-1.6,0-.3,0-.6,0-1,0-.4-.2-.6-.3-.6-.2,0-.5.3-.6.6-.2.3-.3.6-.4.9-.2.6-.3,1.2-.3,1.7,0,1,.2,1.6,0,1.6Z"/>
      </g>
      <path class="cls-5" d="M227.8,192.3c.8,1.2,37.7,39.5,37.7,39.5,0,0-4.6,17.6-2.9,32.9,1.7,15.3,6.6,39.7,6.6,39.7l26.7-2.1-7.3-83-29.2-38.5-31.6,11.6Z"/>
      <g>
        <g>
          <path class="cls-12" d="M298.8,271.8l3.3,17.2s18.6,2.4,19.5,5.6l-33.1,7.6-6.2-26.6,16.5-3.7Z"/>
          <g class="cls-14">
            <path class="cls-11" d="M291.5,289.9c-.6.3-.9,1.1-.6,1.8s1.1.9,1.7.6,1-1.3.6-1.9c-.4-.6-1.4-.9-1.9-.4"/>
          </g>
          <g class="cls-14">
            <path class="cls-11" d="M288.4,302.1l-.5-2.7,31.9-6.2s1.6.3,1.7,1.4l-33.1,7.6Z"/>
          </g>
          <path class="cls-5" d="M302.5,288.7c0,.2-.8.4-1.4,1.1-.7.7-.9,1.5-1.1,1.4-.2,0-.1-1,.7-1.9.8-.8,1.8-.9,1.8-.7Z"/>
          <path class="cls-5" d="M306.3,289.4c0,.1-.6.6-1,1.4-.4.8-.4,1.6-.5,1.6-.1,0-.5-.9,0-1.9.5-1,1.4-1.3,1.5-1.1Z"/>
          <path class="cls-5" d="M309.3,293.1c-.1,0-.5-.7-.3-1.7.2-1,.9-1.5,1-1.4.1.1-.3.7-.4,1.5-.2.8,0,1.5-.2,1.5Z"/>
          <path class="cls-5" d="M301.4,284.9c0,.2-.8.1-1.7.4-.9.3-1.5.7-1.7.6-.1,0,.4-.9,1.5-1.2,1.1-.3,1.9,0,1.9.2Z"/>
        </g>
        <g class="cls-13">
          <polygon class="cls-6" points="299.4 275.2 300 278.3 283.7 281.9 283.1 279.1 299.4 275.2"/>
        </g>
        <path class="cls-5" d="M300.6,281.4c0,0-.6.3-1.7.4-.5,0-1.2,0-1.9-.1-.3,0-.7-.2-1.1-.3-.2,0-.4-.1-.6-.3-.2-.1-.4-.5-.3-.8.1-.3.4-.5.6-.5.2,0,.5,0,.6,0,.4,0,.8,0,1.1.1.7.1,1.3.4,1.8.7.9.5,1.3,1.1,1.3,1.1,0,0-.6-.4-1.5-.8-.5-.2-1-.4-1.7-.5-.3,0-.7,0-1,0-.4,0-.7,0-.7.2,0,0,0,0,0,.2,0,0,.3.1.4.2.3.1.7.2,1,.3.6.2,1.2.2,1.7.2,1,0,1.6,0,1.7,0Z"/>
        <path class="cls-5" d="M300.5,281.7c0,0-.5-.5-.8-1.5-.1-.5-.2-1.2-.2-1.9,0-.4,0-.7.2-1.1.1-.4.3-.9.9-1.1.3,0,.7.1.8.3.2.2.2.4.3.6.1.4.2.8.3,1.1,0,.7,0,1.4-.3,1.9-.5,1-1.1,1.4-1.1,1.3,0,0,.4-.5.7-1.4.2-.5.2-1,.2-1.7,0-.3-.1-.6-.2-1-.1-.3-.3-.6-.5-.5-.2,0-.4.4-.5.7-.1.3-.2.7-.2,1,0,.6,0,1.2,0,1.7.2,1,.5,1.5.4,1.6Z"/>
      </g>
      <g>
        <path class="cls-5" d="M161.9,166.1s-2.5,15.8,7.1,26.2c9.6,10.3,19.9,14.9,38.1,14.1,18.2-.8,57.5,0,57.5,0,0,0,1.7,21,6.2,38.2,4.5,17.2,13.6,43,13.6,43l17.8-1.7s-4.8-93.6-6.1-101.8c-1.2-8.3-15-12.5-22.5-14.9-7.4-2.5-50.2-11-50.2-11l-38.8-5.4-22.9,13.5Z"/>
        <path class="cls-2" d="M302.2,285.9s-.1,0-.3,0c-.2,0-.5,0-.9,0-.8,0-2.1.1-3.6.3-3.2.2-7.8.5-13.6.9h-.1s0-.1,0-.1c-2.4-7.7-5.5-17.6-9.1-29.1-1.8-5.7-3.7-11.9-5.7-18.3-1-3.2-2.1-6.5-2.8-9.9-.8-3.4-1.3-7-1.5-10.6-.2-4.3-.1-8.5.7-12.5l.2.3c-10.8-.2-21.1-.3-30.3-.4-4.6,0-9,0-13,0-4.1,0-7.8.2-11.3.2-6.9,0-12.4-.3-16.2-.7-1.9-.2-3.4-.3-4.3-.4-.5,0-.8-.1-1.1-.1-.3,0-.4,0-.4,0,0,0,.1,0,.4,0,.3,0,.6,0,1.1,0,1,0,2.5.2,4.3.4,3.8.3,9.3.6,16.2.5,3.4,0,7.2-.2,11.3-.3,4.1,0,8.4-.1,13-.1,9.2,0,19.4,0,30.3.3h.3s0,.3,0,.3c-.8,3.9-.9,8.1-.7,12.4.2,3.6.7,7.1,1.5,10.5.7,3.4,1.8,6.7,2.8,9.9,2,6.4,3.9,12.6,5.7,18.3,3.5,11.5,6.6,21.5,9,29.1h-.2c5.8-.4,10.5-.7,13.6-.9,1.6,0,2.8-.1,3.6-.2.4,0,.7,0,.9,0,.2,0,.3,0,.3,0Z"/>
      </g>
      <path class="cls-2" d="M274,195.6c.1.1-2.1,2.2-4.4,5.3-2.3,3-3.7,5.7-3.8,5.7,0,0,.2-.7.8-1.8.6-1.1,1.5-2.6,2.6-4.1,1.1-1.5,2.3-2.8,3.2-3.7.9-.9,1.5-1.3,1.5-1.3Z"/>
      <path class="cls-2" d="M278.8,197.4c0,.2-3.4,1.1-7,3.6-3.6,2.5-5.7,5.4-5.8,5.3,0,0,.4-.8,1.3-1.9.9-1.1,2.4-2.5,4.2-3.8,1.8-1.3,3.7-2.1,5-2.6,1.4-.5,2.3-.6,2.3-.6Z"/>
    </g>
    <g>
      <path class="cls-2" d="M199.4,71.2c1.3.7,28.6,17.4,29.9,17.4s33.6-11.8,33.6-11.8l6.6,10.2s-28.3,21.8-37.6,22.1c-9.3.3-24-7.1-24-7.1l-8.5-30.8Z"/>
      <path class="cls-2" d="M142.5,80.4s-34,34.6-33.6,43.4c.4,8.8,4.6,13.6,7.3,14.8,3.8,1.6,46.3-3.6,46.3-3.6l2.5-16.6c-7-1.4-15.9-2.4-25.5-3.4,4.3-4.5,9.1-7.9,15-8.9l10.2-11.1s-12.6-16.7-22.2-14.6Z"/>
      <path class="cls-2" d="M140.8,90.7s-1.6-7.5,2-10.5c6-5,11.1-7.3,15.5-9.4,5-2.5,10.3-5.4,10.3-5.4l30.9,5.7s16.5,26.3,16.1,32.8c-.3,6.5-4.5,10.5-4.5,10.5,0,0-2.2,10.1,2.3,21.1,3.7,9.2,10.2,22.4,10.2,22.4,0,0-35.4-5.7-52.1,2.5-9,4.4-9.8,11.4-9.8,11.4l-1.3-38.5h0l-6.9-23.6-12.6-19.1Z"/>
      <path class="cls-5" d="M164.2,118.1s-.2,0-.5-.1c-.3,0-.8-.1-1.4-.2-1.2-.2-2.9-.4-5.1-.6-4.3-.5-10.2-1.1-16.8-1.7-.4,0-.8,0-1.1-.1h-.6c0,0,.5-.4.5-.4,2.5-2,4.8-3.8,7-5.5,2.2-1.6,4.6-2.5,6.6-2.9,2-.4,3.7-.4,4.9-.3.6,0,1,.1,1.3.2.3,0,.4,0,.4.1,0,.1-2.5-.5-6.5.4-2,.5-4.3,1.4-6.5,3-2.1,1.7-4.5,3.6-7,5.6v-.4c.2,0,.6,0,1,.1,6.6.6,12.5,1.3,16.8,1.9,4.3.6,6.9,1.1,6.9,1.3Z"/>
      <path class="cls-5" d="M127.6,115.7s.4-.6,1.4-1.2c1-.6,2.5-1.3,4.2-1.4,1.8,0,3.3.4,4.4.9,1,.5,1.5,1,1.5,1.1,0,0-.6-.3-1.6-.8-1-.4-2.5-.8-4.2-.7-1.7,0-3.1.6-4.1,1.2-1,.5-1.5,1-1.6.9Z"/>
      <path class="cls-5" d="M160,94.6c0,0-.4-1.3-1.1-3.2-.8-2-2-4.7-4.1-7-1.1-1.2-2.3-2.1-3.5-2.8-.3-.2-.6-.3-.9-.4-.3-.1-.6-.2-.9-.3-.6-.2-1.1-.3-1.7-.4-1-.2-1.9-.2-2.5-.2-.6,0-.9,0-.9,0s.3,0,.9-.1c.6,0,1.5,0,2.5,0,.5.1,1.1.2,1.7.4.3.1.6.2.9.3.3.1.6.3.9.4,1.3.7,2.5,1.6,3.7,2.8,2.2,2.5,3.4,5.2,4.1,7.3.3,1,.6,1.9.7,2.4.1.6.2.9.1.9Z"/>
      <path class="cls-5" d="M210.1,115.5s.4-.5,1.1-1.3c.7-.9,1.6-2.2,2.3-4,.7-1.8,1.3-4.1,1.2-6.7,0-2.6-.9-5.4-2.4-7.9-1.6-2.6-3.5-4.7-5.2-6.7-1.7-2-3.1-4-3.9-5.8-.9-1.8-1.3-3.4-1.5-4.5,0-.6,0-1,0-1.3,0-.3,0-.4,0-.4,0,0,0,.6.2,1.7.2,1.1.6,2.6,1.6,4.4.9,1.7,2.3,3.7,4,5.6,1.7,2,3.6,4.2,5.2,6.8,1.6,2.6,2.5,5.5,2.5,8.2,0,2.7-.5,5-1.3,6.9-.8,1.9-1.7,3.2-2.5,4-.4.4-.7.7-.9.9-.2.2-.3.3-.3.3Z"/>
      <g class="cls-13">
        <path class="cls-6" d="M156.4,116.7c-.7-2.2.6-4.9,2.8-5.6,1.2-.4,2.5-.3,3.7-.5.8-.1,1.6-.5,1.8-1.3.2-1-.8-1.7-1.7-2.1-3.7-1.6-7.9-1.7-11.7-.3,2.1,3,3.4,6,3.6,9.7"/>
      </g>
      <g class="cls-13">
        <path class="cls-6" d="M203.1,82.5c-1.6-3.2,4.2,5.8,6.9,8.1s5.5,4.6,7.8,7.3,3.9,5.9,3.6,9.4l-6.4-2.3s.8-5.2-2-9c-2.8-3.8-9.1-12.4-9.8-13.7Z"/>
      </g>
      <g class="cls-13">
        <path class="cls-6" d="M139.2,114.7c-1.8-1.9-4.5-2.7-7.1-3-1.6-.2-3.2-.2-4.7.3s-2.9,1.6-3.3,3.2c-.1.5-.2,1,.1,1.4.3.4,1,.5,1.5.3.5-.2.9-.5,1.4-.8,3.4-2.5,8.1-3,11.9-1.3"/>
      </g>
      <path class="cls-5" d="M149.7,90.2c0,1.2-.9,2.1-2.1,2.1s-2.1-.9-2.1-2.1.9-2.1,2.1-2.1,2.1.9,2.1,2.1Z"/>
      <path class="cls-5" d="M161,76.2c0,1.2-.9,2.1-2.1,2.1s-2.1-.9-2.1-2.1.9-2.1,2.1-2.1,2.1.9,2.1,2.1Z"/>
      <path class="cls-5" d="M183.1,77.1c0,1.2-.9,2.1-2.1,2.1s-2.1-.9-2.1-2.1.9-2.1,2.1-2.1,2.1.9,2.1,2.1Z"/>
      <path class="cls-5" d="M200.1,75.8c0,1.2-.9,2.1-2.1,2.1s-2.1-.9-2.1-2.1.9-2.1,2.1-2.1,2.1.9,2.1,2.1Z"/>
      <path class="cls-5" d="M228.4,100.7c0,1.2-.9,2.1-2.1,2.1s-2.1-.9-2.1-2.1.9-2.1,2.1-2.1,2.1.9,2.1,2.1Z"/>
      <path class="cls-5" d="M211.1,98.6c0,1.2-.9,2.1-2.1,2.1s-2.1-.9-2.1-2.1.9-2.1,2.1-2.1,2.1.9,2.1,2.1Z"/>
      <path class="cls-5" d="M214.8,84.6c0,1.2-.9,2.1-2.1,2.1s-2.1-.9-2.1-2.1.9-2.1,2.1-2.1,2.1.9,2.1,2.1Z"/>
      <circle class="cls-5" cx="238.5" cy="90.4" r="2.1"/>
      <path class="cls-5" d="M255.2,92.3c0,1.2-.9,2.1-2.1,2.1s-2.1-.9-2.1-2.1.9-2.1,2.1-2.1,2.1.9,2.1,2.1Z"/>
      <path class="cls-5" d="M202.3,114.8c0,1.2-.9,2.1-2.1,2.1s-2.1-.9-2.1-2.1.9-2.1,2.1-2.1,2.1.9,2.1,2.1Z"/>
      <path class="cls-5" d="M210,126.8c0,1.2-.9,2.1-2.1,2.1s-2.1-.9-2.1-2.1.9-2.1,2.1-2.1,2.1.9,2.1,2.1Z"/>
      <path class="cls-5" d="M194.3,134.8c0,1.2-.9,2.1-2.1,2.1s-2.1-.9-2.1-2.1.9-2.1,2.1-2.1,2.1.9,2.1,2.1Z"/>
      <path class="cls-5" d="M184.1,148c0,1.2-.9,2.1-2.1,2.1s-2.1-.9-2.1-2.1.9-2.1,2.1-2.1,2.1.9,2.1,2.1Z"/>
      <path class="cls-5" d="M209,145.8c0,1.2-.9,2.1-2.1,2.1s-2.1-.9-2.1-2.1.9-2.1,2.1-2.1,2.1.9,2.1,2.1Z"/>
      <path class="cls-5" d="M168.2,157.7c0,1.2-.9,2.1-2.1,2.1s-2.1-.9-2.1-2.1.9-2.1,2.1-2.1,2.1.9,2.1,2.1Z"/>
      <path class="cls-5" d="M177,124.7c0,1.2-.9,2.1-2.1,2.1s-2.1-.9-2.1-2.1.9-2.1,2.1-2.1,2.1.9,2.1,2.1Z"/>
      <path class="cls-5" d="M169.9,140c0,1.2-.9,2.1-2.1,2.1s-2.1-.9-2.1-2.1.9-2.1,2.1-2.1,2.1.9,2.1,2.1Z"/>
      <path class="cls-5" d="M195.6,93.1c0,1.2-.9,2.1-2.1,2.1s-2.1-.9-2.1-2.1.9-2.1,2.1-2.1,2.1.9,2.1,2.1Z"/>
      <path class="cls-5" d="M182.5,109.9c0,1.2-.9,2.1-2.1,2.1s-2.1-.9-2.1-2.1.9-2.1,2.1-2.1,2.1.9,2.1,2.1Z"/>
      <path class="cls-5" d="M169.9,96.5c0,1.2-.9,2.1-2.1,2.1s-2.1-.9-2.1-2.1.9-2.1,2.1-2.1,2.1.9,2.1,2.1Z"/>
      <path class="cls-5" d="M118,129.1c0,1.2-.9,2.1-2.1,2.1s-2.1-.9-2.1-2.1.9-2.1,2.1-2.1,2.1.9,2.1,2.1Z"/>
      <path class="cls-5" d="M127.7,102.5c0,1.2-.9,2.1-2.1,2.1s-2.1-.9-2.1-2.1.9-2.1,2.1-2.1,2.1.9,2.1,2.1Z"/>
      <path class="cls-5" d="M146.5,132.1c0,1.2-.9,2.1-2.1,2.1s-2.1-.9-2.1-2.1.9-2.1,2.1-2.1,2.1.9,2.1,2.1Z"/>
      <path class="cls-5" d="M159.3,122.3c0,1.2-.9,2.1-2.1,2.1s-2.1-.9-2.1-2.1.9-2.1,2.1-2.1,2.1.9,2.1,2.1Z"/>
      <path class="cls-5" d="M133.7,120c0,1.2-.9,2.1-2.1,2.1s-2.1-.9-2.1-2.1.9-2.1,2.1-2.1,2.1.9,2.1,2.1Z"/>
      <path class="cls-5" d="M144.6,106.1c0,1.2-.9,2.1-2.1,2.1s-2.1-.9-2.1-2.1.9-2.1,2.1-2.1,2.1.9,2.1,2.1Z"/>
    </g>
    <g>
      <path class="cls-12" d="M135.8,227.6c-4.3,0-8.7-.5-12.9-1.4-8.8-1.9-15.7-4.8-21-8.7-5.7,2-12.6,3.5-20.5,3.7-22.7.6-43.2-6.5-68.4-26.9-1.3-2.7-2.5-5.6-3.7-8.6,24.2,19.6,50.5,31,71.9,30.5,6.1-.2,11.5-1.2,16.2-2.6-5.9-6.1-8.8-14.1-8.8-23.7,0-10.6,4.6-15.4,8.3-17.6,5.4-3.1,12.7-2.6,19.1,1.1,7.1,4.1,11.3,11.1,11.3,18.7,0,6.1-3,12.1-8.1,16-2.7,2.1-6.6,4.7-11.9,7.1,4.4,2.6,9.9,4.6,16.5,6.1,7.5,1.7,15.3,1.7,23,.2,21.3-4.2,39.1-11.8,52.9-22.5,11-8.5,19.4-19,25.2-31.2,9.8-20.8,8.3-39.4,8.3-39.6h0c-1.2-24.7-15.6-48.8-36.7-61.4-18.3-10.9-41.7-14-65.9-8.4-15.1,3.4-35.5,11.5-47.6,30.8-13,20.7-9.5,46.4,1.2,58.4,7.7,8.5,22.3,5.5,34.1,3,1.3-.3,2.6-.6,3.9-.8,12.7-2.5,64.1-26.6,64.3-26.7l1.1,4.1c-.8.3-51.4,24.9-64.4,27.5-1.2.2-2.5.5-3.8.8-13,2.7-29.3,6.1-38.8-4.5-6.9-7.7-10.8-18.9-10.8-31.4,0-11.7,3.2-23.7,9.1-33,13-20.7,34.7-29.3,50.7-33,25.5-5.8,50.2-2.6,69.5,9,22.4,13.4,37.8,39.1,39.1,65.3.1,1.3,1.4,20.5-8.8,42.1-6.1,12.9-15.1,24-26.7,33-14.4,11.2-32.9,19-55,23.4-4.1.8-8.1,1.2-12.2,1.2ZM105,175.3c-2,0-4,.5-5.6,1.4-3.8,2.2-5.8,6.8-5.8,13.3,0,9.3,2.9,16.5,9,21.9,6.1-2.5,10.7-5.5,13.6-7.7,3.8-3,6.1-7.5,6.1-12.1,0-5.8-3.3-11.1-8.8-14.4-2.8-1.6-5.8-2.5-8.5-2.5Z"/>
      <path class="cls-5" d="M105.8,220.1c0,0-.8-.2-1.9-.9-1.1-.7-2.5-1.7-4.1-3-1.5-1.3-2.8-2.5-3.6-3.5-.8-1-1.2-1.7-1.2-1.7,0,0,.5.6,1.4,1.5.9.9,2.2,2.1,3.7,3.4,1.5,1.2,2.9,2.3,3.9,3.1,1,.7,1.7,1.1,1.7,1.2Z"/>
      <path class="cls-5" d="M111,217.2c0,0-.9,0-2.2-.6-1.3-.5-3.1-1.5-4.8-2.9-1.7-1.4-3.1-2.8-3.9-4-.9-1.1-1.3-1.9-1.2-2,0,0,.6.7,1.5,1.7.9,1.1,2.3,2.5,4,3.8,1.7,1.3,3.3,2.4,4.6,2.9,1.3.6,2.1.8,2.1.9Z"/>
      <path class="cls-11" d="M91.1,200s-.1-.3-.3-.8c-.2-.5-.4-1.3-.6-2.3-.4-2-.7-4.7-.5-7.8.2-3.1.9-5.8,1.6-7.6.3-.9.6-1.7.9-2.2.2-.5.4-.8.4-.8,0,0-.4,1.2-1,3.1-.6,1.9-1.2,4.6-1.4,7.6-.2,3,0,5.7.3,7.7.3,2,.6,3.1.5,3.2Z"/>
      <path class="cls-11" d="M78.6,217.9c0,0-.9.3-2.4.4-1.5.1-3.6.2-5.9-.2-2.3-.3-4.3-.9-5.7-1.5-1.4-.6-2.2-1-2.2-1.1,0,0,.9.3,2.3.7,1.4.5,3.4,1,5.7,1.3,2.3.3,4.3.4,5.8.3,1.5,0,2.4-.1,2.4,0Z"/>
      <path class="cls-11" d="M216.5,184.7c0,0-.5.9-1.5,2.2-1,1.3-2.4,3-4.1,4.8-1.7,1.8-3.4,3.3-4.7,4.3-1.3,1-2.1,1.6-2.1,1.5,0,0,.7-.7,1.9-1.8,1.2-1.1,2.8-2.6,4.6-4.3,1.7-1.8,3.2-3.4,4.2-4.7,1-1.2,1.7-2,1.7-2Z"/>
      <path class="cls-11" d="M73.9,133.8s-.2-.5-.5-1.3c-.3-.9-.7-2.1-1.1-3.7-.4-1.6-.7-3.5-1-5.7-.2-2.2-.4-4.5-.3-7,0-2.5.3-4.9.7-7,.4-2.1.8-4,1.3-5.6.5-1.6.9-2.8,1.2-3.7.3-.8.5-1.3.6-1.3,0,0-.1.5-.4,1.4-.3.9-.7,2.1-1.1,3.7-.4,1.6-.8,3.5-1.2,5.6-.3,2.1-.6,4.5-.6,7,0,2.5,0,4.8.3,7,.2,2.1.5,4,.9,5.6.3,1.6.6,2.9.9,3.7.2.9.4,1.4.3,1.4Z"/>
      <path class="cls-11" d="M79.9,88.9c.1,0-.4,1.3-1.2,2.7-.8,1.4-1.5,2.5-1.6,2.4-.1,0,.4-1.3,1.2-2.7.8-1.4,1.5-2.5,1.6-2.4Z"/>
    </g>
    <g>
      <path class="cls-5" d="M201,44.8c-1.2,1.9-.2,4.4,1.2,6.2,1.3,1.8,3,3.5,3.3,5.8.4,3-2.2,5.7-5,7-.9.4-1.8.7-2.4,1.5-.8,1.1-.5,2.6-.5,3.9,0,2.3-1.3,4.5-3.3,5.6-2,1-4.7.7-6.3-1-.9-1-1.3-2.3-1.6-3.6-1.1-4.9.2-10.4,3.6-14.2,1.7-1.9,3.8-3.3,5.7-5,1.8-1.7,3.5-3.9,3.6-6.4"/>
      <path class="cls-5" d="M200.6,22c-1.4-3.6-5-5.8-8.7-7.1-5.2-1.8-11.1-2.2-16.3-.4-7.6,2.8-12.7,9.9-16.7,16.9-1.7,3.1-3.6,6.5-7,7.5-1.8.5-3.7.3-5.6.5-2.9.3-5.6,1.8-7.5,4-2.2,2.7-3.4,6.6-6.6,8.1-2.1.9-4.5.5-6.7.6-4.7.1-9.7,3-10.8,7.6-.7,3,.3,6.4-1,9.1-.5,1-1.3,1.8-1.8,2.8-1,2-.4,4.7,1.3,6.1s4.4,1.6,6.3.4c.7-.5,1.3-1.1,2.1-1.4,1.6-.7,3.5.2,4.9,1.3,1.4,1.1,2.8,2.4,4.6,2.6,3.6.4,6.4-3.9,10.1-3.7,2,.1,3.7,1.7,5.4,2.7,3.1,1.8,4.6.2,7.2-2.3,2.6-2.5,4,7.9,10,5.2,5.6-2.5,0-12.1,2.1-11.8,2,.2,7.4-.1,8.5-1.8"/>
      <g>
        <g>
          <g>
            <path class="cls-5" d="M201.3,32.7c1.5-4,.9-8.8-1.6-12.3-1.9-2.7-4.7-4.5-7.6-5.8-4-1.7-8.6-2.4-12.7-1.2-4.2,1.2-7.8,4.6-8.8,8.8-.4,1.9-.3,4-1.1,5.8-.4.8-.9,1.6-.8,2.4.1.8.8,1.4,1.6,1.5.8.2,1.6,0,2.3-.2,2.6-.8,4.8-2.3,7-3.9"/>
            <g>
              <path class="cls-9" d="M187.4,70.4c.5-3.7.6-5.2.6-5.2,0,0,7.9-.4,10.7-10.4,1.4-5,2.1-13.3,2.4-20.1.3-6.1-2.9-14.1-9-14.1l-19.5,2.6c-1.9,0-3.4,1.4-3.6,3.3l-3.1,44.4s8.8,10.4,16.4,9c7.6-1.4,5-9.6,5-9.6Z"/>
              <g>
                <g>
                  <g>
                    <path class="cls-5" d="M197.9,41.6c0,.7-.7,1.2-1.4,1.2-.7,0-1.3-.6-1.2-1.3,0-.7.7-1.2,1.4-1.2.7,0,1.3.6,1.2,1.3Z"/>
                    <path class="cls-5" d="M198.9,38.9c-.2.2-1.1-.7-2.5-.8-1.4-.2-2.5.4-2.6.2,0,0,.1-.4.6-.6.5-.3,1.3-.5,2.1-.4.9.1,1.6.5,2,.9.4.4.5.7.4.8Z"/>
                  </g>
                  <g>
                    <path class="cls-5" d="M185.1,40.3c0,.7-.7,1.2-1.4,1.2-.7,0-1.3-.6-1.2-1.3,0-.7.7-1.2,1.4-1.2.7,0,1.3.6,1.2,1.3Z"/>
                    <path class="cls-5" d="M185.1,37.6c-.2.2-1.1-.7-2.5-.8-1.4-.2-2.5.4-2.6.2,0,0,.1-.4.6-.6.5-.3,1.3-.5,2.1-.4.9.1,1.6.5,2,.9.4.4.5.7.4.8Z"/>
                  </g>
                  <path class="cls-5" d="M189,48.5c0,0,.9-.1,2.3-.2.4,0,.7,0,.8-.3.1-.2,0-.7-.1-1.1-.2-.9-.5-1.9-.7-2.8-1-4-1.7-7.4-1.6-7.4.2,0,1.1,3.2,2.2,7.3.2,1,.5,1.9.7,2.9,0,.4.3.9,0,1.4-.1.3-.4.4-.6.5-.2,0-.4,0-.6,0-1.4,0-2.3-.2-2.3-.3Z"/>
                  <path class="cls-8" d="M188.1,65.2s-6.9-.3-13.2-5.2c0,0,2.6,7.4,12.9,7.6l.3-2.5Z"/>
                  <path class="cls-8" d="M188,51.8c-.4-.7-1.3-1.2-2.2-1.2-.6,0-1.3.2-1.7.7-.4.5-.6,1.1-.3,1.7.3.6,1.1.8,1.8.7.7-.1,1.3-.5,1.9-.9.2-.1.3-.2.4-.4.1-.2.2-.4,0-.5"/>
                </g>
                <path class="cls-5" d="M185.7,32.5c-.2.4-1.6,0-3.2,0-1.7,0-3,.3-3.2,0,0-.2.2-.5.8-.8.6-.3,1.5-.6,2.5-.6,1,0,1.9.3,2.5.6.6.3.8.6.8.8Z"/>
                <path class="cls-5" d="M199.2,32.7c-.3.3-1.2-.1-2.4-.3-1.2-.2-2.2,0-2.4-.4,0-.2.1-.5.6-.7.5-.3,1.2-.4,2-.3.8.1,1.5.5,1.8.9.4.4.5.7.3.9Z"/>
              </g>
            </g>
            <g>
              <path class="cls-9" d="M170,43.9c0-.8-.6-2.6-1.3-2.8-2-.5-5.6-.8-6.2,4.3-.8,6.9,6.3,6.3,6.3,6.1,0-.2.9-5,1.2-7.6Z"/>
              <path class="cls-8" d="M167,48.6s-.1,0-.3.1c-.2,0-.6,0-.9,0-.7-.4-1.2-1.6-1.1-2.8,0-.6.3-1.2.5-1.7.3-.5.6-.8,1-.8.4,0,.6.2.7.4,0,.2,0,.3,0,.4,0,0,.2,0,.1-.4,0-.1,0-.3-.2-.5-.1-.2-.4-.3-.6-.3-.5,0-1.1.4-1.4.9-.3.5-.6,1.2-.6,1.9-.1,1.4.4,2.8,1.4,3.2.5.2.9,0,1.1,0,.2-.1.3-.3.3-.3Z"/>
            </g>
          </g>
          <path class="cls-5" d="M193.2,19.6c-.9,3.3-3.8,6-7.1,6.6-1.8.4-3.9.3-5.1,1.7-1.2,1.4-.8,3.7-1.9,5.2-1.6,2.1-5.3,1.6-6.5,3.9-.5,1-.4,2.2-1,3.2-.7,1.3-2.6,1.7-4,1.1-1.4-.6-2.3-2-2.7-3.4-.4-1.4-.4-3-.3-4.5.1-3,.4-6,1.5-8.7,2.4-5.7,11.7-13,17.8-12"/>
        </g>
        <path class="cls-5" d="M200.2,46.9c1.6-1.9,3.1-4,4.7-5.8,1.5-1.8,3.1-3.7,3.2-6,.2-1.9-.7-3.8-1.7-5.5-1.9-3.2-4.2-6.1-6.6-9-.6-.7-1.2-1.4-1.9-1.9-.6-.4-1.3-.7-2.1-.7-.6,0-1.3,0-1.7.4s-.8,1.1-.5,1.6c.2.5.8.8,1.3,1,2.9,1.5,4.7,4.5,5.5,7.6s.6,6.2.5,9.4c0,2.5-.4,5.2-.7,7.6"/>
      </g>
      <path class="cls-5" d="M183.9,12.9c-7.2-1-14.8,2.2-19.2,8.1-2.4,3.2-4.2,7.5-8,8.8-3.1,1.1-6.6-.1-9.9.4-2.9.5-5.5,2.6-6.7,5.3-.9,2.2-1,4.8-2.7,6.5-2.1,2.3-6,2-8.2,4.2-1.8,1.8-1.9,4.8-1.1,7.3.3,1,.8,2.1,1.7,2.6.8.4,1.8.4,2.7.2,3.2-.6,6.1-2,8.9-3.5,6.4-3.4,12.5-7.3,18.6-11.1,2.8-1.8,5.7-3.6,8-6.1,3-3.3,4.8-7.4,6.9-11.3,2.1-3.9,4.8-7.8,8.8-9.6"/>
      <path class="cls-2" d="M115.3,78.9s0,0-.3,0c-.2,0-.4-.2-.8-.4-.6-.4-1.5-1.3-1.9-2.6-.4-1.3-.5-3.3.6-5.1,1.1-1.8,3-3.2,5.4-4.1,2.4-.9,5.2-1.2,8.1-1.8,1.5-.3,2.9-.7,4.4-1.3,1.4-.7,2.8-1.6,3.8-2.9,1-1.3,1.5-3,1.7-4.7.3-1.7.4-3.5.9-5.3,1-3.6,3.8-6.7,7.4-8.4,1.8-.9,3.7-1.2,5.7-1.2,1.9,0,3.8.3,5.6.5,1.8.1,3.6,0,5.2-.5.8-.3,1.5-.7,2.1-1.3.6-.6,1.1-1.2,1.5-2,.8-1.4,1.3-3,2.2-4.4.9-1.4,2.1-2.5,3.3-3.3,2.6-1.6,5.3-2.4,7.8-3,2.5-.6,4.7-1.2,6.5-2,1.9-.7,3.3-1.7,4.4-2.6,1.1-.9,1.7-1.8,2.1-2.5.4-.6.5-1,.5-1,0,0-.1.4-.5,1-.3.7-1,1.6-2,2.6-1.1.9-2.6,1.9-4.4,2.7-1.9.8-4.1,1.4-6.5,2-2.4.7-5.1,1.4-7.6,3-1.2.8-2.4,1.9-3.2,3.2-.8,1.3-1.3,2.9-2.1,4.4-.4.7-.9,1.5-1.6,2.1-.7.6-1.4,1.1-2.3,1.4-1.7.6-3.6.7-5.4.6-1.8-.1-3.7-.4-5.5-.4-1.9,0-3.7.4-5.4,1.2-3.4,1.6-6.1,4.6-7.1,8.1-.5,1.7-.6,3.5-.9,5.3-.3,1.7-.8,3.5-1.8,4.9-1,1.4-2.5,2.3-3.9,3-1.5.7-3,1.1-4.5,1.4-2.9.6-5.7.8-8.1,1.7-2.4.9-4.3,2.2-5.3,3.9-1.1,1.7-1,3.6-.7,4.9.4,1.4,1.2,2.2,1.8,2.6.6.4,1,.5,1,.5Z"/>
      <path class="cls-2" d="M115.9,57.6s.2-.3.7-.7c.5-.4,1.4-.8,2.7-.8,1.2,0,2.7.2,4.4.7.8.2,1.7.5,2.7.6.9.1,2,0,3-.3,1-.4,1.9-1.1,2.6-2,.7-.9,1.2-2,1.7-3.2.4-1.2.8-2.5,1.2-3.8.5-1.3,1-2.6,1.7-3.9,1.4-2.5,3.4-5,6.4-6.4,1.4-.7,3.1-1,4.7-1,1.6,0,3.3,0,4.9,0,1.6-.1,3.2-.7,4.3-1.7,1.2-1.1,1.9-2.5,2.6-3.9.7-1.4,1.4-2.8,2.4-4,1-1.2,2.2-2.1,3.5-2.7,2.6-1.3,5.4-1.8,7.9-2,2.6-.2,4.9-.3,7.1-.7,2.1-.3,4-.8,5.6-1.6,1.5-.7,2.7-1.6,3.6-2.5.8-.9,1.3-1.7,1.6-2.3.3-.6.4-.9.4-.9,0,0,0,.3-.3.9-.2.6-.7,1.4-1.5,2.3-.8.9-2,1.9-3.6,2.6-1.6.8-3.5,1.3-5.6,1.7-2.2.3-4.5.4-7.1.7-2.5.3-5.2.7-7.8,2-1.3.6-2.4,1.5-3.4,2.6-.9,1.1-1.6,2.5-2.3,3.9-.7,1.4-1.5,2.9-2.7,4-1.2,1.2-2.9,1.7-4.6,1.8-1.7.2-3.3,0-4.9,0-1.6,0-3.2.3-4.5.9-2.8,1.3-4.8,3.7-6.2,6.2-.7,1.2-1.3,2.5-1.7,3.8-.5,1.3-.8,2.6-1.2,3.8-.8,2.4-2.3,4.6-4.5,5.4-1.1.4-2.2.4-3.1.3-1-.1-1.9-.4-2.7-.7-1.6-.5-3.1-.9-4.3-.8-1.2,0-2.1.4-2.6.7-.5.4-.7.6-.8.6Z"/>
      <path class="cls-2" d="M146.3,78.6s.2,0,.4-.2c.3-.1.6-.5.8-1,.2-.5.2-1.3-.3-1.9-.5-.7-1.2-1.2-2.2-1.7-.9-.5-2.1-.8-3-1.8-.9-.9-1.5-2.2-1.7-3.7-.1-1.4.1-3,.9-4.4.8-1.4,2-2.5,3.3-3.4,2.8-1.8,5.9-2.4,8.7-2.9,2.8-.5,5.2-1,7.2-1.8,1.9-.8,3.4-1.8,4.2-2.6.8-.8,1.2-1.4,1.2-1.4,0,0,0,.2-.2.4-.2.3-.5.6-.9,1.1-.8.9-2.2,1.9-4.2,2.8-2,.9-4.5,1.4-7.2,1.9-2.7.5-5.8,1.1-8.5,2.9-1.3.9-2.5,2-3.2,3.3-.7,1.3-1,2.7-.9,4.1.1,1.3.7,2.6,1.5,3.4.9.8,2,1.2,2.9,1.7,1,.5,1.8,1.1,2.3,1.8.5.7.5,1.6.3,2.2-.2.6-.6.9-.9,1-.3.1-.5.1-.5.1Z"/>
    </g>
    <g>
      <path class="cls-9" d="M158.9,130.9s-1.2-1.3-.8-2.4c.4-1.2,1.1-2,1.3-1.9.3,0,.2-6.3,1.3-6.7,1.2-.5,2.5-.8,2.5-.8,0,0,1.3-3.5,2.1-3.4s9.3,1.6,9.3,1.6c0,0,6.7,7.2,6.4,7.9-.4.7-.8,1.4-1.8,1.1s-2.1-1.1-2.1-1.1l3.6,3.9s-.7,3-3.6.9l1.4,1.8s-.9,3.8-5.1.6l-4.3-2.6h-2.8l6.4,3.9s.7,1.9-1.3,1.9c-1.9,0-6.8-2.6-6.8-2.6,0,0-2.9,1.7-3.8,1.7s-1.2-1.1-1.2-1.1l-.8-2.8Z"/>
      <path class="cls-8" d="M177.3,130.2c0,0-.6-.5-1.5-1.3-.9-.8-2.3-1.8-3.5-3.2-.6-.7-1.4-.9-2.2-1-.8,0-1.5,0-2.1.1-1.2.1-2,0-2,0,0,0,.7,0,1.9-.3.6,0,1.3-.3,2.2-.2.4,0,.9,0,1.3.3.5.2.8.5,1.2.8,1.2,1.4,2.5,2.4,3.4,3.3.9.9,1.3,1.5,1.3,1.5Z"/>
      <path class="cls-8" d="M180.8,129.1c0,0-.7-.6-1.7-1.7-1-1.1-2.5-2.6-4.1-4.2-.8-.8-1.6-1.6-2.4-2.2-.8-.6-1.6-.8-2.4-.9-1.5,0-2.4,0-2.4,0,0,0,.2,0,.6-.2.4,0,1-.2,1.8-.1.8,0,1.7.2,2.6.8.8.6,1.6,1.4,2.4,2.2,1.7,1.6,3.1,3.2,4,4.3,1,1.2,1.5,1.9,1.5,1.9Z"/>
    </g>
    <path class="cls-5" d="M183.9,49.8c.3-.1.8.8,1.8,1.7.9.9,1.8,1.5,1.7,1.8,0,.2-1.3,0-2.4-1.1-1.1-1.1-1.3-2.3-1.1-2.4Z"/>
  </g>
  <g>
    <g>
      <g>
        <path class="cls-12" d="M257.7,130l-8.9-45.7c-.4-1.9-2.2-3.1-4-2.7-1.9.4-3.1,2.2-2.7,4l.4,2.1-18.4,4.5c-4.1,1-7.2,4-8.6,7.7l-11.1,2.7c-3.8.9-6.2,4.8-5.2,8.7l1,4-10.9,2.7c-3,.7-4.9,3.8-4.1,6.8.7,3,3.8,4.9,6.8,4.1l10.9-2.7.8,3.1c.9,3.8,4.8,6.2,8.7,5.2l11.3-2.8h0c2.9,2.4,6.9,3.5,10.9,2.5l16.3-4,.2,1c.4,1.9,2.2,3.1,4,2.7,1.9-.4,3.1-2.2,2.7-4Z"/>
        <path class="cls-5" d="M257.7,130s0,.3,0,.8c0,.5-.1,1.3-.8,2.1-.6.8-1.9,1.5-3.4,1.2-.7-.2-1.5-.6-2-1.2-.3-.3-.5-.7-.6-1.2-.1-.4-.2-.9-.3-1.4h.1c-3.3.9-7.4,1.9-12,3.1-1.2.3-2.4.6-3.6.9-1.2.3-2.5.6-3.9.5-2.7,0-5.6-1-7.9-3l.3-.2s0,0,0,0v.2s-.1,0-.1,0c-3.8.9-7.8,2-12.1,2.9-2.2.3-4.6-.5-6.3-2.2-.8-.8-1.4-1.9-1.8-3.1-.3-1.1-.6-2.3-.9-3.4l.3.2c-3,.7-6,1.5-9.2,2.3-.8.2-1.5.4-2.4.5-.8.1-1.7,0-2.5-.2-1.6-.5-3-1.8-3.6-3.4-.7-1.6-.5-3.6.4-5.1.9-1.6,2.6-2.6,4.3-2.9,3.4-.8,6.8-1.7,10.2-2.5l-.2.3c-.2-.8-.4-1.7-.6-2.6-.2-.9-.5-1.8-.6-2.7-.1-1.9.5-3.8,1.7-5.3.6-.7,1.3-1.3,2.2-1.8.8-.5,1.7-.7,2.6-.9,3.5-.9,6.9-1.7,10.3-2.5l-.2.2c1-2.6,2.9-4.9,5.2-6.3,1.2-.7,2.4-1.2,3.7-1.5,1.3-.3,2.5-.6,3.8-.9,5-1.2,9.8-2.4,14.4-3.5l-.2.3c-.1-.5-.2-1.1-.3-1.6-.1-.5-.2-1.1-.1-1.7.2-1.1.9-2.2,1.9-2.7,1-.5,2.2-.5,3.2,0,1,.5,1.7,1.4,2,2.4.8,4,1.5,7.8,2.2,11.3,1.4,7.1,2.6,13.3,3.5,18.4,1,5.1,1.7,9.1,2.3,11.9.3,1.4.4,2.4.6,3.1,0,.3.1.6.1.8,0,.2,0,.3,0,.3s0,0,0-.3c0-.2,0-.5-.2-.8-.1-.7-.4-1.8-.6-3.1-.6-2.8-1.4-6.8-2.4-11.9-1-5.1-2.2-11.3-3.6-18.4-.7-3.5-1.4-7.3-2.2-11.3-.2-.9-.9-1.8-1.8-2.2-.9-.4-2-.4-2.9,0-.9.5-1.5,1.4-1.7,2.4,0,.5,0,1,.1,1.5.1.5.2,1.1.3,1.6v.2s-.2,0-.2,0c-4.6,1.1-9.4,2.3-14.4,3.6-2.5.7-5.2,1-7.4,2.4-2.2,1.4-4,3.5-5,6.1h0c0,.1-.1.2-.1.2-3.4.8-6.8,1.7-10.3,2.5-.9.2-1.7.4-2.5.9-.8.4-1.5,1-2,1.7-1.1,1.3-1.7,3.1-1.6,4.9,0,.9.3,1.8.5,2.6.2.9.4,1.7.6,2.6v.2c0,0-.2,0-.2,0-3.5.8-6.9,1.7-10.2,2.5-1.7.3-3.2,1.2-4,2.7-.8,1.4-1,3.2-.4,4.7.6,1.5,1.8,2.7,3.3,3.2.7.2,1.5.3,2.3.2.8-.1,1.6-.4,2.3-.5,3.1-.8,6.2-1.5,9.2-2.2h.2c0,0,0,.2,0,.2.3,1.1.5,2.3.9,3.4.3,1.1.9,2.1,1.7,2.9,1.5,1.6,3.8,2.4,5.9,2.1,4.2-.9,8.3-2,12.1-2.9v.2c-.1,0-.2,0-.2,0v-.6c-.1,0,.3.4.3.4,2.2,1.9,5,2.9,7.6,2.9,1.3,0,2.6-.2,3.8-.5,1.2-.3,2.4-.6,3.6-.9,4.6-1.1,8.7-2.1,12-2.9h.1s0,0,0,0c0,.5.2.9.3,1.3.1.4.3.8.6,1.1.5.6,1.2,1,1.9,1.2,1.4.3,2.6-.4,3.3-1.1.6-.8.8-1.6.8-2,0-.5,0-.8,0-.8Z"/>
      </g>
      <path class="cls-5" d="M251.1,130.2c-.1,0-2.3-9.5-4.8-21.2-2.5-11.7-4.4-21.3-4.3-21.3.1,0,2.3,9.5,4.8,21.2,2.5,11.7,4.4,21.3,4.3,21.3Z"/>
      <path class="cls-5" d="M223.5,131.7c-.1,0-2-7.1-4.3-15.9-2.2-8.8-3.9-16-3.8-16,.1,0,2,7.1,4.3,15.9,2.2,8.8,3.9,16,3.8,16Z"/>
      <path class="cls-5" d="M202.8,126.2c-.1,0-.9-2.4-1.6-5.4-.7-3-1.2-5.5-1.1-5.5.1,0,.9,2.4,1.6,5.4.7,3,1.2,5.5,1.1,5.5Z"/>
      <path class="cls-11" d="M212.7,102.5c0,0-1.1.2-2.8.6-.9.2-1.9.4-3,.7-1.1.3-2.3.7-3.5,1.4-1.1.7-2.1,1.5-2.4,2.6-.3,1.1-.2,2.1,0,3,.2,1.7.5,2.8.4,2.8,0,0-.5-1-.8-2.8-.1-.9-.3-2,0-3.2.2-.6.5-1.2,1-1.6.5-.5,1-.9,1.6-1.2,1.2-.7,2.5-1.1,3.6-1.4,1.1-.3,2.2-.5,3-.6,1.8-.3,2.8-.3,2.9-.3Z"/>
      <path class="cls-11" d="M239,90.4s-.3.1-.9.3c-.6.2-1.5.4-2.6.6-2.3.5-5.3,1.1-8.7,1.8-1.7.4-3.2.9-4.5,1.6-1.3.7-2.3,1.6-3,2.5-1.4,1.8-1.4,3.3-1.5,3.3,0,0,0-.4,0-1,.1-.6.5-1.5,1.1-2.5.7-.9,1.7-1.9,3-2.6,1.3-.8,2.9-1.3,4.6-1.7,3.4-.7,6.5-1.3,8.7-1.7,1.1-.2,2-.4,2.6-.4.6,0,1-.1,1,0Z"/>
      <path class="cls-11" d="M198.2,117.8c0,0-.7.5-1.9.8-1.2.3-3,.5-4.9.9-.9.2-1.8.5-2.5.9-.7.4-1.3.9-1.7,1.3-.8.9-1,1.7-1.1,1.7,0,0,0-.9.8-1.9.4-.5,1-1,1.8-1.5.8-.4,1.7-.7,2.6-1,1.9-.4,3.7-.5,4.9-.7,1.2-.2,2-.5,2-.4Z"/>
    </g>
    <path class="cls-11" d="M246.5,82.6c0,0-.4,0-.9.2-.5.1-1.2.5-1.8,1.1-.5.6-.7,1.4-.8,1.9,0,.5,0,.9,0,.9,0,0-.2-.3-.3-.9,0-.6.1-1.5.8-2.2.6-.7,1.5-1,2.1-1.1.6,0,1,0,1,.1Z"/>
  </g>
  <g>
    <path class="cls-5" d="M392.2,75.8s0,0-.2.1c-.2,0-.3.2-.6.3-.5.3-1.3.7-2.2,1.2-2,1-4.8,2.4-8.2,4.2-7,3.5-16.7,8.4-27.5,13.9h-.2c0,0-.1,0-.1,0-.8-1.1-1.6-2.2-2.4-3.4-1.2-1.7-2.3-3.3-3.4-4.8h.3c-10.2,5.9-19.1,11.1-25.6,14.9-3.2,1.8-5.8,3.3-7.6,4.4-.9.5-1.6.9-2.1,1.2-.2.1-.4.2-.5.3-.1,0-.2,0-.2,0,0,0,0,0,.2-.1.1,0,.3-.2.5-.3.5-.3,1.2-.7,2-1.2,1.8-1.1,4.4-2.6,7.6-4.5,6.5-3.8,15.4-9,25.6-15h.2c0-.1.1,0,.1,0,1.1,1.5,2.2,3.2,3.4,4.8.8,1.2,1.6,2.3,2.4,3.4h-.3c10.9-5.5,20.6-10.3,27.6-13.8,3.5-1.7,6.3-3.1,8.3-4.1.9-.5,1.7-.8,2.2-1.1.2-.1.4-.2.6-.3.1,0,.2,0,.2,0Z"/>
    <path class="cls-5" d="M384.9,112s-.2,0-.5.2c-.4,0-.9.2-1.6.3-1.4.3-3.4.7-5.9,1.2-5,1-11.9,2.3-19.6,3.8h-.2s0-.2,0-.2c-.1-.8-.3-1.6-.4-2.4,0-.5-.2-1.1-.3-1.6l.3.2c-8,1.4-15,3-20,4.4-2.5.7-4.5,1.2-5.9,1.6-.7.2-1.2.3-1.6.4-.4,0-.6.1-.6.1s.2,0,.5-.2c.4-.1.9-.3,1.6-.5,1.4-.4,3.4-1.1,5.9-1.8,5-1.4,12.1-3.1,20.1-4.5h.2s0,.2,0,.2c0,.5.2,1.1.3,1.6.1.8.3,1.7.4,2.4l-.3-.2c7.7-1.4,14.6-2.7,19.6-3.7,2.4-.4,4.4-.8,5.9-1,.7-.1,1.2-.2,1.6-.3.4,0,.6,0,.6,0Z"/>
    <path class="cls-5" d="M317.8,77.2c.1,0-2.4,5.6-5.7,12.3-3.3,6.7-6,12.1-6.1,12.1-.1,0,2.4-5.6,5.7-12.3,3.3-6.7,6-12.1,6.1-12.1Z"/>
    <path class="cls-5" d="M347.7,104.2c0,.1-6.3,2.1-14.1,4.4-7.8,2.3-14.2,4-14.3,3.9,0-.1,6.3-2.1,14.1-4.4,7.8-2.3,14.2-4,14.3-3.9Z"/>
    <path class="cls-5" d="M298.8,60s.2.4.4,1c.3.7.6,1.7,1,2.9.9,2.6,2,6.1,3.4,10.3v.3c0,0-.2,0-.2,0-2.4,0-5-.1-7.8-.2l.2-.3c.2,1,.4,2,.6,3.1,1.3,7,2.4,13.4,3.3,18.1.4,2.3.7,4.1.9,5.5,0,.6.2,1.1.2,1.5,0,.3,0,.5,0,.5,0,0,0-.2-.1-.5,0-.4-.2-.9-.3-1.5-.3-1.4-.6-3.2-1.1-5.5-.9-4.7-2.1-11.1-3.4-18.1-.2-1.1-.4-2.1-.6-3.1v-.3c0,0,.2,0,.2,0,2.8,0,5.4.1,7.8.2l-.2.3c-1.3-4.2-2.5-7.8-3.3-10.4-.4-1.2-.7-2.2-.9-3-.2-.7-.3-1.1-.3-1.1Z"/>
    <path class="cls-5" d="M264.2,135.4c0-.1,5-2.6,11.3-5.6,6.3-3,11.5-5.3,11.5-5.1,0,.1-5,2.6-11.3,5.6-6.3,3-11.5,5.3-11.5,5.1Z"/>
    <path class="cls-5" d="M287.8,142.6c-.1,0,1.8-2.6,4.3-5.6,2.5-3,4.6-5.3,4.7-5.3.1,0-1.8,2.6-4.3,5.6-2.5,3-4.6,5.3-4.7,5.3Z"/>
    <path class="cls-5" d="M300.5,177c-.1,0,.7-9.8,1.9-21.8,1.2-12,2.3-21.7,2.4-21.7.1,0-.7,9.8-1.9,21.8-1.2,12-2.3,21.7-2.4,21.7Z"/>
    <path class="cls-5" d="M283.2,90.8c.1,0,1.2,1.8,2.3,4.1,1.2,2.3,2,4.2,1.9,4.3-.1,0-1.2-1.8-2.3-4.1-1.2-2.3-2-4.2-1.9-4.3Z"/>
  </g>
</svg>